<svg width="33" height="24" viewBox="0 0 33 24" fill="none" xmlns="http://www.w3.org/2000/svg">
<path d="M31.8313 4.27476C31.4633 2.89369 30.3791 1.80617 29.0022 1.43707C26.5067 0.766291 16.5 0.766291 16.5 0.766291C16.5 0.766291 6.49333 0.766291 3.9978 1.43707C2.62102 1.80617 1.53665 2.89369 1.16868 4.27476C0.5 6.77783 0.5 12.0003 0.5 12.0003C0.5 12.0003 0.5 17.2228 1.16868 19.7261C1.53665 21.107 2.62102 22.1945 3.9978 22.5637C6.49333 23.2344 16.5 23.2344 16.5 23.2344C16.5 23.2344 26.5067 23.2344 29.0022 22.5637C30.3791 22.1945 31.4633 21.107 31.8313 19.7261C32.5 17.2228 32.5 12.0003 32.5 12.0003C32.5 12.0003 32.5 6.77783 31.8313 4.27476Z" fill="#2A2A2B"/>
</svg>
