<svg width="33" height="26" viewBox="0 0 33 26" fill="none" xmlns="http://www.w3.org/2000/svg">
<path d="M28.8886 6.44366C28.9079 6.72421 28.9079 7.00475 28.9079 7.28788C28.9079 15.9149 22.3531 25.8645 10.3673 25.8645V25.8593C6.82665 25.8645 3.35955 24.8483 0.378906 22.9324C0.893745 22.9944 1.41116 23.0254 1.92987 23.0267C4.86407 23.0293 7.71439 22.0429 10.0228 20.2265C7.23439 20.1735 4.78923 18.3519 3.93503 15.6925C4.91181 15.8813 5.91826 15.8425 6.87697 15.5801C3.83697 14.9647 1.64987 12.2885 1.64987 9.18057C1.64987 9.15213 1.64987 9.12498 1.64987 9.09783C2.55568 9.60333 3.56987 9.88387 4.60729 9.9149C1.74407 7.99764 0.861487 4.18122 2.59052 1.19738C5.89891 5.27624 10.7802 7.75588 16.0202 8.01832C15.495 5.75071 16.2125 3.3745 17.9054 1.78044C20.5299 -0.691439 24.6576 -0.564742 27.1247 2.06357C28.5841 1.77527 29.9828 1.23875 31.2628 0.478568C30.7763 1.98988 29.7583 3.27366 28.3983 4.08943C29.6899 3.93687 30.9518 3.5904 32.1402 3.06163C31.2654 4.37514 30.1634 5.51929 28.8886 6.44366Z" fill="#2A2A2B"/>
</svg>
