<svg width="34" height="32" viewBox="0 0 34 32" fill="none" xmlns="http://www.w3.org/2000/svg">
<path fill-rule="evenodd" clip-rule="evenodd" d="M26.501 3.2608C26.4541 3.49232 26.4319 3.60198 26.4012 3.75219L26.2506 3.8513C26.1729 4.15832 26.1014 4.45562 26.0221 4.7506C25.9553 4.99956 25.8649 5.24328 25.8117 5.4947C25.7526 5.77479 25.6614 6.04548 25.6146 6.33192C25.5726 6.59043 25.6022 6.87946 25.4672 7.11169C25.3097 7.38136 25.406 7.6829 25.3055 7.95837C25.2125 8.21274 25.1672 8.48436 25.1012 8.74775C25.1071 8.74902 25.1474 8.75717 25.1973 8.76759C25.1036 9.578 24.9893 10.3899 25.1413 11.2518C25.128 11.2701 25.0834 11.3321 25.0286 11.4083C25.0838 11.4263 25.1341 11.4427 25.186 11.4595C25.2316 11.9289 25.3073 12.4041 25.3385 12.8728C25.3767 13.45 25.5494 14.0112 25.4998 14.6007C25.4749 14.8968 25.5458 15.2192 25.6518 15.5C25.7169 15.6719 25.6004 15.7061 25.5587 15.8133C25.622 15.8428 25.6852 15.8726 25.7701 15.9122C25.806 16.2843 25.8433 16.6673 25.8815 17.0619C25.7848 17.0465 25.7262 17.037 25.6337 17.0224C25.5655 17.1959 25.3576 17.3261 25.5156 17.6815C25.3573 17.5605 25.2593 17.4857 25.1388 17.3936C25.099 17.6323 25.0833 17.7261 25.0635 17.8443C25.1374 17.8793 25.2068 17.9119 25.2831 17.9478C25.2904 18.0583 25.2991 18.1851 25.3073 18.3073C25.2604 18.3285 25.2111 18.3683 25.1907 18.3572C25.0406 18.2728 24.8961 18.1782 24.7509 18.0875C24.4756 18.2041 24.6562 18.43 24.6208 18.6025C24.5801 18.5941 24.5396 18.5855 24.4833 18.5741C24.4425 18.645 24.399 18.7206 24.3531 18.8001C24.1834 18.7321 24.0232 18.6682 23.7961 18.5773C23.4813 18.1692 23.1561 17.6696 22.7475 17.2515C22.5367 17.0354 22.3956 16.7351 22.1608 16.5925C21.8694 16.4151 21.8165 16.0807 21.5791 15.9147C21.3175 15.7313 21.2117 15.4295 20.9885 15.2503C20.7436 15.0536 20.6255 14.7602 20.4032 14.5806C19.8738 14.1528 19.5121 13.5489 18.9154 13.1987C18.8264 12.9266 18.4735 12.8285 18.4601 12.5066C18.1521 12.367 17.9343 12.1188 17.7023 11.8855C17.3749 11.5561 16.9458 11.3396 16.6761 10.9405C16.5998 10.8278 16.4367 10.7737 16.2359 10.6422C16.4151 11.2212 16.5688 11.7182 16.7568 12.326C16.74 12.3786 16.6833 12.5532 16.6261 12.7292C16.7694 12.8517 16.8702 12.9378 16.9776 13.0298C17.1046 13.6156 17.4616 14.1922 17.343 14.8576C17.6406 14.8881 17.6412 15.2109 17.8055 15.3443C17.8874 16.0831 18.2468 16.6945 18.5029 17.428C18.4999 17.4395 18.4745 17.5394 18.4503 17.6343C18.5121 17.9144 18.7834 18.0756 18.7886 18.3992C18.7921 18.634 18.9348 18.9002 19.0912 19.0904C19.282 19.3224 19.374 19.6089 19.3995 19.8535C19.4312 20.1573 19.6458 20.312 19.737 20.5835C19.7198 20.6518 19.6945 20.7518 19.6595 20.8904C20.0455 21.3732 20.2874 21.9596 20.6008 22.5255C20.5678 22.6198 20.5345 22.7139 20.4918 22.8354L20.8418 23.3673C20.7211 23.3521 20.6654 23.3449 20.5492 23.33C20.7501 23.5792 20.7086 23.8245 20.6036 24.0966C20.5372 24.1008 20.4605 24.1057 20.3955 24.1101C20.2992 24.5474 20.2003 24.9965 20.1101 25.4063C19.9465 25.4576 19.8223 25.4962 19.662 25.5464C19.6193 25.5208 19.5391 25.4726 19.4591 25.4248L19.3375 25.5047C19.3549 25.571 19.3741 25.6439 19.4033 25.755C19.1119 25.9792 18.7895 25.9312 18.4677 25.848C18.2682 25.6339 18.2682 25.6339 17.8597 25.6675C17.996 25.738 18.0477 25.7648 18.128 25.8066C18.0891 25.8493 18.0452 25.8981 17.9838 25.9655C17.8898 25.8608 17.8127 25.7747 17.717 25.6682C17.6924 25.7426 17.6758 25.792 17.6636 25.8286C17.2773 25.8114 16.89 25.7941 16.4561 25.7746L16.3042 25.5437C16.2774 25.6351 16.2616 25.6885 16.2404 25.7611C16.18 25.7142 16.1232 25.6697 16.0482 25.6112L15.8285 25.7557C15.7169 25.7327 15.636 25.7158 15.5546 25.6991C15.5744 25.5244 15.4724 25.3293 15.6426 25.1778C15.3025 25.1641 15.3427 25.4433 15.2654 25.6887C15.1889 25.5918 15.1292 25.5164 15.0667 25.4371C14.7685 25.4484 14.4719 25.3974 14.1732 25.5817C13.9239 25.7356 13.6436 25.5722 13.3841 25.3944C13.3567 25.4691 13.3401 25.5143 13.3073 25.6046C13.228 25.5238 13.1578 25.4519 13.0684 25.3603C13.0461 25.3798 13.0131 25.4089 12.9149 25.4948C12.715 25.4876 12.4263 25.4233 12.1636 25.4802C11.7896 25.5613 11.4754 25.3009 11.0938 25.3903C10.7591 25.4688 10.3976 25.4417 10.0362 25.3848C9.54332 25.3073 9.0322 25.347 8.49253 25.3358L8.67974 25.6203C8.74446 25.611 8.83763 25.5977 8.96486 25.5797C8.96717 25.6885 8.96907 25.7837 8.97173 25.8976C9.13551 25.9787 9.30155 26.0824 9.48206 26.1438C9.63316 26.1953 9.7644 26.3745 9.95594 26.2476C10.0335 26.4782 10.2488 26.4881 10.4374 26.5292C10.4254 26.5867 10.4171 26.6271 10.4105 26.6586C11.101 26.8111 11.7036 27.15 12.2862 27.5354C12.5096 27.5759 12.7329 27.6165 12.954 27.6569L13.0672 27.8289C13.3816 27.9502 13.6552 28.0556 13.9665 28.1754C13.9005 28.3046 13.8538 28.3965 13.7935 28.5149C13.9759 28.6078 14.1475 28.6949 14.3064 28.7757C14.4195 28.6539 14.5173 28.549 14.6139 28.4448C15.0233 28.6183 15.399 28.7776 15.8794 28.9813C15.6482 29.0677 15.5265 28.9984 15.3876 28.9848C15.3965 29.2723 15.6486 29.1724 15.7838 29.2437C15.7805 29.3186 15.7766 29.3931 15.7689 29.5528C15.8824 29.5141 15.9887 29.478 16.0949 29.4419C16.0866 29.4852 16.0783 29.5285 16.0702 29.5718C16.111 29.4891 16.1517 29.4064 16.1968 29.3154C16.3559 29.4081 16.4872 29.4847 16.6166 29.5604C16.6058 29.6389 16.5977 29.6985 16.5887 29.7627C16.6424 29.7761 16.6994 29.7907 16.7732 29.8092C16.897 29.6899 17.0288 29.5634 17.1487 29.4477C17.6687 29.7033 18.1633 29.9468 18.6581 30.1901C18.6531 30.2135 18.6484 30.2371 18.6435 30.2602C18.5843 30.2577 18.5253 30.2554 18.379 30.2494C18.5995 30.4797 18.7814 30.6696 18.9928 30.8903C18.8325 31.08 18.6843 31.2552 18.4689 31.5095C18.4678 31.5208 18.4575 31.6434 18.4443 31.799C17.7629 31.5 17.0692 31.3685 16.3969 31.1915C15.4665 30.9464 14.6074 30.5333 13.7029 30.2325C12.7613 29.9193 11.8607 29.4809 10.941 29.1001C10.4175 28.8831 9.88678 28.6822 9.36749 28.455C8.6386 28.1359 7.90315 27.8272 7.20025 27.4577C6.89059 27.2948 6.53969 27.2537 6.24653 27.0243C5.99488 26.8274 5.64098 26.7601 5.33094 26.639C4.53928 26.3293 3.75762 25.9967 2.9315 25.7767C2.39347 25.6338 1.87389 25.4199 1.26887 25.2112L0.861245 24.5916C1.00838 24.488 1.13186 24.3231 1.40503 24.38C1.33051 24.2336 1.26074 24.0969 1.19484 23.9677C1.45661 23.44 1.88614 23.0961 2.4633 22.8113C2.53013 22.8371 2.66384 22.8887 2.90894 22.9828C2.93712 23.0024 3.07715 23.0997 3.2452 23.2168C3.36929 23.0512 3.4625 22.9269 3.5503 22.8097C3.82715 22.8249 4.10576 22.8212 4.37791 22.8608C4.60986 22.8943 4.87871 22.7052 5.05641 23.0536C5.08288 22.9268 5.09107 22.8863 5.10681 22.8108C5.35747 22.9904 5.69693 22.6807 5.918 23.0068C6.01607 22.9578 6.10405 22.9138 6.20817 22.8616C6.24621 22.8979 6.28799 22.9378 6.33424 22.982C7.10532 22.8108 7.88385 22.9337 8.6767 23.0019C8.71472 22.9769 8.76569 22.9155 8.81873 22.9133C9.03309 22.9048 9.30338 22.8346 9.45036 22.9358C9.68898 23.1005 10.0166 22.8677 10.1894 23.1793C10.3197 23.1039 10.4405 23.0339 10.5699 22.9589C10.629 23.0026 10.6903 23.0482 10.7653 23.1038C10.8281 23.067 10.8969 23.0267 11.0034 22.9648C11.2012 23.0111 11.4312 23.0647 11.7033 23.1283C11.623 23.2598 11.5756 23.3374 11.5097 23.4448C11.6974 23.4462 11.8666 23.4474 12.036 23.4485C12.0666 23.3823 12.0968 23.3164 12.1449 23.2109C12.2485 23.261 12.339 23.3293 12.4378 23.345C12.5242 23.3587 12.6202 23.3131 12.7104 23.294C12.7344 23.2349 12.7634 23.1632 12.8128 23.0416C12.9202 23.0943 13.012 23.1397 13.1666 23.2157C13.1786 23.2539 13.2184 23.3793 13.2635 23.5219L13.4737 23.3836C13.6843 23.4983 13.8305 23.5801 14.0904 23.4785C14.5323 23.3058 15.0314 23.3245 15.5074 23.2754C15.5804 23.2677 15.6634 23.3587 15.7407 23.4037C15.7599 23.3406 15.776 23.2883 15.7743 23.2936C16.0398 23.3272 16.2922 23.3235 16.5195 23.3975C16.7505 23.4725 16.957 23.6243 17.2289 23.7725C17.3727 23.7441 17.3306 23.6154 17.0883 23.3719C17.3532 23.4576 17.4422 23.4864 17.55 23.5214C17.5603 23.6079 17.5709 23.6969 17.591 23.8663C17.6978 23.7158 17.7696 23.6149 17.8505 23.5009C17.9011 23.5041 17.9596 23.5073 18.055 23.513C18.0683 23.4347 18.1286 23.3071 18.0909 23.2626C17.9065 23.0454 17.9025 22.7927 17.8815 22.5582C17.532 22.244 17.5226 21.7733 17.3303 21.3947C17.1181 20.9783 16.924 20.5439 16.7977 20.0961C16.6764 19.6672 16.5643 19.2254 16.3603 18.8433C16.1436 18.4377 16.0512 17.9973 15.8677 17.5854C15.6807 17.1656 15.552 16.7152 15.4412 16.2672C15.3348 15.8354 15.1282 15.4422 15.0271 15.0043C14.9242 14.5592 14.7833 14.1071 14.6062 13.6858C14.4306 13.2683 14.3854 12.827 14.2376 12.4085C14.0904 11.9916 13.9628 11.567 13.8481 11.1398C13.7289 10.6965 13.6392 10.2453 13.5297 9.79919C13.4245 9.37045 13.3105 8.94362 13.191 8.47986C13.2223 8.32818 13.2635 8.1277 13.3043 7.92993C13.3568 7.93766 13.4165 7.94606 13.4704 7.95403C13.7028 7.82398 13.5752 7.63452 13.5653 7.49277C13.7613 7.30497 13.9445 7.12905 14.1427 6.93898C14.1734 6.94415 14.2336 6.95412 14.2894 6.96349C14.4013 6.54266 14.7539 6.57502 15.0579 6.59501C15.3649 6.61545 15.6667 6.71126 15.9919 6.77831C16.3906 7.23199 17.0812 7.39916 17.3029 8.07015C17.39 8.03552 17.4437 8.01406 17.5337 7.97801C17.7858 8.25152 18.0523 8.54092 18.354 8.8685C18.3683 8.86425 18.4389 8.84313 18.4913 8.8275C18.7607 9.06293 19.0282 9.28515 19.2807 9.52322C19.38 9.61685 19.5082 9.74258 19.5143 9.85958C19.5301 10.157 19.6489 10.3355 19.9143 10.4676C20.0363 10.5283 20.1081 10.6887 20.2706 10.7532L20.0029 10.3463C20.0847 10.3347 20.139 10.3181 20.144 10.3279C20.298 10.6158 20.5661 10.7984 20.808 10.9887C21.0118 11.1489 21.2001 11.356 21.2144 11.5605C21.233 11.8257 21.4249 11.9388 21.5069 12.2504C21.5631 12.1033 21.5795 12.0606 21.596 12.0173C21.996 12.1949 22.1354 12.2871 22.1751 12.6072C22.2068 12.8633 22.387 12.9753 22.5492 13.127C22.4742 12.979 22.3992 12.831 22.2702 12.5765C22.5623 12.8652 22.7674 13.0679 23.0567 13.354C22.887 12.2906 22.9984 11.3364 23.0047 10.3819C23.011 9.40956 23.0907 8.90685 23.3463 8.14233C23.3926 8.00339 23.3498 7.83664 23.3862 7.69221C23.4497 7.44227 23.5641 7.20399 23.6172 6.95238C23.6658 6.72141 23.6263 6.4696 23.6875 6.24355C23.8497 5.64537 24.1107 5.07679 24.2339 4.46449C24.246 4.4045 24.3545 4.36363 24.4256 4.30839C24.4228 4.20509 24.384 4.07818 24.4224 3.98203C24.6101 3.51215 24.7883 3.03432 25.0293 2.59151C25.2208 2.23955 25.3835 1.87251 25.6068 1.52957C25.8273 1.19075 26.1321 0.959682 26.3819 0.670542C26.6403 0.37153 27.0392 0.233699 27.4724 0.169724C27.3976 0.743363 28.0242 0.825294 28.2452 1.20923C28.1443 1.02647 28.0433 0.843523 27.9423 0.660578C27.971 0.644166 28 0.627797 28.0287 0.611338L28.2546 0.954729C28.3229 1.05857 28.3896 1.16357 28.4598 1.26587C28.539 1.38036 28.5888 1.53155 28.7701 1.52375C28.6595 1.68866 28.9213 1.69549 28.8961 1.80499C28.8512 2.00163 29.145 1.88764 29.1215 2.07811C29.1087 2.18326 29.1645 2.30545 29.215 2.40717C29.2775 2.53279 29.3667 2.64505 29.4371 2.75215C29.3707 2.83925 29.3245 2.8999 29.2513 2.99577C29.3635 2.96713 29.4345 2.94907 29.5333 2.92361C29.5742 2.97545 29.6226 3.03655 29.7016 3.13667C29.6677 3.30182 29.6275 3.49753 29.5913 3.67341C29.6567 3.76204 29.704 3.82602 29.7472 3.88462C29.8382 3.86312 29.9124 3.84567 30.0149 3.82134C29.9548 3.92104 29.9089 3.99736 29.863 4.07387L29.9378 4.18763C30.025 4.17522 30.1184 4.1621 30.2212 4.14731C30.3205 4.5096 30.3646 4.8791 30.5869 5.19999C30.6874 5.34536 30.6785 5.56658 30.7235 5.77385C30.7199 5.77242 30.7547 5.78438 30.808 5.80279C30.91 6.10989 31.0158 6.42814 31.146 6.82029C30.9805 6.76808 30.87 6.7331 30.7672 6.70073C30.8529 6.88146 30.9377 6.98264 31.1149 7.10999C31.1137 7.12962 31.1146 7.14952 31.1113 7.16909C31.104 7.20982 31.0949 7.25017 31.0849 7.29765C31.1255 7.3042 31.166 7.30976 31.206 7.31746C31.2254 7.32135 31.2442 7.32916 31.2646 7.33584C31.31 7.50171 31.3556 7.66881 31.4155 7.88832L30.9594 8.18842C30.9633 8.21932 30.9675 8.25011 30.9718 8.28107C31.0651 8.28076 31.1584 8.28014 31.2912 8.27974C31.3151 8.23456 31.3573 8.15443 31.4379 8.00225C31.5364 8.28137 31.617 8.50908 31.695 8.73034C31.6414 8.78556 31.6009 8.82683 31.559 8.86997C31.9084 9.0149 31.8915 9.30156 31.8689 9.59661C31.8618 9.69069 31.8748 9.79085 31.9009 9.88172C31.9589 10.0856 32.0309 10.2854 32.1112 10.528C32.1063 10.5337 32.0691 10.5775 31.9925 10.6682C32.0624 10.7602 32.1461 10.8706 32.2794 11.0459C32.2847 11.0001 32.2626 11.0572 32.2747 11.1054C32.3722 11.4959 32.5159 11.8743 32.5811 12.2734C32.5874 12.311 32.6231 12.3426 32.6362 12.38C32.7214 12.6238 32.5141 12.8949 32.6968 13.1265C32.8581 13.3311 32.7756 13.5795 32.8377 13.8019C32.9046 14.0411 32.9491 14.2865 32.9992 14.53C33.0148 14.605 33.0024 14.6878 33.0289 14.7574C33.0573 14.833 33.1159 14.8971 33.1821 14.9978C33.15 15.0881 33.1091 15.2042 33.0786 15.29L33.3101 15.6419C33.2288 15.9933 33.1407 16.3475 33.392 16.6756C33.4144 16.7047 33.4376 16.7524 33.4293 16.7829C33.2887 17.2996 33.5954 17.7658 33.5892 18.2758C33.5832 18.7676 33.7407 19.2593 33.7771 19.7546C33.8255 20.4107 33.8267 21.07 33.8446 21.7282C33.8465 21.7886 33.8351 21.8571 33.8069 21.9095C33.5435 22.3995 33.2748 22.8867 33.0331 23.3289C32.7455 23.4473 32.509 23.5445 32.2051 23.6695C32.0991 23.6199 31.9251 23.5381 31.756 23.4588C31.6806 23.1105 31.5907 22.7766 31.5401 22.4367C31.4893 22.0951 31.4523 21.7472 31.4542 21.4025C31.4578 20.6478 31.2924 19.9117 31.2416 19.1645C31.2115 18.7223 31.0492 18.2883 31.1522 17.8376C30.9121 17.1217 30.8783 16.3709 30.7577 15.6345C30.7055 15.3162 30.7006 14.9863 30.5957 14.6721C30.4988 14.3826 30.4475 14.0781 30.3749 13.7805C30.1487 12.85 29.9267 11.9188 29.6935 10.9902C29.5722 10.5067 29.4399 10.0251 29.2961 9.54762C29.1511 9.06673 28.9531 8.59283 28.8325 8.11585C28.6211 7.27996 28.19 6.53819 27.9497 5.71804C27.8229 5.28495 27.5441 4.89271 27.3088 4.49693C27.0798 4.11115 26.819 3.74417 26.501 3.2608Z" fill="#004DB3"/>
</svg>
