<svg width="428" height="60" viewBox="0 0 428 60" fill="none" xmlns="http://www.w3.org/2000/svg">
<rect width="428" height="60" fill="#CCDBF0"/>
<g clip-path="url(#clip0_1476_941)">
<path d="M56.0917 34.288H49.2306C48.7755 34.288 48.354 34.0525 48.1349 33.6488C47.8989 33.1778 47.9831 32.6228 48.354 32.2695L53.1248 27.5094H49.7026C48.7586 27.5094 48 26.7357 48 25.8106H54.3217C54.7768 25.8106 55.1983 26.0461 55.4174 26.4498C55.6534 26.9207 55.5692 27.4758 55.1983 27.829L50.4275 32.5891H54.3891C55.3331 32.5891 56.0917 33.3629 56.0917 34.288ZM83.2665 25.676C82.2888 25.676 81.3953 26.0965 80.7884 26.7862C80.1816 26.1134 79.2881 25.676 78.3103 25.676C76.4897 25.676 74.9894 27.2235 74.9894 29.0401V34.288C75.9334 34.288 76.692 33.5311 76.692 32.5891V29.0232C76.692 28.1486 77.3663 27.4085 78.2429 27.3749C79.1701 27.3412 79.9287 28.0813 79.9287 28.9896V32.5891C79.9287 33.5311 80.6873 34.288 81.6313 34.288V29.0232C81.6313 28.1486 82.3056 27.4085 83.1823 27.3749C84.1094 27.3412 84.868 28.0813 84.868 28.9896V32.5891C84.868 33.5311 85.6266 34.288 86.5707 34.288V29.0401C86.5875 27.2235 85.0872 25.676 83.2665 25.676ZM64.6892 30.0493C64.6892 32.4546 62.7169 34.4225 60.3062 34.4225C57.8787 34.4225 55.9232 32.4546 55.9232 30.0493C55.9232 27.644 57.8955 25.676 60.3062 25.676C62.7169 25.676 64.6892 27.644 64.6892 30.0493ZM62.9866 30.0493C62.9866 28.5691 61.7897 27.3749 60.3062 27.3749C58.8227 27.3749 57.6258 28.5691 57.6258 30.0493C57.6258 31.5295 58.8227 32.7237 60.3062 32.7237C61.7897 32.7237 62.9866 31.5295 62.9866 30.0493ZM74.1465 30.0493C74.1465 32.4546 72.1741 34.4225 69.7634 34.4225C67.3359 34.4225 65.3804 32.4546 65.3804 30.0493C65.3804 27.644 67.3528 25.676 69.7634 25.676C72.1741 25.676 74.1465 27.644 74.1465 30.0493ZM72.4438 30.0493C72.4438 28.5691 71.2469 27.3749 69.7634 27.3749C68.2799 27.3749 67.083 28.5691 67.083 30.0493C67.083 31.5295 68.2799 32.7237 69.7634 32.7237C71.2469 32.7237 72.4438 31.5295 72.4438 30.0493Z" fill="white"/>
</g>
<path fill-rule="evenodd" clip-rule="evenodd" d="M147.11 30.318C147.11 27.5668 145.781 25.396 143.241 25.396C140.689 25.396 139.146 27.5668 139.146 30.2965C139.146 33.5312 140.968 35.1647 143.584 35.1647C144.859 35.1647 145.824 34.8746 146.553 34.4662V32.3169C145.824 32.6823 144.988 32.9079 143.927 32.9079C142.887 32.9079 141.965 32.5426 141.847 31.2744H147.089C147.089 31.1347 147.11 30.5759 147.11 30.318ZM141.815 29.297C141.815 28.0827 142.555 27.5776 143.23 27.5776C143.884 27.5776 144.58 28.0827 144.58 29.297H141.815Z" fill="white"/>
<path fill-rule="evenodd" clip-rule="evenodd" d="M135.009 25.396C133.958 25.396 133.283 25.8903 132.908 26.2342L132.768 25.5679H130.41V38.0986L133.09 37.529L133.101 34.4877C133.486 34.7671 134.055 35.1647 134.998 35.1647C136.916 35.1647 138.664 33.6172 138.664 30.2105C138.653 27.094 136.884 25.396 135.009 25.396ZM134.365 32.8005C133.733 32.8005 133.358 32.5748 133.101 32.2954L133.09 28.3084C133.369 27.9967 133.754 27.7818 134.365 27.7818C135.341 27.7818 136.016 28.8779 136.016 30.2857C136.016 31.7258 135.352 32.8005 134.365 32.8005Z" fill="white"/>
<path fill-rule="evenodd" clip-rule="evenodd" d="M126.723 24.7619L129.414 24.1816V22L126.723 22.5696V24.7619Z" fill="white"/>
<path d="M129.414 25.5786H126.723V34.982H129.414V25.5786Z" fill="white"/>
<path fill-rule="evenodd" clip-rule="evenodd" d="M123.84 26.3739L123.668 25.5786H121.353V34.982H124.033V28.6092C124.665 27.7817 125.737 27.9321 126.069 28.0504V25.5786C125.726 25.4497 124.472 25.2132 123.84 26.3739Z" fill="white"/>
<path fill-rule="evenodd" clip-rule="evenodd" d="M118.48 23.2466L115.865 23.8054L115.854 32.4135C115.854 34.004 117.044 35.1754 118.63 35.1754C119.509 35.1754 120.152 35.0142 120.506 34.8208V32.6392C120.163 32.7789 118.469 33.2733 118.469 31.6827V27.8677H120.506V25.5786H118.469L118.48 23.2466Z" fill="white"/>
<path fill-rule="evenodd" clip-rule="evenodd" d="M111.234 28.3084C111.234 27.8892 111.577 27.728 112.145 27.728C112.96 27.728 113.989 27.9752 114.804 28.4158V25.8903C113.914 25.5357 113.035 25.396 112.145 25.396C109.969 25.396 108.522 26.5351 108.522 28.4373C108.522 31.4034 112.596 30.9305 112.596 32.2094C112.596 32.7038 112.167 32.865 111.567 32.865C110.677 32.865 109.541 32.4996 108.64 32.0052V34.5629C109.637 34.9928 110.645 35.1755 111.567 35.1755C113.796 35.1755 115.329 34.0686 115.329 32.1449C115.318 28.9424 111.234 29.512 111.234 28.3084Z" fill="white"/>
<g clip-path="url(#clip1_1476_941)">
<path d="M170.275 33.1873C170.057 33.1878 169.842 33.1302 169.652 33.0204C169.463 32.9106 169.307 32.7526 169.198 32.5625C169.092 32.3737 169.039 32.1595 169.045 31.9428C169.051 31.7262 169.116 31.5152 169.232 31.3326L171.45 27.8505C171.563 27.6633 171.724 27.5096 171.917 27.4051C172.109 27.3007 172.326 27.2491 172.544 27.2557C172.763 27.2609 172.976 27.3242 173.162 27.4389C173.348 27.5536 173.501 27.7158 173.604 27.9087C173.81 28.2996 173.785 28.7698 173.537 29.1367L171.321 32.6189C171.209 32.794 171.054 32.9379 170.871 33.0373C170.688 33.1366 170.483 33.1882 170.275 33.1873Z" fill="white"/>
<path d="M174.079 33.1872C173.631 33.1872 173.22 32.948 173.004 32.5637C172.898 32.3755 172.845 32.1618 172.851 31.9457C172.857 31.7296 172.921 31.5192 173.038 31.3371L175.251 27.863C175.363 27.6732 175.523 27.5168 175.716 27.41C175.908 27.3032 176.126 27.2499 176.346 27.2555C176.797 27.2654 177.206 27.5177 177.413 27.9123C177.618 28.3069 177.588 28.78 177.333 29.146L175.12 32.6201C175.008 32.7945 174.854 32.9378 174.672 33.0369C174.49 33.136 174.286 33.1877 174.079 33.1872Z" fill="white"/>
<path d="M177.797 33.2162C178.427 33.2162 178.938 32.7159 178.938 32.0986C178.938 31.4813 178.427 30.981 177.797 30.981C177.166 30.981 176.655 31.4813 176.655 32.0986C176.655 32.7159 177.166 33.2162 177.797 33.2162Z" fill="white"/>
<path d="M227.39 31.0458C227.735 31.0458 227.941 31.2911 227.941 31.6927V33.0692H228.41V31.6613C228.41 30.9782 228.088 30.5822 227.483 30.5822C227.246 30.5822 226.87 30.647 226.646 31.0825C226.594 30.954 226.508 30.8421 226.398 30.7585C226.287 30.675 226.156 30.623 226.018 30.608C225.931 30.5921 225.843 30.5869 225.755 30.5925C225.562 30.608 225.219 30.7278 225.091 30.9993V30.6343H224.622V33.0692H225.091V31.7552C225.091 31.2441 225.426 31.0458 225.761 31.0458C226.074 31.0458 226.281 31.2859 226.281 31.6876V33.0692H226.747V31.7552C226.747 31.3484 226.991 31.0411 227.39 31.0458ZM222.901 32.6624C223.116 32.6671 223.322 32.5816 223.472 32.4266C223.623 32.2715 223.702 32.0606 223.695 31.844C223.695 31.3536 223.334 31.0458 222.901 31.0458C222.469 31.0458 222.109 31.3536 222.109 31.844C222.1 32.0601 222.18 32.2706 222.329 32.4252C222.479 32.5802 222.684 32.6662 222.898 32.6624H222.901ZM222.901 33.119C222.217 33.119 221.645 32.6131 221.645 31.8412C221.645 31.0693 222.217 30.5793 222.901 30.5793C223.586 30.5793 224.163 31.0693 224.163 31.8412C224.163 32.6131 223.583 33.1214 222.898 33.1214L222.901 33.119ZM219.232 31.8412L219.228 31.844C219.228 31.0721 219.815 30.5822 220.504 30.5793C220.677 30.576 220.849 30.609 221.009 30.6764C221.169 30.7437 221.313 30.8438 221.431 30.9702L221.076 31.2727C221 31.1987 220.911 31.1403 220.813 31.1009C220.715 31.0616 220.61 31.0421 220.504 31.0435C220.072 31.0435 219.696 31.3512 219.696 31.8412C219.696 32.1724 219.893 32.4707 220.195 32.5976C220.497 32.7244 220.845 32.6539 221.076 32.42L221.436 32.7225C221.317 32.8502 221.173 32.9515 221.012 33.0198C220.852 33.0881 220.679 33.1219 220.504 33.119C219.82 33.119 219.232 32.6131 219.232 31.8412ZM217.732 32.6018C217.732 32.5592 217.74 32.517 217.756 32.4775C217.772 32.4379 217.795 32.4019 217.825 32.3715C217.854 32.341 217.89 32.3167 217.929 32.3C217.968 32.2832 218.01 32.2744 218.053 32.2739C218.095 32.2744 218.137 32.2832 218.177 32.3C218.216 32.3167 218.251 32.341 218.281 32.3715C218.311 32.4019 218.334 32.4379 218.35 32.4775C218.366 32.517 218.374 32.5592 218.373 32.6018C218.369 32.6842 218.334 32.762 218.274 32.8192C218.214 32.8763 218.135 32.9087 218.053 32.9095C217.97 32.9087 217.891 32.8763 217.832 32.8192C217.772 32.762 217.737 32.6842 217.732 32.6018Z" fill="white"/>
<path fill-rule="evenodd" clip-rule="evenodd" d="M219.014 27.5388H217.346L216.177 30.5535L215.014 27.5388H213.345L215.374 32.3025L214.112 35.452H215.768L219.014 27.5388ZM208.869 30.1884C208.869 30.9495 209.534 31.4503 210.188 31.4503C210.83 31.4503 211.461 30.9843 211.461 30.188C211.461 29.3917 210.83 28.9251 210.188 28.9251C209.534 28.9251 208.869 29.4269 208.869 30.1884ZM211.461 32.8484V32.2457C211.122 32.7577 210.333 32.9513 209.928 32.9513C208.587 32.9513 207.246 31.8942 207.246 30.188C207.246 28.4821 208.587 27.4251 209.928 27.4251C210.266 27.4251 211.055 27.5378 211.461 28.1298V27.5407H213.016V32.8493L211.461 32.8484ZM206.804 32.8484H205.249V32.1888C204.989 32.6774 204.359 32.9621 203.705 32.9621C202.352 32.9621 201.158 31.882 201.158 30.2096C201.158 28.5056 202.352 27.4242 203.705 27.4242C204.358 27.4242 204.99 27.6966 205.249 28.1857V24.6467H206.804V32.8484ZM205.215 30.1762C205.215 29.3804 204.64 28.9139 203.998 28.9139C203.333 28.9139 202.78 29.4142 202.78 30.1762C202.78 30.9626 203.333 31.4606 203.998 31.4606C204.652 31.4616 205.215 30.9382 205.215 30.1762ZM197.313 30.039C197.313 29.2319 197.73 28.959 198.282 28.959C198.812 28.959 199.195 29.3113 199.195 30.016V32.8475H200.761V29.6754C200.761 28.1636 200.017 27.4242 198.834 27.4242C198.214 27.4242 197.594 27.7765 197.313 28.3111V27.5388H195.747V32.8475H197.313V30.039ZM192.567 32.9386C191.079 32.9386 189.839 31.8473 189.839 30.1757C189.839 28.5033 191.078 27.4227 192.567 27.4227C194.056 27.4227 195.306 28.5033 195.306 30.1757C195.306 31.8482 194.054 32.9386 192.567 32.9386ZM192.567 31.393C193.22 31.393 193.761 30.9147 193.761 30.1762C193.761 29.4598 193.22 28.9707 192.567 28.9707C192.409 28.9683 192.253 28.9978 192.108 29.0577C191.962 29.1175 191.83 29.2064 191.72 29.3188C191.61 29.4319 191.523 29.566 191.465 29.7133C191.407 29.8606 191.379 30.018 191.383 30.1762C191.384 30.9157 191.925 31.393 192.567 31.393ZM187.031 28.9594C187.493 28.9594 187.899 29.3235 187.899 30.0165V32.8484H189.454V29.8333C189.454 28.2303 188.674 27.4232 187.425 27.4232C187.054 27.4232 186.355 27.536 185.847 28.3666C185.554 27.7525 184.991 27.434 184.159 27.434C183.87 27.4325 183.586 27.5143 183.342 27.6696C183.099 27.8249 182.905 28.0471 182.784 28.3097V27.5393H181.217V32.8479H182.783V30.039C182.783 29.2319 183.222 28.959 183.695 28.959C184.146 28.959 184.551 29.3113 184.563 29.9822V32.8479H186.129V30.039C186.129 29.2672 186.535 28.9594 187.031 28.9594Z" fill="white"/>
</g>
<path d="M265.494 33.5035L266.085 32.1258C266.724 32.6041 267.573 32.8529 268.413 32.8529C269.033 32.8529 269.424 32.6137 269.424 32.2501C269.414 31.236 265.713 32.0301 265.684 29.4851C265.675 28.1935 266.82 27.1985 268.441 27.1985C269.405 27.1985 270.368 27.4377 271.055 27.983L270.502 29.3895C269.872 28.9876 269.09 28.7006 268.346 28.7006C267.84 28.7006 267.507 28.9398 267.507 29.2459C267.516 30.241 271.246 29.6956 271.284 32.1258C271.284 33.4461 270.168 34.3741 268.565 34.3741C267.392 34.3741 266.314 34.0967 265.494 33.5035Z" fill="white"/>
<path d="M288.189 31.6283C287.893 32.1449 287.34 32.4989 286.7 32.4989C285.756 32.4989 284.993 31.7335 284.993 30.7863C284.993 29.8391 285.756 29.0737 286.7 29.0737C287.34 29.0737 287.893 29.4277 288.189 29.9444L289.82 29.0355C289.209 27.9448 288.036 27.1985 286.7 27.1985C284.726 27.1985 283.123 28.8058 283.123 30.7863C283.123 32.7668 284.726 34.3741 286.7 34.3741C288.046 34.3741 289.209 33.6374 289.82 32.5372L288.189 31.6283Z" fill="white"/>
<path d="M274.146 24.2229H272.104V34.2401H274.146V24.2229Z" fill="white"/>
<path d="M290.621 24.2229V34.2401H292.663V31.2359L295.086 34.2401H297.7L294.618 30.6714L297.471 27.3419H294.971L292.663 30.1069V24.2229H290.621Z" fill="white"/>
<path d="M280.213 31.6474C279.918 32.1353 279.307 32.4989 278.62 32.4989C277.676 32.4989 276.913 31.7335 276.913 30.7863C276.913 29.8391 277.676 29.0737 278.62 29.0737C279.307 29.0737 279.918 29.4564 280.213 29.9539V31.6474ZM280.213 27.342V28.1552C279.879 27.5908 279.05 27.1985 278.181 27.1985C276.388 27.1985 274.976 28.7867 274.976 30.7767C274.976 32.7668 276.388 34.3741 278.181 34.3741C279.05 34.3741 279.879 33.9819 280.213 33.4174V34.2306H282.255V27.342H280.213Z" fill="white"/>
<path d="M252.873 31.6377C252.873 32.3361 252.31 32.9006 251.614 32.9006C250.917 32.9006 250.354 32.3361 250.354 31.6377C250.354 30.9392 250.917 30.3748 251.614 30.3748H252.873V31.6377Z" fill="white"/>
<path d="M253.502 31.6377C253.502 30.9392 254.065 30.3748 254.762 30.3748C255.458 30.3748 256.021 30.9392 256.021 31.6377V34.795C256.021 35.4934 255.458 36.0579 254.762 36.0579C254.065 36.0579 253.502 35.4934 253.502 34.795V31.6377Z" fill="white"/>
<path d="M254.762 26.5668C254.065 26.5668 253.502 26.0024 253.502 25.3039C253.502 24.6055 254.065 24.041 254.762 24.041C255.458 24.041 256.021 24.6055 256.021 25.3039V26.5668H254.762Z" fill="white"/>
<path d="M254.762 27.2078C255.458 27.2078 256.021 27.7722 256.021 28.4707C256.021 29.1691 255.458 29.7336 254.762 29.7336H251.604C250.908 29.7336 250.345 29.1691 250.345 28.4707C250.345 27.7722 250.908 27.2078 251.604 27.2078H254.762Z" fill="white"/>
<path d="M259.808 28.4707C259.808 27.7722 260.371 27.2078 261.067 27.2078C261.764 27.2078 262.327 27.7722 262.327 28.4707C262.327 29.1691 261.764 29.7336 261.067 29.7336H259.808V28.4707Z" fill="white"/>
<path d="M259.179 28.4708C259.179 29.1692 258.616 29.7337 257.919 29.7337C257.223 29.7337 256.66 29.1692 256.66 28.4708V25.3039C256.66 24.6055 257.223 24.041 257.919 24.041C258.616 24.041 259.179 24.6055 259.179 25.3039V28.4708Z" fill="white"/>
<path d="M257.919 33.532C258.616 33.532 259.179 34.0965 259.179 34.7949C259.179 35.4933 258.616 36.0578 257.919 36.0578C257.223 36.0578 256.66 35.4933 256.66 34.7949V33.532H257.919Z" fill="white"/>
<path d="M257.919 32.9006C257.223 32.9006 256.66 32.3361 256.66 31.6377C256.66 30.9392 257.223 30.3748 257.919 30.3748H261.077C261.773 30.3748 262.336 30.9392 262.336 31.6377C262.336 32.3361 261.773 32.9006 261.077 32.9006H257.919Z" fill="white"/>
<g clip-path="url(#clip2_1476_941)">
<path d="M326.521 26.4056L323.078 28.5995L326.521 30.7934L323.078 32.9873L319.635 30.7816L323.078 28.5876L319.635 26.4056L323.078 24.2117L326.521 26.4056ZM323.06 33.693L326.503 31.499L329.947 33.693L326.503 35.8869L323.06 33.693ZM326.521 30.7816L329.964 28.5876L326.521 26.4056L329.947 24.2117L333.39 26.4056L329.947 28.5995L333.39 30.7934L329.947 32.9873L326.521 30.7816Z" fill="white"/>
<path d="M336.091 26.4056H338.875C340.65 26.4056 342.116 27.4314 342.116 29.7735V30.2657C342.116 32.6256 340.745 33.687 338.928 33.687H336.091V26.4056ZM337.646 27.7278V32.3588H338.839C339.849 32.3588 340.525 31.7006 340.525 30.236V29.8506C340.525 28.386 339.813 27.7278 338.786 27.7278H337.646ZM342.942 27.799H344.188L344.39 29.1687C344.628 28.2378 345.233 27.7397 346.331 27.7397H346.717V29.311H346.076C344.812 29.311 344.503 29.7498 344.503 30.995V33.7048H342.965V27.799H342.942ZM347.026 30.8705V30.7044C347.026 28.7299 348.29 27.6508 350.012 27.6508C351.769 27.6508 352.998 28.7299 352.998 30.7044V30.8705C352.998 32.8094 351.805 33.853 350.012 33.853C348.106 33.8352 347.026 32.8154 347.026 30.8705ZM351.425 30.8527V30.7044C351.425 29.6075 350.873 28.9493 349.994 28.9493C349.133 28.9493 348.563 29.5541 348.563 30.7044V30.8527C348.563 31.9141 349.116 32.5189 349.994 32.5189C350.873 32.5011 351.425 31.9141 351.425 30.8527ZM353.805 27.799H355.088L355.236 28.9137C355.545 28.1666 356.204 27.6508 357.177 27.6508C358.679 27.6508 359.671 28.7299 359.671 30.7282V30.8942C359.671 32.8331 358.573 33.8589 357.177 33.8589C356.245 33.8589 355.604 33.4379 355.29 32.762V35.7445H353.788L353.805 27.799ZM358.109 30.8527V30.7222C358.109 29.5482 357.504 28.9671 356.697 28.9671C355.836 28.9671 355.266 29.6253 355.266 30.7222V30.8349C355.266 31.8785 355.818 32.5367 356.679 32.5367C357.563 32.5189 358.109 31.9556 358.109 30.8527ZM361.944 32.6137L361.814 33.6929H360.496V25.8245H361.998V28.8426C362.33 28.0717 362.989 27.6508 363.921 27.6508C365.334 27.6685 366.379 28.641 366.379 30.5977V30.7815C366.379 32.7383 365.388 33.8589 363.886 33.8589C362.894 33.8352 362.253 33.3787 361.944 32.6137ZM364.8 30.7815V30.6333C364.8 29.5541 364.212 28.9493 363.387 28.9493C362.544 28.9493 361.956 29.6253 361.956 30.6511V30.7815C361.956 31.8785 362.526 32.5189 363.369 32.5189C364.272 32.5189 364.8 31.9556 364.8 30.7815ZM367.038 30.8705V30.7044C367.038 28.7299 368.302 27.6508 370.024 27.6508C371.781 27.6508 373.01 28.7299 373.01 30.7044V30.8705C373.01 32.8094 371.799 33.853 370.024 33.853C368.118 33.8352 367.038 32.8154 367.038 30.8705ZM371.449 30.8527V30.7044C371.449 29.6075 370.897 28.9493 370.018 28.9493C369.157 28.9493 368.587 29.5541 368.587 30.7044V30.8527C368.587 31.9141 369.14 32.5189 370.018 32.5189C370.903 32.5011 371.449 31.9141 371.449 30.8527ZM375.023 30.6333L372.951 27.799H374.726L375.919 29.5719L377.13 27.799H378.887L376.786 30.6155L379 33.6929H377.261L375.907 31.7362L374.589 33.6929H372.773L375.023 30.6333Z" fill="white"/>
</g>
<defs>
<clipPath id="clip0_1476_941">
<rect width="38.5875" height="8.74651" fill="white" transform="translate(48 25.676)"/>
</clipPath>
<clipPath id="clip1_1476_941">
<rect width="59.3654" height="10.8053" fill="white" transform="translate(169.044 24.6467)"/>
</clipPath>
<clipPath id="clip2_1476_941">
<rect width="59.3654" height="11.6752" fill="white" transform="translate(319.635 24.2117)"/>
</clipPath>
</defs>
</svg>
