<svg width="379" height="320" viewBox="0 0 379 320" fill="none" xmlns="http://www.w3.org/2000/svg">
<path d="M354.134 237.247L235.636 305.666C233.755 306.755 231.43 306.755 229.545 305.666L7.69472 177.581C3.63353 175.235 -1.4323 169.59 4.77442 162.596L114.827 98.3024C122.085 93.9305 132.685 91.2146 141.092 92.2873C144.817 92.7641 149.474 93.6793 151.59 94.8968L359.52 214.655C368.268 219.704 362.887 232.198 354.134 237.247Z" fill="#3D72E8"/>
<mask id="mask0_435_91272" style="mask-type:luminance" maskUnits="userSpaceOnUse" x="0" y="169" width="379" height="151">
<path d="M243.176 319.186C236.109 319.186 229.051 317.624 223.67 314.499L8.84867 190.586C3.50612 187.483 0.832726 183.417 0.819955 179.348L0.794388 173.431L0.777344 169.591C0.781601 170.753 1.00299 171.915 1.44146 173.056C1.78202 173.946 2.25454 174.818 2.86329 175.67C2.86329 175.67 2.86329 175.67 2.86755 175.674C2.87606 175.687 2.8846 175.699 2.89312 175.712C2.89737 175.717 2.90159 175.725 2.90585 175.729C2.91011 175.738 2.91864 175.746 2.92289 175.755C2.93141 175.763 2.93568 175.772 2.93994 175.78C2.9442 175.785 2.95267 175.793 2.95693 175.802C2.96544 175.81 2.97398 175.823 2.97824 175.831C2.98249 175.836 2.9825 175.84 2.98676 175.84C4.32346 177.653 6.26037 179.352 8.80606 180.829L223.628 304.742C229.004 307.867 236.067 309.429 243.129 309.429H243.133C250.208 309.429 257.292 307.863 262.707 304.738L298.738 283.925L370.801 242.305C376.19 239.193 378.915 235.115 378.957 231.032L379 240.661C379.004 242.701 378.344 244.74 377.012 246.664C375.654 248.626 373.598 250.47 370.843 252.058L262.75 314.495C257.335 317.62 250.251 319.186 243.176 319.186Z" fill="white"/>
</mask>
<g mask="url(#mask0_435_91272)">
<path d="M243.176 319.186C236.109 319.186 229.051 317.624 223.67 314.499L8.84867 190.586C3.50612 187.483 0.832726 183.417 0.819955 179.348L0.794388 173.431L0.777344 169.591C0.781601 170.753 1.00299 171.915 1.44146 173.056C1.78202 173.946 2.25454 174.818 2.86329 175.67C2.86329 175.67 2.86329 175.67 2.86755 175.674C2.87606 175.687 2.8846 175.699 2.89312 175.712C2.89737 175.717 2.90159 175.725 2.90585 175.729C2.91011 175.738 2.91864 175.746 2.92289 175.755C2.93141 175.763 2.93568 175.772 2.93994 175.78C2.9442 175.785 2.95267 175.793 2.95693 175.802C2.96544 175.81 2.97398 175.823 2.97824 175.831C2.98249 175.836 2.9825 175.84 2.98676 175.84C4.32346 177.653 6.26037 179.352 8.80606 180.829L223.628 304.742C229.004 307.867 236.067 309.429 243.129 309.429H243.133C250.208 309.429 257.292 307.863 262.707 304.738L298.738 283.925L370.801 242.305C376.19 239.193 378.915 235.115 378.957 231.032L379 240.661C379.004 242.701 378.344 244.74 377.012 246.664C375.654 248.626 373.598 250.47 370.843 252.058L262.75 314.495C257.335 317.62 250.251 319.186 243.176 319.186Z" fill="url(#paint0_linear_435_91272)"/>
</g>
<path d="M220.269 298.863L7.10765 175.84C2.00775 172.894 2.00349 165.534 7.10339 162.588L31.7941 148.327L51.5423 146.02L96.5177 120.043L104.112 106.557L119.352 97.7537C130.22 91.4788 143.613 91.4788 154.481 97.7494L360.214 216.49C361.968 217.499 361.968 220.028 360.218 221.037L225.471 298.863C223.862 299.791 221.878 299.791 220.269 298.863ZM370.925 219.67L156.099 95.7528C145.35 89.5077 127.845 89.512 117.024 95.7613L8.92967 158.195C-1.89165 164.444 -1.94701 174.584 8.8062 180.829L223.628 304.742C234.394 310.996 251.886 310.987 262.703 304.738L370.801 242.305C381.618 236.055 381.691 225.924 370.925 219.67Z" fill="#282A35"/>
<path d="M321.156 259.319L316.179 256.45C313.698 255.015 309.534 255.173 306.708 256.803L288.935 267.071C287.99 267.616 287.262 268.297 286.836 269.038C285.874 270.707 286.47 272.546 288.322 273.614L293.302 276.488C295.784 277.922 299.943 277.765 302.774 276.134L320.543 265.866C321.488 265.322 322.216 264.64 322.642 263.904C323.608 262.231 323.008 260.392 321.156 259.319Z" fill="#1E1F27"/>
<path d="M294.741 277.093C294.221 276.944 293.732 276.739 293.298 276.488L288.321 273.615L293.302 276.488C293.732 276.739 294.221 276.944 294.741 277.093Z" fill="#282A35"/>
<path d="M297.482 277.467C296.52 277.467 295.584 277.343 294.741 277.092C294.222 276.943 293.732 276.739 293.302 276.488L288.321 273.614C287.432 273.103 286.853 272.405 286.576 271.643L286.836 270.881C287.261 270.14 287.989 269.464 288.934 268.914L306.707 258.651C308.24 257.765 310.16 257.314 311.999 257.314C313.548 257.314 315.043 257.638 316.179 258.293L321.156 261.167C322.045 261.682 322.624 262.376 322.901 263.142L322.641 263.904C322.216 264.64 321.488 265.322 320.543 265.866L302.774 276.134C301.241 277.02 299.317 277.467 297.482 277.467Z" fill="#272934"/>
<path d="M79.4043 121.814L57.4509 134.491C56.3824 135.109 56.2632 136.045 57.1912 136.582C58.1193 137.114 59.7412 137.05 60.8097 136.433L82.7631 123.751C83.8359 123.134 83.9508 122.197 83.0228 121.661C82.0948 121.129 80.4771 121.197 79.4043 121.814Z" fill="#191414"/>
<mask id="mask1_435_91272" style="mask-type:luminance" maskUnits="userSpaceOnUse" x="51" y="209" width="24" height="19">
<path d="M74.5638 223.054C74.3765 222.509 74.0955 221.973 73.7507 221.501C73.359 220.964 72.8865 220.513 72.3757 220.219L54.5217 209.913C53.8534 209.53 53.2489 209.491 52.8147 209.743L51.0438 210.76C51.4823 210.509 52.0868 210.543 52.7551 210.93L70.609 221.232C71.1198 221.526 71.5924 221.977 71.984 222.514C72.3288 222.986 72.6098 223.523 72.7971 224.072C72.9504 224.527 73.0397 225 73.0397 225.443V226.213C73.0397 226.992 72.763 227.541 72.3161 227.797L74.0827 226.783C74.5297 226.528 74.8064 225.979 74.8064 225.2V224.425C74.8064 223.982 74.717 223.518 74.5638 223.054Z" fill="white"/>
</mask>
<g mask="url(#mask1_435_91272)">
<path d="M74.5638 223.054C74.3765 222.509 74.0955 221.973 73.7507 221.501C73.359 220.964 72.8865 220.513 72.3757 220.219L54.5217 209.913C53.8534 209.53 53.2489 209.491 52.8147 209.743L51.0438 210.76C51.4823 210.509 52.0868 210.543 52.7551 210.93L70.609 221.232C71.1198 221.526 71.5924 221.977 71.984 222.514C72.3288 222.986 72.6098 223.523 72.7971 224.072C72.9504 224.527 73.0397 225 73.0397 225.443V226.213C73.0397 226.992 72.763 227.541 72.3161 227.797L74.0827 226.783C74.5297 226.528 74.8064 225.979 74.8064 225.2V224.425C74.8064 223.982 74.717 223.518 74.5638 223.054Z" fill="url(#paint1_linear_435_91272)"/>
</g>
<path d="M70.6094 221.232L52.7555 210.93C51.4061 210.155 50.329 210.785 50.329 212.348V213.122C50.329 214.668 51.4103 216.553 52.7597 217.328L70.6137 227.634C71.9461 228.401 73.0401 227.758 73.0401 226.213V225.442C73.0401 223.876 71.9461 221.998 70.6094 221.232Z" fill="#B3B4B5"/>
<path d="M215.496 284.794L49.4092 188.905L50.0819 189.292L73.9381 175.521L215.496 257.251L314.259 200.233L338.111 214.004L215.496 284.794Z" fill="#6BB1FD"/>
<path d="M172.696 118.502L50.0817 189.292L36.9531 181.71L159.563 110.92L172.696 118.502Z" fill="#4888F9"/>
<path d="M314.259 200.233L290.403 186.461L299.292 181.327L323.152 195.099L314.259 200.233ZM60.8052 167.939L49.4092 161.362L50.0819 161.749L73.9381 147.978L84.6573 154.168L60.8052 167.939Z" fill="#6BB1FD"/>
<path d="M323.152 195.098L299.292 181.327L301.876 179.837L325.736 193.604L323.152 195.098Z" fill="#5B89ED"/>
<path d="M215.496 257.251L73.938 175.521L97.79 161.749L215.496 229.708L290.403 186.461L314.259 200.233L215.496 257.251Z" fill="#8ED4FF"/>
<path d="M73.9381 175.52L60.8052 167.938L84.6573 154.167L97.7902 161.748L73.9381 175.52Z" fill="#74BDFE"/>
<path d="M172.696 90.9548L50.0817 161.749L36.9531 154.167L159.563 83.3773L172.696 90.9548Z" fill="#4888F9"/>
<mask id="mask2_435_91272" style="mask-type:luminance" maskUnits="userSpaceOnUse" x="49" y="120" width="290" height="53">
<path d="M314.259 172.69L290.403 158.918L314.259 145.142L338.111 158.918L314.259 172.69ZM50.2691 134.313L49.4092 133.815L50.0819 134.206L73.9381 120.435L74.1212 120.537L50.2691 134.313Z" fill="white"/>
</mask>
<g mask="url(#mask2_435_91272)">
<path d="M314.259 172.69L290.403 158.918L314.259 145.142L338.111 158.918L314.259 172.69ZM50.2691 134.313L49.4092 133.815L50.0819 134.206L73.9381 120.435L74.1212 120.537L50.2691 134.313Z" fill="url(#paint2_linear_435_91272)"/>
</g>
<path d="M60.8051 140.396L50.269 134.312L74.121 120.537L77.8672 122.704L57.4506 134.491C56.382 135.108 56.2629 136.045 57.1909 136.581C57.6123 136.824 58.1743 136.943 58.7617 136.943C59.4727 136.943 60.2261 136.769 60.8093 136.432L81.226 124.641L84.6571 126.624L60.8051 140.396Z" fill="#5B89ED"/>
<path d="M58.7621 136.943C58.1746 136.943 57.6127 136.824 57.1912 136.582C56.2632 136.045 56.3824 135.109 57.4509 134.491L77.8676 122.704L81.2264 124.641L60.8097 136.433C60.2265 136.769 59.473 136.943 58.7621 136.943Z" fill="#507DEA"/>
<mask id="mask3_435_91272" style="mask-type:luminance" maskUnits="userSpaceOnUse" x="278" y="158" width="37" height="22">
<path d="M301.876 179.837L278.011 166.074L290.403 158.918L314.259 172.689L301.876 179.837Z" fill="white"/>
</mask>
<g mask="url(#mask3_435_91272)">
<path d="M301.876 179.837L278.011 166.074L290.403 158.918L314.259 172.689L301.876 179.837Z" fill="url(#paint3_linear_435_91272)"/>
</g>
<path d="M290.403 186.461L266.551 172.689L275.435 167.56L299.291 181.327L290.403 186.461ZM84.6571 154.167L73.938 147.977L97.79 134.206L108.509 140.396L84.6571 154.167Z" fill="#8ED4FF"/>
<path d="M299.292 181.327L275.436 167.56L278.011 166.074L301.876 179.837L299.292 181.327Z" fill="#82BEFD"/>
<path d="M215.496 229.708L97.7901 161.749L121.642 147.978L215.496 202.165L266.551 172.69L290.403 186.461L215.496 229.708Z" fill="#A9E7FF"/>
<path d="M97.7903 161.749L84.6574 154.167L108.509 140.396L121.642 147.977L97.7903 161.749Z" fill="#95DBFF"/>
<path d="M73.9381 147.978L60.8052 140.396L84.6573 126.624L97.7902 134.206L73.9381 147.978Z" fill="#74BDFE"/>
<path d="M172.696 63.4118L50.0817 134.206L36.9531 126.624L159.563 55.8301L172.696 63.4118Z" fill="#4888F9"/>
<mask id="mask4_435_91272" style="mask-type:luminance" maskUnits="userSpaceOnUse" x="49" y="92" width="290" height="54">
<path d="M314.259 145.142L290.552 131.46L314.404 117.684L338.111 131.375L314.259 145.142ZM60.8052 112.848L49.4092 106.271L50.0819 106.663L73.7891 92.9724L84.5126 99.1663L60.8052 112.848Z" fill="white"/>
</mask>
<g mask="url(#mask4_435_91272)">
<path d="M314.259 145.142L290.552 131.46L314.404 117.684L338.111 131.375L314.259 145.142ZM60.8052 112.848L49.4092 106.271L50.0819 106.663L73.7891 92.9724L84.5126 99.1663L60.8052 112.848Z" fill="url(#paint4_linear_435_91272)"/>
</g>
<mask id="mask5_435_91272" style="mask-type:luminance" maskUnits="userSpaceOnUse" x="73" y="106" width="242" height="53">
<path d="M290.403 158.918L266.7 145.232L290.552 131.46L314.259 145.142L290.403 158.918ZM74.121 120.537L73.938 120.434L97.641 106.744L97.8198 106.85L74.121 120.537Z" fill="white"/>
</mask>
<g mask="url(#mask5_435_91272)">
<path d="M290.403 158.918L266.7 145.232L290.552 131.46L314.259 145.142L290.403 158.918ZM74.121 120.537L73.938 120.434L97.641 106.744L97.8198 106.85L74.121 120.537Z" fill="url(#paint5_linear_435_91272)"/>
</g>
<path d="M96.7386 119.647L102.443 109.519L108.365 112.933L96.7386 119.647Z" fill="#8ED4FF"/>
<path d="M84.6572 126.625L81.2261 124.641L82.7629 123.751C83.8357 123.134 83.9506 122.197 83.0226 121.661C82.6054 121.418 82.0434 121.303 81.4517 121.303C80.7408 121.303 79.9916 121.474 79.4041 121.814L77.8673 122.704L74.1211 120.537L97.8199 106.851L102.443 109.52L96.7386 119.647L84.6572 126.625Z" fill="#82BEFD"/>
<path d="M81.2261 124.641L77.8673 122.704L79.4041 121.814C79.9916 121.474 80.7408 121.303 81.4517 121.303C82.0434 121.303 82.6054 121.418 83.0226 121.661C83.9506 122.197 83.8357 123.134 82.7629 123.751L81.2261 124.641Z" fill="#7AB7FD"/>
<mask id="mask6_435_91272" style="mask-type:luminance" maskUnits="userSpaceOnUse" x="254" y="145" width="37" height="22">
<path d="M278.011 166.074L254.291 152.392L266.7 145.232L290.403 158.918L278.011 166.074Z" fill="white"/>
</mask>
<g mask="url(#mask6_435_91272)">
<path d="M278.011 166.074L254.291 152.392L266.7 145.232L290.403 158.918L278.011 166.074Z" fill="url(#paint6_linear_435_91272)"/>
</g>
<path d="M266.551 172.69L242.843 159.003L251.724 153.874L275.435 167.56L266.551 172.69ZM108.509 140.396L97.7901 134.206L121.497 120.52L132.217 126.71L108.509 140.396Z" fill="#A9E7FF"/>
<path d="M275.435 167.56L251.724 153.874L254.291 152.392L278.011 166.074L275.435 167.56Z" fill="#A0DBFF"/>
<path d="M215.497 202.165L121.642 147.977L145.35 134.291L215.497 174.792L242.844 159.003L266.551 172.689L215.497 202.165Z" fill="#BEF2FF"/>
<path d="M121.642 147.978L108.51 140.396L132.217 126.71L145.35 134.291L121.642 147.978Z" fill="#AEEBFF"/>
<path d="M97.7903 134.206L84.6574 126.624L96.7388 119.647L108.365 112.934L121.498 120.52L97.7903 134.206Z" fill="#95DBFF"/>
<path d="M73.9381 120.435L60.8052 112.849L84.5126 99.1666L97.6412 106.744L73.9381 120.435Z" fill="#74BDFE"/>
<path d="M172.696 35.8696L50.0817 106.664L36.9531 99.0776L159.563 28.2879L172.696 35.8696Z" fill="#4888F9"/>
<mask id="mask7_435_91272" style="mask-type:luminance" maskUnits="userSpaceOnUse" x="49" y="8" width="290" height="110">
<path d="M314.404 117.685L172.697 35.8694L159.564 28.2876L60.6563 85.3911L49.4092 78.8992L50.0819 79.2865L172.697 8.49671L338.111 103.999L314.404 117.685Z" fill="white"/>
</mask>
<g mask="url(#mask7_435_91272)">
<path d="M314.404 117.685L172.697 35.8694L159.564 28.2876L60.6563 85.3911L49.4092 78.8992L50.0819 79.2865L172.697 8.49671L338.111 103.999L314.404 117.685Z" fill="url(#paint7_linear_435_91272)"/>
</g>
<mask id="mask8_435_91272" style="mask-type:luminance" maskUnits="userSpaceOnUse" x="73" y="35" width="242" height="97">
<path d="M290.552 131.461L172.696 63.4122L159.564 55.8305L84.5125 99.1668L73.7891 92.9729L172.696 35.8694L314.404 117.685L290.552 131.461Z" fill="white"/>
</mask>
<g mask="url(#mask8_435_91272)">
<path d="M290.552 131.461L172.696 63.4122L159.564 55.8305L84.5125 99.1668L73.7891 92.9729L172.696 35.8694L314.404 117.685L290.552 131.461Z" fill="url(#paint8_linear_435_91272)"/>
</g>
<mask id="mask9_435_91272" style="mask-type:luminance" maskUnits="userSpaceOnUse" x="97" y="63" width="194" height="83">
<path d="M266.7 145.232L172.697 90.9547L159.564 83.3772L144.945 91.8146C142.233 91.3208 139.415 91.0696 136.597 91.0696C129.518 91.0696 122.434 92.6362 117.023 95.7608L97.82 106.85L97.6412 106.744L172.697 63.4118L290.552 131.46L266.7 145.232Z" fill="white"/>
</mask>
<g mask="url(#mask9_435_91272)">
<path d="M266.7 145.232L172.697 90.9547L159.564 83.3772L144.945 91.8146C142.233 91.3208 139.415 91.0696 136.597 91.0696C129.518 91.0696 122.434 92.6362 117.023 95.7608L97.82 106.85L97.6412 106.744L172.697 63.4118L290.552 131.46L266.7 145.232Z" fill="url(#paint9_linear_435_91272)"/>
</g>
<path d="M108.365 112.934L102.444 109.52L104.112 106.557L119.352 97.7533C124.789 94.6159 130.855 93.0493 136.921 93.0493C138.666 93.0493 140.412 93.177 142.14 93.4366L108.365 112.934Z" fill="#6EAEFD"/>
<path d="M102.443 109.52L97.8197 106.85L117.023 95.761C122.434 92.6363 129.517 91.0697 136.597 91.0697C139.415 91.0697 142.233 91.3209 144.945 91.8147L142.139 93.4367C140.411 93.177 138.666 93.0493 136.92 93.0493C130.854 93.0493 124.788 94.6159 119.352 97.7533L104.112 106.557L102.443 109.52Z" fill="#69A5FC"/>
<mask id="mask10_435_91272" style="mask-type:luminance" maskUnits="userSpaceOnUse" x="160" y="90" width="107" height="63">
<path d="M254.291 152.392L160.245 98.1449L172.697 90.9549L266.7 145.232L254.291 152.392Z" fill="white"/>
</mask>
<g mask="url(#mask10_435_91272)">
<path d="M254.291 152.392L160.245 98.1449L172.697 90.9549L266.7 145.232L254.291 152.392Z" fill="url(#paint10_linear_435_91272)"/>
</g>
<path d="M242.843 159.003L172.696 118.502L159.563 110.92L132.216 126.709L121.497 120.519L157.703 99.6132L251.723 153.873L242.843 159.003Z" fill="#79B5FD"/>
<path d="M251.724 153.874L157.703 99.6139L160.245 98.1453L254.291 152.392L251.724 153.874Z" fill="#75B0FD"/>
<path d="M215.496 174.793L145.349 134.291L172.696 118.502L242.843 159.003L215.496 174.793Z" fill="#81BAFD"/>
<path d="M145.35 134.292L132.217 126.71L159.564 110.921L172.697 118.502L145.35 134.292Z" fill="#7BB7FD"/>
<path d="M121.497 120.52L108.365 112.934L142.14 93.4366L144.945 91.8146L159.564 83.3773L172.696 90.9548L160.245 98.1448L157.703 99.6135L121.497 120.52Z" fill="#71B0FD"/>
<path d="M97.641 106.744L84.5124 99.1664L159.563 55.8301L172.696 63.4118L97.641 106.744Z" fill="#64A4FD"/>
<path d="M73.7892 92.9728L60.6564 85.3911L159.564 28.2876L172.697 35.8693L73.7892 92.9728Z" fill="#528FFB"/>
<path d="M172.696 8.49684L50.0817 79.2867L36.9531 71.7049L159.563 0.915082L172.696 8.49684Z" fill="#4888F9"/>
<path d="M215.752 110.627L214.015 109.626L201.759 116.701L203.496 117.702L215.752 110.627ZM191.423 114.713L160.147 132.772L161.884 133.776L193.16 115.718L191.423 114.713ZM252.737 107.43L230.673 120.167L232.405 121.171L254.474 108.43L252.737 107.43ZM193.709 105.442L165.481 121.737L167.218 122.738L195.442 106.442L193.709 105.442ZM284.473 89.1032L274.618 94.7948L276.355 95.7952L286.21 90.1078L284.473 89.1032ZM229.145 108.847L207.081 121.584L208.817 122.589L230.881 109.848L229.145 108.847ZM272.885 95.7952L254.47 106.425L256.206 107.43L274.622 96.7957L272.885 95.7952ZM287.061 95.5653L264.852 108.388L266.589 109.392L288.798 96.5658L287.061 95.5653ZM253.269 117.08L251.532 116.08L239.276 123.155L241.013 124.155L253.269 117.08ZM263.12 109.388L253.265 115.08L255.002 116.08L264.857 110.393L263.12 109.388ZM266.662 115.297L244.598 128.038L246.33 129.043L268.398 116.301L266.662 115.297ZM215.22 100.976L193.156 113.713L194.893 114.718L216.957 101.976L215.22 100.976ZM140.011 55.3835L158.431 44.7495L156.695 43.749L138.274 54.383L140.011 55.3835ZM156.946 35.648L134.737 48.4701L136.469 49.4747L158.683 36.6483L156.946 35.648ZM150.671 75.9788L106.172 101.67L107.909 102.67L152.403 76.9793L150.671 75.9788ZM170.415 58.6273L180.266 52.94L178.533 51.9353L168.678 57.6269L170.415 58.6273ZM189.789 37.4826L169.546 49.1682L171.283 50.1729L191.521 38.4831L189.789 37.4826ZM124.886 56.1624L134.737 50.4751L133 49.4747L123.149 55.1621L124.886 56.1624ZM127.334 75.5446L149.398 62.8077L147.665 61.803L125.597 74.5443L127.334 75.5446ZM94.1038 94.731L125.601 76.5451L123.864 75.5404L92.3669 93.7263L94.1038 94.731ZM124.733 85.0037L122.996 83.9991L99.3016 97.6811L101.038 98.6815L124.733 85.0037ZM126.466 84.0033L154.69 67.7032L152.957 66.7028L124.729 82.9986L126.466 84.0033ZM82.9844 88.3114L114.482 70.1254L112.745 69.1209L81.2476 87.3068L82.9844 88.3114ZM181.998 51.9395L204.211 39.1131L202.474 38.1129L180.266 50.9349L181.998 51.9395ZM279.799 117.672L289.339 112.163L287.606 111.163L278.062 116.672L279.799 117.672ZM256.275 131.256L278.066 118.672L276.329 117.672L254.542 130.251L256.275 131.256ZM226.68 148.344L254.542 132.256L252.809 131.252L224.943 147.339L226.68 148.344ZM207.017 159.697L224.947 149.344L223.21 148.339L205.28 158.693L207.017 159.697ZM228.94 121.167L184.442 146.858L186.179 147.863L230.673 122.172L228.94 121.167ZM287.942 89.1075L296.299 84.28L294.566 83.2797L286.206 88.1028L287.942 89.1075ZM205.348 122.589L173.85 140.771L175.587 141.775L207.081 123.589L205.348 122.589ZM191.521 36.4824L193.258 37.487L205.08 30.6587L203.343 29.6541L191.521 36.4824ZM290.531 95.5653L297.155 91.7426L295.418 90.738L288.794 94.565L290.531 95.5653ZM290.279 103.666L303.178 96.2167L301.441 95.2162L288.543 102.662L290.279 103.666ZM270.131 115.301L288.547 104.667L286.81 103.666L268.394 114.296L270.131 115.301ZM160.164 43.749L180.402 32.0635L178.665 31.0632L158.427 42.7486L160.164 43.749ZM271.757 76.2896L251.277 88.1113L253.014 89.116L273.49 77.29L271.757 76.2896ZM179.155 22.8259L158.678 34.6476L160.415 35.6522L180.891 23.8263L179.155 22.8259ZM214.019 39.4026L207.936 42.9147L209.673 43.9151L215.756 40.4031L214.019 39.4026ZM170.087 20.1056L156.09 28.1897L157.827 29.19L171.824 21.106L170.087 20.1056ZM177.937 62.2415L196.353 51.6075L194.616 50.6029L176.2 61.2369L177.937 62.2415ZM122.617 47.5123L100.553 60.2492L102.29 61.2539L124.354 48.5169L122.617 47.5123ZM107.428 64.2381L74.2874 83.3733L76.0242 84.3736L109.161 65.2384L107.428 64.2381ZM154.357 29.19L144.502 34.8775L146.239 35.8821L156.094 30.1904L154.357 29.19ZM98.8205 61.2496L67.5485 79.3078L69.2811 80.3125L100.557 62.2542L98.8205 61.2496ZM142.77 35.8779L124.354 46.5118L126.087 47.5123L144.507 36.8782L142.77 35.8779ZM200.027 117.702L166.886 136.837L168.623 137.837L201.764 118.702L200.027 117.702ZM129.313 96.2636L113.345 105.48L115.082 106.485L131.05 97.2639L129.313 96.2636ZM143.102 102.223L171.33 85.9275L169.593 84.9228L141.369 101.219L143.102 102.223ZM125.401 112.444L141.369 103.224L139.637 102.219L123.669 111.44L125.401 112.444ZM173.063 84.9271L185.319 77.8477L183.582 76.8473L171.326 83.9225L173.063 84.9271ZM159.274 78.9673L131.046 95.2631L132.783 96.2636L161.011 79.9677L159.274 78.9673ZM139.066 120.465L156.997 110.112L155.26 109.111L137.329 119.464L139.066 120.465ZM167.814 50.1686L149.398 60.8026L151.131 61.803L169.551 51.169L167.814 50.1686ZM154.136 75.9788L176.2 63.2419L174.468 62.2372L152.403 74.9785L154.136 75.9788ZM176.647 90.8103L174.915 89.8099L153.123 102.389L154.86 103.39L176.647 90.8103ZM165.485 123.738L163.748 122.738L153.425 128.698L155.162 129.698L165.485 123.738ZM156.426 66.7071L168.678 59.6277L166.945 58.6273L154.69 65.7025L156.426 66.7071ZM132.217 116.463L153.127 104.39L151.39 103.39L130.48 115.458L132.217 116.463ZM200.167 155.696L221.078 143.623L219.341 142.618L198.43 154.691L200.167 155.696ZM191.615 150.672L193.352 151.673L209.32 142.452L207.583 141.452L191.615 150.672ZM169.24 108.992L144.166 123.47L145.903 124.471L170.977 109.997L169.24 108.992ZM244.598 130.039L242.865 129.038L221.073 141.618L222.81 142.622L244.598 130.039ZM116.215 69.1251L138.279 56.3838L136.542 55.3835L114.478 68.1204L116.215 69.1251ZM237.544 124.155L209.32 140.451L211.052 141.456L239.281 125.156L237.544 124.155ZM178.341 105.744L176.605 104.739L170.973 107.992L172.709 108.996L178.341 105.744ZM109.161 63.2376L110.898 64.2381L123.149 57.1629L121.417 56.1624L109.161 63.2376ZM184.859 92.0193L156.993 108.106L158.729 109.111L186.592 93.0239L184.859 92.0193ZM206.565 87.443L178.341 103.739L180.074 104.739L208.302 88.4476L206.565 87.443ZM209.435 98.3665L207.698 97.3661L195.442 104.441L197.179 105.442L209.435 98.3665ZM195.169 70.1595L185.314 75.8468L187.051 76.8473L196.906 71.16L195.169 70.1595ZM243.227 76.8515L221.018 89.6737L222.755 90.674L244.964 77.852L243.227 76.8515ZM249.544 89.1118L227.335 101.934L229.072 102.939L251.281 90.1121L249.544 89.1118ZM246.956 82.6539L237.105 88.3412L238.838 89.3416L248.693 83.6542L246.956 82.6539ZM217.485 109.626L227.34 103.939L225.603 102.934L215.748 108.626L217.485 109.626ZM235.368 89.3416L216.953 99.9757L218.689 100.976L237.105 90.342L235.368 89.3416ZM257.228 68.7675L244.959 75.8511L246.696 76.8515L258.961 69.7722L257.228 68.7675ZM262.69 73.5694L248.689 81.6535L250.425 82.6539L264.427 74.5697L262.69 73.5694ZM217.148 45.5497L210.524 49.3768L212.261 50.3772L218.885 46.5544L217.148 45.5497ZM198.085 50.6071L207.94 44.9155L206.204 43.9151L196.349 49.6024L198.085 50.6071ZM219.285 90.674L209.43 96.3615L211.167 97.3661L221.022 91.6745L219.285 90.674ZM227.467 51.5095L220.843 55.3323L222.58 56.337L229.204 52.51L227.467 51.5095ZM198.639 70.1595L220.848 57.3374L219.111 56.3328L196.902 69.1548L198.639 70.1595ZM220.554 79.3674L208.298 86.4426L210.035 87.443L222.291 80.3678L220.554 79.3674ZM208.379 78.4394L186.592 91.0189L188.324 92.0235L210.116 79.4398L208.379 78.4394ZM178.384 89.8099L200.448 77.0687L198.711 76.0682L176.647 88.8053L178.384 89.8099ZM188.32 64.1997L210.529 51.3776L208.792 50.373L186.583 63.1993L188.32 64.1997ZM176.732 70.8917L186.587 65.2002L184.85 64.1997L174.995 69.887L176.732 70.8917ZM219.656 71.9304L210.116 77.4391L211.848 78.4437L221.393 72.9351L219.656 71.9304ZM202.181 76.0682L220.597 65.4385L218.86 64.4339L200.444 75.0679L202.181 76.0682ZM233.448 71.9219L222.287 78.3671L224.023 79.3674L235.185 72.9223L233.448 71.9219ZM173.263 70.8875L161.007 77.9669L162.744 78.9673L175 71.8922L173.263 70.8875ZM235.696 62.6714L221.388 70.9301L223.125 71.9304L237.429 63.6719L235.696 62.6714ZM235.228 56.9884L222.329 64.4339L220.592 63.4334L233.491 55.9879L235.228 56.9884Z" fill="#FFFFD7"/>
<path d="M141.518 23.0728L134.175 18.837L141.518 14.597L148.861 18.837L141.518 23.0728Z" fill="#4466D0"/>
<path d="M150.62 17.8199L143.277 13.5799L150.62 9.33995L157.963 13.5799L150.62 17.8199ZM150.62 10.6852L145.605 13.5799L150.62 16.479L155.639 13.5799L150.62 10.6852ZM150.62 15.4829L147.325 13.5799L150.62 11.6772L153.915 13.5799L150.62 15.4829Z" fill="#4466D0"/>
<path d="M153.915 13.5793L150.62 15.4823L147.325 13.5793L150.62 11.6766L153.915 13.5793ZM145.605 13.5793L150.62 16.4784L155.639 13.5793L150.62 10.6847L145.605 13.5793Z" fill="#FFFFD7"/>
<path d="M159.721 12.5662L152.378 8.3262L159.721 4.08623L167.065 8.3262L159.721 12.5662Z" fill="#4466D0"/>
<path d="M155.396 8.68017H159.317V10.9448H160.577V8.68017H164.498V7.95224H160.577V5.68738H159.317V7.95224H155.396V8.68017Z" fill="#FFFFD7"/>
<path d="M146.431 18.9047L141.731 21.6206L140.833 21.1055L145.537 18.3896L146.431 18.9047Z" fill="#FFFFD7"/>
<defs>
<linearGradient id="paint0_linear_435_91272" x1="225.364" y1="244.386" x2="260.802" y2="244.386" gradientUnits="userSpaceOnUse">
<stop stop-color="#B3B4B5"/>
<stop offset="1" stop-color="#CBCCCD"/>
</linearGradient>
<linearGradient id="paint1_linear_435_91272" x1="57.2505" y1="207.176" x2="69.9488" y2="229.17" gradientUnits="userSpaceOnUse">
<stop stop-color="#F3F7F6"/>
<stop offset="0.62069" stop-color="#F3F7F6"/>
<stop offset="1" stop-color="#CFD0D1"/>
</linearGradient>
<linearGradient id="paint2_linear_435_91272" x1="-593.429" y1="-111.623" x2="1287.52" y2="1769.32" gradientUnits="userSpaceOnUse">
<stop stop-color="#8580F5"/>
<stop offset="1" stop-color="#B382F9"/>
</linearGradient>
<linearGradient id="paint3_linear_435_91272" x1="-593.427" y1="-111.623" x2="1287.52" y2="1769.32" gradientUnits="userSpaceOnUse">
<stop stop-color="#A2B9FE"/>
<stop offset="1" stop-color="#C5BAFE"/>
</linearGradient>
<linearGradient id="paint4_linear_435_91272" x1="-593.429" y1="-111.623" x2="1287.52" y2="1769.32" gradientUnits="userSpaceOnUse">
<stop stop-color="#8580F5"/>
<stop offset="1" stop-color="#B382F9"/>
</linearGradient>
<linearGradient id="paint5_linear_435_91272" x1="-593.429" y1="-111.624" x2="1287.52" y2="1769.32" gradientUnits="userSpaceOnUse">
<stop stop-color="#A2B9FE"/>
<stop offset="1" stop-color="#C5BAFE"/>
</linearGradient>
<linearGradient id="paint6_linear_435_91272" x1="-593.428" y1="-111.623" x2="1287.52" y2="1769.32" gradientUnits="userSpaceOnUse">
<stop stop-color="#B8D8FF"/>
<stop offset="1" stop-color="#D3D9FF"/>
</linearGradient>
<linearGradient id="paint7_linear_435_91272" x1="-593.429" y1="-111.623" x2="1287.52" y2="1769.32" gradientUnits="userSpaceOnUse">
<stop stop-color="#5B63D0"/>
<stop offset="1" stop-color="#7364E2"/>
</linearGradient>
<linearGradient id="paint8_linear_435_91272" x1="-593.429" y1="-111.623" x2="1287.52" y2="1769.32" gradientUnits="userSpaceOnUse">
<stop stop-color="#6B8CF9"/>
<stop offset="1" stop-color="#7D8DFB"/>
</linearGradient>
<linearGradient id="paint9_linear_435_91272" x1="-593.429" y1="-111.624" x2="1287.52" y2="1769.32" gradientUnits="userSpaceOnUse">
<stop stop-color="#76A3FD"/>
<stop offset="1" stop-color="#84A3FD"/>
</linearGradient>
<linearGradient id="paint10_linear_435_91272" x1="-593.428" y1="-111.623" x2="1287.52" y2="1769.32" gradientUnits="userSpaceOnUse">
<stop stop-color="#7FAFFD"/>
<stop offset="1" stop-color="#8AB0FD"/>
</linearGradient>
</defs>
</svg>
