<svg width="121" height="134" viewBox="0 0 121 134" fill="none" xmlns="http://www.w3.org/2000/svg">
<path d="M48.3037 117.659C47.5542 117.659 46.8059 117.485 46.1372 117.139L0.896537 93.7272C0.618358 93.5834 0.45256 93.3253 0.45256 93.0378C0.45256 92.7503 0.618358 92.4922 0.896537 92.3484L5.41066 90.0124L5.84702 90.2373L1.11365 92.6878C0.972925 92.7601 0.887801 92.8911 0.887801 93.0378C0.887801 93.1845 0.972925 93.3155 1.11365 93.3879L46.3554 116.802C46.9564 117.112 47.6306 117.267 48.3048 117.267C48.979 117.267 49.652 117.112 50.2531 116.802L95.4938 93.3888C95.6345 93.3155 95.7196 93.1845 95.7196 93.0388C95.7196 92.8921 95.6345 92.7611 95.4938 92.6887L90.7593 90.2383L91.1956 90.0134L95.7109 92.3494C95.9891 92.4932 96.1548 92.7513 96.1548 93.0388C96.1548 93.3263 95.9891 93.5834 95.7109 93.7281L50.4702 117.139C49.8026 117.485 49.0531 117.659 48.3037 117.659Z" fill="#9687BD"/>
<path d="M96.9787 78.3059C96.8533 78.3059 96.73 78.302 96.6067 78.2961V77.9099C96.7289 77.9168 96.8533 77.9197 96.9776 77.9197C97.9791 77.9197 99.0373 77.7007 99.8631 77.2733L118.441 67.6603C119.194 67.2702 119.627 66.7676 119.627 66.2816C119.627 65.8924 119.34 65.5306 118.82 65.2608L99.4834 55.2537C98.8998 54.9515 98.1165 54.8039 97.294 54.8039C97.0671 54.8039 96.8369 54.8146 96.6067 54.8371V54.4509C96.8369 54.4304 97.0682 54.4196 97.2961 54.4196C98.1972 54.4196 99.058 54.5829 99.7005 54.9144L119.038 64.9224C119.699 65.2647 120.062 65.7467 120.062 66.2816C120.062 66.9113 119.551 67.5371 118.658 67.9996L100.081 77.6126C99.1965 78.0703 98.0587 78.3049 96.9787 78.3059Z" fill="#9687BD"/>
<path d="M48.3038 98.0405L0 73.0424L48.3028 48.0463L96.6066 73.0434L48.3038 98.0405Z" fill="#C1B8E2"/>
<path d="M48.3039 91.2151L13.189 73.0432L48.3028 54.8713L83.4166 73.0432L48.3039 91.2151Z" fill="#423A9B"/>
<path d="M48.3028 56.1024L82.2275 73.6582L83.4166 73.0432L48.3028 54.8713L13.189 73.0432L14.378 73.6582L48.3028 56.1024Z" fill="white"/>
<mask id="mask0_435_91018" style="mask-type:luminance" maskUnits="userSpaceOnUse" x="48" y="73" width="49" height="40">
<path d="M48.3037 112.209V98.0403H48.3048L96.6065 73.0432V77.9099V78.2961V87.2129L91.1957 90.0133L90.7593 90.2382L48.3037 112.209Z" fill="white"/>
</mask>
<g mask="url(#mask0_435_91018)">
<path d="M48.3037 112.209V98.0403H48.3048L96.6065 73.0432V77.9099V78.2961V87.2129L91.1957 90.0133L90.7593 90.2382L48.3037 112.209Z" fill="url(#paint0_linear_435_91018)"/>
</g>
<path d="M0 73.0422V87.2119L48.3038 112.209V98.0403L0 73.0422Z" fill="#262864"/>
<path d="M48.3049 97.2279L0.784349 72.6366L0 73.0424L48.3049 98.0405L96.6066 73.0434L95.8212 72.6376L48.3049 97.2279Z" fill="white"/>
<path d="M89.3618 82.9732V85.5087L55.5494 103.007V100.47L89.3618 82.9732Z" fill="#423A9B"/>
<path d="M48.3038 112.209L5.84717 90.2373L5.41081 90.0124L0 87.2119V73.0422L48.3038 98.0403V112.209ZM3.27158 79.4088V83.8707L45.0322 105.483V101.02L3.27158 79.4088Z" fill="#322F85"/>
<path d="M45.0321 105.483L3.27142 83.8708V79.409L45.0321 101.02V105.483Z" fill="#393293"/>
<path d="M34.2031 97.2874L25.4563 92.76L25.4552 93.6948L34.202 98.2222L34.2031 97.2874Z" fill="#76D1CB"/>
<path d="M24.1949 92.1177L21.8244 90.8915L21.8233 91.8263L24.1939 93.0525L24.1949 92.1177Z" fill="#76D1CB"/>
<path d="M48.353 61.1108L46.8192 60.3168L48.353 59.5238L49.8868 60.3168L48.353 61.1108Z" fill="#76D1CB"/>
<path d="M57.5554 65.874L56.0216 65.08L57.5554 64.286L59.0893 65.08L57.5554 65.874Z" fill="#76D1CB"/>
<path d="M63.6909 69.0488L62.1571 68.2548L63.6909 67.4608L65.2258 68.2548L63.6909 69.0488Z" fill="#76D1CB"/>
<path d="M66.7595 70.6357L65.2257 69.8418L66.7595 69.0487L68.2933 69.8418L66.7595 70.6357Z" fill="#76D1CB"/>
<path d="M69.8261 72.2239L68.2934 71.4299L69.8261 70.6359L71.361 71.4299L69.8261 72.2239Z" fill="#76D1CB"/>
<path d="M45.2725 62.7046L43.7386 61.9116L45.2725 61.1166L46.8073 61.9116L45.2725 62.7046Z" fill="#76D1CB"/>
<path d="M48.341 64.2927L46.8072 63.4987L48.341 62.7047L49.8748 63.4987L48.341 64.2927Z" fill="#76D1CB"/>
<path d="M51.4076 65.8796L49.875 65.0866L51.4076 64.2926L52.9425 65.0866L51.4076 65.8796Z" fill="#76D1CB"/>
<path d="M54.4761 67.4678L52.9423 66.6738L54.4761 65.8798L56.0099 66.6738L54.4761 67.4678Z" fill="#76D1CB"/>
<path d="M57.5435 69.0547L56.0097 68.2617L57.5435 67.4677L59.0773 68.2617L57.5435 69.0547Z" fill="#76D1CB"/>
<path d="M60.6112 70.6426L59.0774 69.8486L60.6112 69.0546L62.145 69.8486L60.6112 70.6426Z" fill="#76D1CB"/>
<path d="M63.68 72.2297L62.1451 71.4367L63.68 70.6427L65.2127 71.4367L63.68 72.2297Z" fill="#76D1CB"/>
<path d="M66.7463 73.8176L65.2125 73.0236L66.7463 72.2296L68.2801 73.0236L66.7463 73.8176Z" fill="#76D1CB"/>
<path d="M69.8152 75.4048L68.2802 74.6118L69.8152 73.8178L71.3479 74.6118L69.8152 75.4048Z" fill="#76D1CB"/>
<path d="M42.1927 64.2986L40.6589 63.5046L42.1927 62.7116L43.7265 63.5046L42.1927 64.2986Z" fill="#76D1CB"/>
<path d="M45.2612 65.8865L43.7263 65.0925L45.2612 64.2985L46.7939 65.0925L45.2612 65.8865Z" fill="#76D1CB"/>
<path d="M48.3278 67.4736L46.794 66.6797L48.3278 65.8866L49.8616 66.6797L48.3278 67.4736Z" fill="#76D1CB"/>
<path d="M60.5981 73.8247L59.0654 73.0307L60.5981 72.2367L62.133 73.0307L60.5981 73.8247Z" fill="#76D1CB"/>
<path d="M63.667 75.4114L62.1332 74.6174L63.667 73.8244L65.2008 74.6174L63.667 75.4114Z" fill="#76D1CB"/>
<path d="M66.7333 76.9995L65.2005 76.2055L66.7333 75.4115L68.2681 76.2055L66.7333 76.9995Z" fill="#76D1CB"/>
<path d="M48.3169 70.6553L46.782 69.8613L48.3159 69.0673L49.8497 69.8613L48.3169 70.6553Z" fill="#76D1CB"/>
<path d="M51.3832 72.2424L49.8494 71.4494L51.3832 70.6554L52.917 71.4494L51.3832 72.2424Z" fill="#76D1CB"/>
<path d="M54.4521 73.8303L52.9171 73.0363L54.4521 72.2423L55.9847 73.0363L54.4521 73.8303Z" fill="#76D1CB"/>
<path d="M60.5871 77.0054L59.0523 76.2114L60.5871 75.4174L62.1199 76.2114L60.5871 77.0054Z" fill="#76D1CB"/>
<path d="M63.6538 78.5933L62.12 77.7993L63.6538 77.0053L65.1875 77.7993L63.6538 78.5933Z" fill="#76D1CB"/>
<path d="M36.0336 67.4873L34.4998 66.6933L36.0336 65.8993L37.5663 66.6933L36.0336 67.4873Z" fill="#76D1CB"/>
<path d="M39.0998 69.0742L37.566 68.2802L39.0998 67.4872L40.6336 68.2802L39.0998 69.0742Z" fill="#76D1CB"/>
<path d="M42.1686 70.6624L40.6337 69.8683L42.1686 69.0744L43.7013 69.8683L42.1686 70.6624Z" fill="#76D1CB"/>
<path d="M45.235 72.2493L43.7023 71.4553L45.235 70.6623L46.7699 71.4553L45.235 72.2493Z" fill="#76D1CB"/>
<path d="M48.3038 73.8372L46.7701 73.0432L48.3038 72.2492L49.8376 73.0432L48.3038 73.8372Z" fill="#76D1CB"/>
<path d="M51.3701 75.4243L49.8374 74.6303L51.3701 73.8373L52.905 74.6303L51.3701 75.4243Z" fill="#76D1CB"/>
<path d="M54.439 77.0122L52.9052 76.2182L54.439 75.4242L55.9728 76.2182L54.439 77.0122Z" fill="#76D1CB"/>
<path d="M57.5067 78.5991L55.9729 77.8051L57.5056 77.0121L59.0405 77.8051L57.5067 78.5991Z" fill="#76D1CB"/>
<path d="M60.5741 80.1873L59.0403 79.3933L60.5741 78.5993L62.1078 79.3933L60.5741 80.1873Z" fill="#76D1CB"/>
<path d="M32.9516 69.0801L31.4189 68.2861L32.9516 67.4931L34.4865 68.2871L32.9516 69.0801Z" fill="#76D1CB"/>
<path d="M36.0201 70.668L34.4863 69.874L36.0201 69.08L37.5539 69.874L36.0201 70.668Z" fill="#76D1CB"/>
<path d="M42.1556 73.843L40.6217 73.05L42.1556 72.256L43.6894 73.05L42.1556 73.843Z" fill="#76D1CB"/>
<path d="M48.2907 77.0181L46.7569 76.225L48.2907 75.4311L49.8245 76.225L48.2907 77.0181Z" fill="#76D1CB"/>
<path d="M51.3595 78.6062L49.8246 77.8122L51.3595 77.0182L52.8922 77.8122L51.3595 78.6062Z" fill="#76D1CB"/>
<path d="M54.4258 80.1931L52.8932 79.4001L54.4258 78.6061L55.9597 79.4001L54.4258 80.1931Z" fill="#76D1CB"/>
<path d="M57.4946 81.781L55.9597 80.987L57.4946 80.193L59.0284 80.987L57.4946 81.781Z" fill="#76D1CB"/>
<path d="M29.8717 70.6738L28.338 69.8808L29.8717 69.0868L31.4067 69.8808L29.8717 70.6738Z" fill="#76D1CB"/>
<path d="M32.9407 72.262L31.4069 71.468L32.9407 70.6749L34.4745 71.468L32.9407 72.262Z" fill="#76D1CB"/>
<path d="M39.0757 75.437L37.5408 74.643L39.0757 73.85L40.6095 74.643L39.0757 75.437Z" fill="#76D1CB"/>
<path d="M42.1425 77.0249L40.6098 76.2309L42.1425 75.4369L43.6774 76.2309L42.1425 77.0249Z" fill="#76D1CB"/>
<path d="M51.3464 81.7881L49.8126 80.9941L51.3464 80.2001L52.8802 80.9941L51.3464 81.7881Z" fill="#76D1CB"/>
<path d="M26.7924 72.2688L25.2586 71.4748L26.7924 70.6808L28.3263 71.4748L26.7924 72.2688Z" fill="#76D1CB"/>
<path d="M32.9275 75.4438L31.3937 74.6499L32.9275 73.8559L34.4614 74.6499L32.9275 75.4438Z" fill="#76D1CB"/>
<path d="M35.9953 77.0308L34.4615 76.2378L35.9953 75.4438L37.5291 76.2378L35.9953 77.0308Z" fill="#76D1CB"/>
<path d="M39.0626 78.6187L37.5289 77.8246L39.0626 77.0306L40.5964 77.8246L39.0626 78.6187Z" fill="#76D1CB"/>
<path d="M42.1315 80.2058L40.5966 79.4128L42.1315 78.6188L43.6653 79.4128L42.1315 80.2058Z" fill="#76D1CB"/>
<path d="M45.1978 81.7939L43.6651 80.9999L45.1978 80.206L46.7316 80.9999L45.1978 81.7939Z" fill="#76D1CB"/>
<path d="M51.3333 84.9688L49.8006 84.1757L51.3333 83.3817L52.8671 84.1757L51.3333 84.9688Z" fill="#76D1CB"/>
<path d="M23.7127 73.8625L22.1789 73.0686L23.7127 72.2746L25.2465 73.0686L23.7127 73.8625Z" fill="#76D1CB"/>
<path d="M29.8478 77.0378L28.314 76.2439L29.8478 75.4508L31.3816 76.2439L29.8478 77.0378Z" fill="#76D1CB"/>
<path d="M32.9145 78.6245L31.3818 77.8315L32.9145 77.0375L34.4493 77.8315L32.9145 78.6245Z" fill="#76D1CB"/>
<path d="M35.9833 80.2126L34.4495 79.4187L35.9833 78.6256L37.5171 79.4187L35.9833 80.2126Z" fill="#76D1CB"/>
<path d="M39.0507 81.8008L37.5169 81.0068L39.0507 80.2128L40.5845 81.0068L39.0507 81.8008Z" fill="#76D1CB"/>
<path d="M45.1862 84.9756L43.6524 84.1816L45.1862 83.3876L46.72 84.1816L45.1862 84.9756Z" fill="#76D1CB"/>
<path d="M48.2535 86.5625L46.7197 85.7685L48.2535 84.9755L49.7873 85.7685L48.2535 86.5625Z" fill="#76D1CB"/>
<path d="M48.3038 74.1501L0 49.1521L48.3028 24.1559L96.6066 49.153L48.3038 74.1501Z" fill="#C1B8E2"/>
<path d="M48.3039 67.325L13.189 49.1521L48.3028 30.9811L83.4166 49.153L48.3039 67.325Z" fill="#423A9B"/>
<path d="M48.3028 32.2112L82.2275 49.7681L83.4166 49.153L48.3028 30.9811L13.189 49.152L14.378 49.7681L48.3028 32.2112Z" fill="white"/>
<mask id="mask1_435_91018" style="mask-type:luminance" maskUnits="userSpaceOnUse" x="48" y="49" width="49" height="40">
<path d="M48.3037 88.3188V74.1502H48.3048L96.6065 49.1531V54.4509V54.8371V63.3227L87.2139 68.1835L80.6194 71.5961L79.4303 72.2111L48.3037 88.3188Z" fill="white"/>
</mask>
<g mask="url(#mask1_435_91018)">
<path d="M48.3037 88.3188V74.1502H48.3048L96.6065 49.1531V54.4509V54.8371V63.3227L87.2139 68.1835L80.6194 71.5961L79.4303 72.2111L48.3037 88.3188Z" fill="url(#paint1_linear_435_91018)"/>
</g>
<path d="M0 49.1521V63.3217L48.3038 88.3188V74.1502L0 49.1521Z" fill="#262864"/>
<path d="M48.3049 73.3376L0.784349 48.7463L0 49.1521L48.3049 74.1501L96.6066 49.153L95.8212 48.7472L48.3049 73.3376Z" fill="white"/>
<path d="M89.3618 59.0818V61.6183L55.5494 79.1165V76.58L89.3618 59.0818Z" fill="#423A9B"/>
<path d="M48.3038 88.3188L17.1762 72.2102L15.9871 71.5951L0 63.3217V49.1521L48.3038 74.1502V88.3188ZM3.27158 55.5187V59.9805L45.0322 81.5914V77.1296L3.27158 55.5187Z" fill="#322F85"/>
<path d="M45.0321 81.5913L3.27142 59.9804V55.5186L45.0321 77.1295V81.5913Z" fill="#393293"/>
<path d="M34.2031 73.3972L25.4563 68.8699L25.4552 69.8047L34.202 74.332L34.2031 73.3972Z" fill="#76D1CB"/>
<path d="M24.1949 68.2276L21.8244 67.0004L21.8233 67.9362L24.1939 69.1624L24.1949 68.2276Z" fill="#76D1CB"/>
<path d="M48.353 37.2195L46.8192 36.4265L48.353 35.6325L49.8868 36.4265L48.353 37.2195Z" fill="#76D1CB"/>
<path d="M57.5554 41.9836L56.0216 41.1897L57.5554 40.3957L59.0893 41.1897L57.5554 41.9836Z" fill="#76D1CB"/>
<path d="M63.6909 45.1587L62.1571 44.3647L63.6909 43.5707L65.2258 44.3647L63.6909 45.1587Z" fill="#76D1CB"/>
<path d="M66.7595 46.7456L65.2257 45.9516L66.7595 45.1586L68.2933 45.9516L66.7595 46.7456Z" fill="#76D1CB"/>
<path d="M69.8261 48.3335L68.2934 47.5395L69.8261 46.7455L71.361 47.5395L69.8261 48.3335Z" fill="#76D1CB"/>
<path d="M45.2725 38.8145L43.7386 38.0204L45.2725 37.2265L46.8073 38.0204L45.2725 38.8145Z" fill="#76D1CB"/>
<path d="M48.341 40.4016L46.8072 39.6076L48.341 38.8146L49.8748 39.6086L48.341 40.4016Z" fill="#76D1CB"/>
<path d="M51.4076 41.9895L49.875 41.1955L51.4076 40.4015L52.9425 41.1955L51.4076 41.9895Z" fill="#76D1CB"/>
<path d="M54.4761 43.5767L52.9423 42.7836L54.4761 41.9897L56.0099 42.7836L54.4761 43.5767Z" fill="#76D1CB"/>
<path d="M57.5435 45.1646L56.0097 44.3715L57.5435 43.5766L59.0773 44.3715L57.5435 45.1646Z" fill="#76D1CB"/>
<path d="M60.6112 46.7524L59.0774 45.9585L60.6112 45.1645L62.145 45.9585L60.6112 46.7524Z" fill="#76D1CB"/>
<path d="M63.68 48.3396L62.1451 47.5466L63.68 46.7526L65.2127 47.5466L63.68 48.3396Z" fill="#76D1CB"/>
<path d="M66.7463 49.9275L65.2125 49.1335L66.7463 48.3395L68.2801 49.1335L66.7463 49.9275Z" fill="#76D1CB"/>
<path d="M69.8152 51.5144L68.2802 50.7214L69.8152 49.9274L71.3479 50.7214L69.8152 51.5144Z" fill="#76D1CB"/>
<path d="M42.1927 40.4084L40.6589 39.6144L42.1927 38.8205L43.7265 39.6144L42.1927 40.4084Z" fill="#76D1CB"/>
<path d="M45.2612 41.9954L43.7263 41.2023L45.2612 40.4084L46.7939 41.2023L45.2612 41.9954Z" fill="#76D1CB"/>
<path d="M48.3278 43.5833L46.794 42.7892L48.3278 41.9962L49.8616 42.7892L48.3278 43.5833Z" fill="#76D1CB"/>
<path d="M60.5981 49.9333L59.0654 49.1393L60.5981 48.3463L62.133 49.1393L60.5981 49.9333Z" fill="#76D1CB"/>
<path d="M63.667 51.5212L62.1332 50.7272L63.667 49.9333L65.2008 50.7272L63.667 51.5212Z" fill="#76D1CB"/>
<path d="M66.7333 53.1094L65.2005 52.3154L66.7333 51.5214L68.2681 52.3154L66.7333 53.1094Z" fill="#76D1CB"/>
<path d="M48.3169 46.7651L46.782 45.9711L48.3159 45.1772L49.8497 45.9711L48.3169 46.7651Z" fill="#76D1CB"/>
<path d="M51.3832 48.3523L49.8494 47.5583L51.3832 46.7653L52.917 47.5593L51.3832 48.3523Z" fill="#76D1CB"/>
<path d="M54.4521 49.9402L52.9171 49.1462L54.4521 48.3522L55.9847 49.1462L54.4521 49.9402Z" fill="#76D1CB"/>
<path d="M60.5871 53.1152L59.0523 52.3212L60.5871 51.5272L62.1199 52.3212L60.5871 53.1152Z" fill="#76D1CB"/>
<path d="M63.6538 54.7021L62.12 53.9091L63.6538 53.1151L65.1875 53.9091L63.6538 54.7021Z" fill="#76D1CB"/>
<path d="M36.0336 43.5962L34.4998 42.8022L36.0336 42.0082L37.5663 42.8022L36.0336 43.5962Z" fill="#76D1CB"/>
<path d="M39.0998 45.1841L37.566 44.3901L39.0998 43.5961L40.6336 44.3901L39.0998 45.1841Z" fill="#76D1CB"/>
<path d="M42.1686 46.771L40.6337 45.978L42.1686 45.184L43.7013 45.978L42.1686 46.771Z" fill="#76D1CB"/>
<path d="M45.235 48.3591L43.7023 47.5651L45.235 46.7711L46.7699 47.5651L45.235 48.3591Z" fill="#76D1CB"/>
<path d="M48.3038 49.946L46.7701 49.153L48.3038 48.359L49.8376 49.153L48.3038 49.946Z" fill="#76D1CB"/>
<path d="M51.3701 51.5339L49.8374 50.74L51.3701 49.9469L52.905 50.74L51.3701 51.5339Z" fill="#76D1CB"/>
<path d="M54.439 53.1221L52.9052 52.3281L54.439 51.5341L55.9728 52.3281L54.439 53.1221Z" fill="#76D1CB"/>
<path d="M57.5067 54.709L55.9729 53.915L57.5056 53.122L59.0405 53.915L57.5067 54.709Z" fill="#76D1CB"/>
<path d="M60.5741 56.2969L59.0403 55.5029L60.5741 54.7089L62.1078 55.5029L60.5741 56.2969Z" fill="#76D1CB"/>
<path d="M32.9516 45.1899L31.4189 44.3959L32.9516 43.6029L34.4865 44.3959L32.9516 45.1899Z" fill="#76D1CB"/>
<path d="M36.0201 46.7778L34.4863 45.9839L36.0201 45.1898L37.5539 45.9839L36.0201 46.7778Z" fill="#76D1CB"/>
<path d="M42.1556 49.9529L40.6217 49.1589L42.1556 48.3649L43.6894 49.1589L42.1556 49.9529Z" fill="#76D1CB"/>
<path d="M48.2907 53.1279L46.7569 52.3339L48.2907 51.5409L49.8245 52.3349L48.2907 53.1279Z" fill="#76D1CB"/>
<path d="M51.3595 54.7158L49.8246 53.9218L51.3595 53.1278L52.8922 53.9218L51.3595 54.7158Z" fill="#76D1CB"/>
<path d="M54.4258 56.303L52.8932 55.51L54.4258 54.716L55.9597 55.51L54.4258 56.303Z" fill="#76D1CB"/>
<path d="M57.4946 57.8909L55.9597 57.0969L57.4946 56.3029L59.0284 57.0969L57.4946 57.8909Z" fill="#76D1CB"/>
<path d="M29.8717 46.7837L28.338 45.9907L29.8717 45.1967L31.4067 45.9907L29.8717 46.7837Z" fill="#76D1CB"/>
<path d="M32.9407 48.3718L31.4069 47.5778L32.9407 46.7838L34.4745 47.5778L32.9407 48.3718Z" fill="#76D1CB"/>
<path d="M39.0757 51.5466L37.5408 50.7526L39.0757 49.9586L40.6095 50.7526L39.0757 51.5466Z" fill="#76D1CB"/>
<path d="M42.1425 53.1338L40.6098 52.3408L42.1425 51.5468L43.6774 52.3408L42.1425 53.1338Z" fill="#76D1CB"/>
<path d="M51.3464 57.8967L49.8126 57.1027L51.3464 56.3097L52.8802 57.1027L51.3464 57.8967Z" fill="#76D1CB"/>
<path d="M26.7924 48.3787L25.2586 47.5847L26.7924 46.7907L28.3263 47.5847L26.7924 48.3787Z" fill="#76D1CB"/>
<path d="M32.9275 51.5535L31.3937 50.7595L32.9275 49.9655L34.4614 50.7595L32.9275 51.5535Z" fill="#76D1CB"/>
<path d="M35.9953 53.1406L34.4615 52.3466L35.9953 51.5536L37.5291 52.3466L35.9953 53.1406Z" fill="#76D1CB"/>
<path d="M39.0626 54.7285L37.5289 53.9345L39.0626 53.1405L40.5964 53.9345L39.0626 54.7285Z" fill="#76D1CB"/>
<path d="M42.1315 56.3157L40.5966 55.5217L42.1315 54.7287L43.6653 55.5217L42.1315 56.3157Z" fill="#76D1CB"/>
<path d="M45.1978 57.9036L43.6651 57.1096L45.1978 56.3156L46.7316 57.1096L45.1978 57.9036Z" fill="#76D1CB"/>
<path d="M51.3333 61.0786L49.8006 60.2846L51.3333 59.4906L52.8671 60.2846L51.3333 61.0786Z" fill="#76D1CB"/>
<path d="M23.7127 49.9714L22.1789 49.1784L23.7127 48.3844L25.2465 49.1784L23.7127 49.9714Z" fill="#76D1CB"/>
<path d="M29.8478 53.1475L28.314 52.3535L29.8478 51.5595L31.3816 52.3535L29.8478 53.1475Z" fill="#76D1CB"/>
<path d="M32.9145 54.7344L31.3818 53.9413L32.9145 53.1473L34.4493 53.9413L32.9145 54.7344Z" fill="#76D1CB"/>
<path d="M35.9833 56.3225L34.4495 55.5285L35.9833 54.7345L37.5171 55.5285L35.9833 56.3225Z" fill="#76D1CB"/>
<path d="M39.0507 57.9094L37.5169 57.1164L39.0507 56.3224L40.5845 57.1164L39.0507 57.9094Z" fill="#76D1CB"/>
<path d="M45.1862 61.0845L43.6524 60.2914L45.1862 59.4975L46.72 60.2914L45.1862 61.0845Z" fill="#76D1CB"/>
<path d="M48.2535 62.6724L46.7197 61.8784L48.2535 61.0854L49.7873 61.8784L48.2535 62.6724Z" fill="#76D1CB"/>
<path d="M48.3038 50.259L0 25.2619L48.3028 0.264812L96.6066 25.2629L48.3038 50.259Z" fill="#C1B8E2"/>
<path d="M48.3039 43.4336L13.189 25.2617L48.3028 7.09079L83.4166 25.2627L48.3039 43.4336Z" fill="#423A9B"/>
<path d="M48.3028 8.32084L82.2275 25.8777L83.4166 25.2626L48.3028 7.09075L13.189 25.2617L14.378 25.8767L48.3028 8.32084Z" fill="white"/>
<mask id="mask2_435_91018" style="mask-type:luminance" maskUnits="userSpaceOnUse" x="48" y="25" width="49" height="40">
<path d="M48.3037 64.4287V50.2591H48.3048L96.6065 25.2629V39.4326L87.2139 44.2924L80.6194 47.706L79.4303 48.321L48.3037 64.4287Z" fill="white"/>
</mask>
<g mask="url(#mask2_435_91018)">
<path d="M48.3037 64.4287V50.2591H48.3048L96.6065 25.2629V39.4326L87.2139 44.2924L80.6194 47.706L79.4303 48.321L48.3037 64.4287Z" fill="url(#paint2_linear_435_91018)"/>
</g>
<path d="M0 25.2619V39.4316L48.3038 64.4287V50.2591L0 25.2619Z" fill="#262864"/>
<path d="M48.3049 49.4474L0.784349 24.8561L0 25.2619L48.3049 50.259L96.6066 25.2629L95.8212 24.8561L48.3049 49.4474Z" fill="white"/>
<path d="M89.3618 35.1917V37.7282L55.5494 55.2263V52.6898L89.3618 35.1917Z" fill="#423A9B"/>
<path d="M48.3038 64.4287L17.1762 48.32L15.9871 47.705L0 39.4316V25.2619L48.3038 50.2591V64.4287ZM3.27158 31.6286V36.0904L45.0322 57.7013V53.2395L3.27158 31.6286Z" fill="#322F85"/>
<path d="M45.0321 57.7012L3.27142 36.0903V31.6285L45.0321 53.2394V57.7012Z" fill="#393293"/>
<path d="M34.2031 49.5071L25.4563 44.9798L25.4552 45.9146L34.202 50.4419L34.2031 49.5071Z" fill="#76D1CB"/>
<path d="M24.1949 44.3364L21.8244 43.1102L21.8233 44.045L24.1939 45.2722L24.1949 44.3364Z" fill="#76D1CB"/>
<path d="M48.353 13.3293L46.8192 12.5363L48.353 11.7423L49.8868 12.5363L48.353 13.3293Z" fill="#76D1CB"/>
<path d="M51.4207 14.9172L49.8869 14.1233L51.4207 13.3293L52.9546 14.1233L51.4207 14.9172Z" fill="#4447A5"/>
<path d="M54.4892 16.5044L52.9543 15.7114L54.4892 14.9174L56.0218 15.7114L54.4892 16.5044Z" fill="#4C7EBE"/>
<path d="M57.5554 18.0925L56.0216 17.2985L57.5554 16.5045L59.0893 17.2985L57.5554 18.0925Z" fill="#76D1CB"/>
<path d="M60.6243 19.6804L59.0894 18.8864L60.6243 18.0924L62.157 18.8864L60.6243 19.6804Z" fill="#4C7EBE"/>
<path d="M63.6909 21.2673L62.1571 20.4743L63.6909 19.6803L65.2258 20.4743L63.6909 21.2673Z" fill="#76D1CB"/>
<path d="M66.7595 22.8555L65.2257 22.0615L66.7595 21.2685L68.2933 22.0615L66.7595 22.8555Z" fill="#76D1CB"/>
<path d="M69.8261 24.4426L68.2934 23.6496L69.8261 22.8556L71.361 23.6496L69.8261 24.4426Z" fill="#76D1CB"/>
<path d="M72.8949 26.0303L71.36 25.2363L72.8949 24.4433L74.4287 25.2363L72.8949 26.0303Z" fill="#4447A5"/>
<path d="M45.2725 14.9243L43.7386 14.1303L45.2725 13.3363L46.8073 14.1303L45.2725 14.9243Z" fill="#76D1CB"/>
<path d="M48.341 16.5112L46.8072 15.7172L48.341 14.9242L49.8748 15.7172L48.341 16.5112Z" fill="#76D1CB"/>
<path d="M51.4076 18.0994L49.875 17.3054L51.4076 16.5114L52.9425 17.3054L51.4076 18.0994Z" fill="#76D1CB"/>
<path d="M54.4761 19.6863L52.9423 18.8923L54.4761 18.0993L56.0099 18.8923L54.4761 19.6863Z" fill="#76D1CB"/>
<path d="M57.5435 21.2742L56.0097 20.4802L57.5435 19.6862L59.0773 20.4802L57.5435 21.2742Z" fill="#76D1CB"/>
<path d="M60.6112 22.8613L59.0774 22.0673L60.6112 21.2743L62.145 22.0673L60.6112 22.8613Z" fill="#76D1CB"/>
<path d="M63.68 24.4495L62.1451 23.6555L63.68 22.8615L65.2127 23.6555L63.68 24.4495Z" fill="#76D1CB"/>
<path d="M66.7463 26.0374L65.2125 25.2424L66.7463 24.4494L68.2801 25.2434L66.7463 26.0374Z" fill="#76D1CB"/>
<path d="M69.8152 27.6243L68.2802 26.8303L69.8152 26.0372L71.3479 26.8312L69.8152 27.6243Z" fill="#76D1CB"/>
<path d="M42.1927 16.5183L40.6589 15.7243L42.1927 14.9303L43.7265 15.7243L42.1927 16.5183Z" fill="#76D1CB"/>
<path d="M45.2612 18.105L43.7263 17.312L45.2612 16.518L46.7939 17.312L45.2612 18.105Z" fill="#76D1CB"/>
<path d="M48.3278 19.6931L46.794 18.8991L48.3278 18.1051L49.8616 18.8991L48.3278 19.6931Z" fill="#76D1CB"/>
<path d="M51.3962 21.2803L49.8614 20.4873L51.3962 19.6933L52.929 20.4873L51.3962 21.2803Z" fill="#4447A5"/>
<path d="M54.4629 22.8679L52.9291 22.0739L54.4629 21.2799L55.9978 22.0739L54.4629 22.8679Z" fill="#4C7EBE"/>
<path d="M57.5315 24.4551L55.9977 23.6621L57.5315 22.8681L59.0653 23.6621L57.5315 24.4551Z" fill="#4C7EBE"/>
<path d="M60.5981 26.0432L59.0654 25.2492L60.5981 24.4552L62.133 25.2492L60.5981 26.0432Z" fill="#76D1CB"/>
<path d="M63.667 27.6301L62.1332 26.8371L63.667 26.0431L65.2008 26.8371L63.667 27.6301Z" fill="#76D1CB"/>
<path d="M66.7333 29.218L65.2005 28.424L66.7333 27.631L68.2681 28.424L66.7333 29.218Z" fill="#76D1CB"/>
<path d="M39.1129 18.1121L37.5792 17.3181L39.1129 16.5241L40.6467 17.3181L39.1129 18.1121Z" fill="#4C7EBE"/>
<path d="M42.1793 19.7L40.6465 18.9059L42.1793 18.112L43.7141 18.9059L42.1793 19.7Z" fill="#4C7EBE"/>
<path d="M45.2481 21.2871L43.7143 20.4931L45.2481 19.7001L46.7819 20.4931L45.2481 21.2871Z" fill="#4447A5"/>
<path d="M48.3169 22.875L46.782 22.081L48.3159 21.287L49.8497 22.081L48.3169 22.875Z" fill="#76D1CB"/>
<path d="M51.3832 24.4619L49.8494 23.6679L51.3832 22.8749L52.917 23.6679L51.3832 24.4619Z" fill="#76D1CB"/>
<path d="M54.4521 26.05L52.9171 25.256L54.4521 24.4621L55.9847 25.256L54.4521 26.05Z" fill="#76D1CB"/>
<path d="M57.5187 27.637L55.9849 26.843L57.5187 26.05L59.0525 26.843L57.5187 27.637Z" fill="#4C7EBE"/>
<path d="M60.5871 29.2251L59.0523 28.4311L60.5871 27.6371L62.1199 28.4311L60.5871 29.2251Z" fill="#76D1CB"/>
<path d="M63.6538 30.812L62.12 30.018L63.6538 29.225L65.1875 30.018L63.6538 30.812Z" fill="#76D1CB"/>
<path d="M36.0331 19.7058L34.4982 18.9118L36.0331 18.1178L37.5659 18.9118L36.0331 19.7058Z" fill="#76D1CB"/>
<path d="M39.0998 21.2927L37.566 20.4997L39.0998 19.7057L40.6347 20.4997L39.0998 21.2927Z" fill="#76D1CB"/>
<path d="M42.1683 22.8809L40.6345 22.0869L42.1683 21.2929L43.701 22.0869L42.1683 22.8809Z" fill="#76D1CB"/>
<path d="M45.235 24.468L43.7023 23.675L45.235 22.881L46.7699 23.675L45.235 24.468Z" fill="#76D1CB"/>
<path d="M48.3038 26.0557L46.7701 25.2626L48.3038 24.4677L49.8376 25.2626L48.3038 26.0557Z" fill="#76D1CB"/>
<path d="M51.3701 27.6438L49.8374 26.8498L51.3701 26.0558L52.905 26.8498L51.3701 27.6438Z" fill="#76D1CB"/>
<path d="M54.439 29.231L52.9052 28.4379L54.439 27.6439L55.9728 28.4379L54.439 29.231Z" fill="#76D1CB"/>
<path d="M57.5067 30.8188L55.9729 30.0248L57.5056 29.2309L59.0405 30.0248L57.5067 30.8188Z" fill="#76D1CB"/>
<path d="M60.5741 32.4058L59.0403 31.6127L60.5741 30.8188L62.1078 31.6127L60.5741 32.4058Z" fill="#76D1CB"/>
<path d="M32.9527 21.2996L31.4189 20.5056L32.9527 19.7126L34.4865 20.5056L32.9527 21.2996Z" fill="#76D1CB"/>
<path d="M36.0201 22.8877L34.4863 22.0937L36.0201 21.2997L37.5539 22.0937L36.0201 22.8877Z" fill="#76D1CB"/>
<path d="M39.0889 24.4749L37.554 23.6809L39.0878 22.8878L40.6216 23.6809L39.0889 24.4749Z" fill="#4C7EBE"/>
<path d="M42.1556 26.0627L40.6217 25.2688L42.1556 24.4748L43.6894 25.2688L42.1556 26.0627Z" fill="#76D1CB"/>
<path d="M45.224 27.6497L43.6891 26.8557L45.224 26.0626L46.7567 26.8557L45.224 27.6497Z" fill="#4447A5"/>
<path d="M48.2907 29.2378L46.7569 28.4438L48.2907 27.6498L49.8245 28.4438L48.2907 29.2378Z" fill="#76D1CB"/>
<path d="M51.3595 30.8247L49.8246 30.0307L51.3595 29.2377L52.8922 30.0307L51.3595 30.8247Z" fill="#76D1CB"/>
<path d="M54.4258 32.4128L52.8932 31.6188L54.4258 30.8249L55.9597 31.6188L54.4258 32.4128Z" fill="#76D1CB"/>
<path d="M57.4946 34.0007L55.9597 33.2067L57.4946 32.4127L59.0284 33.2067L57.4946 34.0007Z" fill="#76D1CB"/>
<path d="M29.8717 22.8936L28.338 22.1006L29.8717 21.3065L31.4067 22.1006L29.8717 22.8936Z" fill="#76D1CB"/>
<path d="M32.9407 24.4817L31.4069 23.6877L32.9407 22.8937L34.4745 23.6877L32.9407 24.4817Z" fill="#76D1CB"/>
<path d="M36.007 26.0686L34.4743 25.2756L36.007 24.4816L37.5408 25.2756L36.007 26.0686Z" fill="#4C7EBE"/>
<path d="M39.0758 27.6565L37.542 26.8625L39.0758 26.0685L40.6096 26.8625L39.0758 27.6565Z" fill="#76D1CB"/>
<path d="M42.1425 29.2434L40.6098 28.4504L42.1425 27.6564L43.6774 28.4504L42.1425 29.2434Z" fill="#76D1CB"/>
<path d="M45.2109 30.8315L43.6771 30.0376L45.2109 29.2436L46.7447 30.0376L45.2109 30.8315Z" fill="#4447A5"/>
<path d="M48.2786 32.4187L46.7449 31.6257L48.2776 30.8317L49.8124 31.6257L48.2786 32.4187Z" fill="#4C7EBE"/>
<path d="M51.3464 34.0063L49.8126 33.2124L51.3464 32.4184L52.8802 33.2124L51.3464 34.0063Z" fill="#76D1CB"/>
<path d="M54.4138 35.5935L52.88 34.8005L54.4138 34.0065L55.9476 34.8005L54.4138 35.5935Z" fill="#4447A5"/>
<path d="M26.7924 24.4883L25.2586 23.6943L26.7924 22.9003L28.3263 23.6943L26.7924 24.4883Z" fill="#76D1CB"/>
<path d="M29.8609 26.0754L28.326 25.2814L29.8609 24.4875L31.3936 25.2814L29.8609 26.0754Z" fill="#4C7EBE"/>
<path d="M32.9275 27.6633L31.3937 26.8693L32.9275 26.0753L34.4614 26.8693L32.9275 27.6633Z" fill="#76D1CB"/>
<path d="M35.9964 29.2505L34.4615 28.4565L35.9964 27.6635L37.5291 28.4565L35.9964 29.2505Z" fill="#76D1CB"/>
<path d="M39.0626 30.8384L37.5289 30.0444L39.0626 29.2504L40.5964 30.0444L39.0626 30.8384Z" fill="#76D1CB"/>
<path d="M42.1315 32.4255L40.5966 31.6316L42.1315 30.8385L43.6653 31.6316L42.1315 32.4255Z" fill="#76D1CB"/>
<path d="M45.1978 34.0134L43.6651 33.2194L45.1978 32.4254L46.7316 33.2194L45.1978 34.0134Z" fill="#76D1CB"/>
<path d="M48.2666 35.6003L46.7317 34.8064L48.2666 34.0133L49.8004 34.8064L48.2666 35.6003Z" fill="#4C7EBE"/>
<path d="M51.3333 37.1885L49.8006 36.3945L51.3333 35.6005L52.8671 36.3945L51.3333 37.1885Z" fill="#76D1CB"/>
<path d="M23.7127 26.0811L22.1789 25.288L23.7127 24.494L25.2465 25.288L23.7127 26.0811Z" fill="#76D1CB"/>
<path d="M26.7794 27.6692L25.2467 26.8752L26.7794 26.0812L28.3143 26.8752L26.7794 27.6692Z" fill="#4447A5"/>
<path d="M29.8478 29.2563L28.314 28.4633L29.8478 27.6693L31.3816 28.4633L29.8478 29.2563Z" fill="#76D1CB"/>
<path d="M32.9145 30.8442L31.3818 30.0502L32.9145 29.2563L34.4493 30.0502L32.9145 30.8442Z" fill="#76D1CB"/>
<path d="M35.9833 32.4324L34.4495 31.6384L35.9833 30.8444L37.5171 31.6384L35.9833 32.4324Z" fill="#76D1CB"/>
<path d="M39.0507 34.0193L37.5169 33.2263L39.0507 32.4323L40.5845 33.2263L39.0507 34.0193Z" fill="#76D1CB"/>
<path d="M42.1184 35.6072L40.5846 34.8132L42.1184 34.0192L43.6522 34.8132L42.1184 35.6072Z" fill="#4C7EBE"/>
<path d="M45.1862 37.1941L43.6524 36.4011L45.1862 35.6071L46.72 36.4011L45.1862 37.1941Z" fill="#76D1CB"/>
<path d="M48.2535 38.7822L46.7197 37.9882L48.2535 37.1942L49.7873 37.9882L48.2535 38.7822Z" fill="#76D1CB"/>
<path d="M26.7182 133.945C26.2633 133.945 25.8269 133.861 25.4953 133.688L16.1266 128.84C15.7688 128.656 15.5736 128.391 15.5736 128.096C15.5736 127.753 15.842 127.417 16.3111 127.176L25.3098 122.517C25.7593 122.285 26.3255 122.165 26.8644 122.165C27.3204 122.165 27.7578 122.25 28.0894 122.423L37.4581 127.271C37.8148 127.455 38.0112 127.72 38.0112 128.017C38.0112 128.358 37.7428 128.694 37.2737 128.936L28.2749 133.593C27.8233 133.827 27.2582 133.945 26.7182 133.945ZM26.8709 122.559C26.404 122.559 25.9066 122.66 25.527 122.856L16.5281 127.514C16.203 127.682 16.0089 127.899 16.0089 128.096C16.0089 128.288 16.191 128.422 16.3438 128.502L25.7124 133.35C25.9731 133.485 26.3331 133.551 26.7117 133.551C27.1807 133.551 27.6782 133.45 28.0578 133.255L37.0567 128.597C37.3817 128.429 37.5759 128.212 37.5759 128.017C37.5759 127.823 37.3937 127.689 37.241 127.609L27.8724 122.761C27.6106 122.626 27.2506 122.559 26.8709 122.559Z" fill="#9687BD"/>
<path d="M108.771 111.372C108.316 111.372 107.879 111.287 107.545 111.114L98.1766 106.266C97.8199 106.082 97.6246 105.817 97.6246 105.522C97.6246 105.179 97.893 104.843 98.3621 104.602L107.361 99.9442C107.813 99.7115 108.379 99.5922 108.92 99.5922C109.374 99.5922 109.81 99.6763 110.142 99.8484L119.509 104.697C119.866 104.881 120.062 105.146 120.062 105.444C120.062 105.785 119.795 106.12 119.326 106.362L110.326 111.02C109.876 111.253 109.311 111.372 108.771 111.372ZM108.925 99.9863C108.456 99.9863 107.958 100.087 107.579 100.284L98.5792 104.94C98.2552 105.108 98.061 105.325 98.061 105.522C98.061 105.714 98.2421 105.849 98.3948 105.929L107.763 110.777C108.026 110.912 108.386 110.978 108.767 110.978C109.234 110.978 109.73 110.877 110.109 110.682L119.109 106.023C119.433 105.855 119.627 105.639 119.627 105.444C119.627 105.249 119.445 105.115 119.292 105.035L109.925 100.188C109.663 100.052 109.304 99.9863 108.925 99.9863Z" fill="#9687BD"/>
<defs>
<linearGradient id="paint0_linear_435_91018" x1="72.4551" y1="103.461" x2="72.4551" y2="73.8743" gradientUnits="userSpaceOnUse">
<stop stop-color="#C5BAE3"/>
<stop offset="1" stop-color="#ECE9F6"/>
</linearGradient>
<linearGradient id="paint1_linear_435_91018" x1="72.4551" y1="79.5712" x2="72.4551" y2="49.9841" gradientUnits="userSpaceOnUse">
<stop stop-color="#C5BAE3"/>
<stop offset="1" stop-color="#ECE9F6"/>
</linearGradient>
<linearGradient id="paint2_linear_435_91018" x1="72.4551" y1="55.6811" x2="72.4551" y2="26.094" gradientUnits="userSpaceOnUse">
<stop stop-color="#C5BAE3"/>
<stop offset="1" stop-color="#ECE9F6"/>
</linearGradient>
</defs>
</svg>
