<svg width="186" height="232" viewBox="0 0 186 232" fill="none" xmlns="http://www.w3.org/2000/svg">
<mask id="mask0_435_88930" style="mask-type:luminance" maskUnits="userSpaceOnUse" x="0" y="169" width="67" height="63">
<path d="M66.3989 231.646H4.10075L0 229.279L42.2691 180.158L66.3989 169.523V231.646Z" fill="white"/>
</mask>
<g mask="url(#mask0_435_88930)">
<path d="M66.3989 231.646H4.10075L0 229.279L42.2691 180.158L66.3989 169.523V231.646Z" fill="url(#paint0_linear_435_88930)"/>
</g>
<path d="M125.379 74.4502L66.3989 159.439V231.646C72.7424 227.983 133.052 193.165 181.666 165.096V92.8903L125.379 74.4502Z" fill="#F5CB1D"/>
<path d="M66.3989 159.439L70.7347 161.272L129.505 160.247L178.905 99.6949L181.666 92.8902L125.379 74.4501L66.3989 159.439Z" fill="#EB9A1E"/>
<path d="M70.7347 161.272L68.5671 160.355L66.3989 159.439L78.9684 152.183V161.128L70.7347 161.272ZM170.35 110.181V99.422L181.666 92.8902L178.886 99.6628V99.7189L170.35 110.181Z" fill="#E28C19"/>
<path d="M66.3989 159.439V231.646L70.7347 225.772V161.272L66.3989 159.439Z" fill="#EB9A1E"/>
<path d="M66.3989 231.646L66.9013 231.355L70.9078 225.927L71.3765 225.403L178.562 163.519L178.847 163.537L181.439 165.226C181.374 165.264 181.311 165.301 181.245 165.339L181.033 165.461C181.022 165.469 181.005 165.477 180.993 165.485L180.939 165.515C180.912 165.531 180.883 165.549 180.856 165.563L66.3989 231.646Z" fill="#EEA91E"/>
<path d="M179.049 163.118L178.936 163.08L129.879 159.788L129.519 160.228L178.847 163.538L181.439 165.227L181.666 165.096V164.824L179.049 163.118Z" fill="#EB9A1E"/>
<path d="M70.5481 225.636L66.3989 231.259V231.646L66.9013 231.355L70.9078 225.927L129.477 160.247L128.846 160.257L70.5481 225.636Z" fill="#EB9A1E"/>
<mask id="mask1_435_88930" style="mask-type:luminance" maskUnits="userSpaceOnUse" x="63" y="0" width="123" height="162">
<path d="M66.3989 159.439L70.7347 161.272L129.505 160.247L178.905 99.6949L181.666 92.8902L186 0.473129L63.3167 65.1719L66.3989 159.439Z" fill="white"/>
</mask>
<g mask="url(#mask1_435_88930)">
<mask id="mask2_435_88930" style="mask-type:luminance" maskUnits="userSpaceOnUse" x="78" y="35" width="93" height="107">
<path d="M78.9685 141.327V87.7401V88.1915L170.35 35.431V89.1825L125.379 74.4497L78.9685 141.327Z" fill="white"/>
</mask>
<g mask="url(#mask2_435_88930)">
<path d="M78.851 141.514V87.5496H79.0516V87.9508H79.2522V87.7502H79.6534V87.5496H80.0546V87.3489H80.2552V87.1483H80.6564V86.9477H81.0577V86.7471H81.4589V86.5465H81.6595V86.3459H82.0607V86.1453H82.4619V85.9447H82.6625V85.7441H83.0638V85.5435H83.465V85.3428H83.8662V85.1422H84.0668V84.9416H84.468V84.741H84.8693V84.5404H85.2705V84.3398H85.4711V84.1392H85.8723V83.9386H86.2735V83.738H86.6747V83.5374H86.8754V83.3367H87.2766V83.1361H87.6778V82.9355H87.8784V82.7349H88.2796V82.5343H88.6808V82.3337H89.0821V82.1331H89.2827V81.9325H89.6839V81.7319H90.0851V81.5312H90.4863V81.3306H90.6869V81.13H91.0882V80.9294H91.4894V80.7288H91.8906V80.5282H92.0912V80.3276H92.4924V80.127H92.8937V79.9264H93.0943V79.7258H93.4955V79.5252H93.8967V79.3245H94.2979V79.1239H94.4985V78.9233H94.8998V78.7227H95.301V78.5221H95.7022V78.3215H95.9028V78.1209H96.304V77.9203H96.7052V77.7197H97.1065V77.5191H97.3071V77.3184H97.7083V77.1178H98.1095V76.9172H98.3101V76.7166H98.7114V76.516H99.1126V76.3154H99.5138V76.1148H99.7144V75.9142H100.116V75.7136H100.517V75.5129H100.918V75.3123H101.119V75.1117H101.52V74.9111H101.921V74.7105H102.122V74.5099H102.523V74.3093H102.924V74.1087H103.325V73.9081H103.526V73.7075H103.927V73.5069H104.328V73.3062H104.73V73.1056H104.93V72.905H105.331V72.7044H105.733V72.5038H106.134V72.3032H106.335V72.1026H106.736V71.902H107.137V71.7014H107.338V71.5007H107.739V71.3001H108.14V71.0995H108.541V70.8989H108.742V70.6983H109.143V70.4977H109.544V70.2971H109.946V70.0965H110.146V69.8959H110.547V69.6953H110.949V69.4946H111.35V69.294H111.55V69.0934H111.952V68.8928H112.353V68.6922H112.553V68.4916H112.955V68.291H113.356V68.0904H113.757V67.8898H113.958V67.6892H114.359V67.4885H114.76V67.2879H115.161V67.0873H115.362V66.8867H115.763V66.6861H116.164V66.4855H116.365V66.2849H116.766V66.0843H117.167V65.8837H117.569V65.6831H117.769V65.4824H118.171V65.2818H118.572V65.0812H118.973V64.8806H119.174V64.68H119.575V64.4794H119.976V64.2788H120.377V64.0782H120.578V63.8776H120.979V63.677H121.38V63.4763H121.581V63.2757H121.982V63.0751H122.383V62.8745H122.785V62.6739H122.985V62.4733H123.386V62.2727H123.788V62.0721H124.189V61.8715H124.389V61.6709H124.791V61.4702H125.192V61.2696H125.593V61.069H125.794V60.8684H126.195V60.6678H126.596V60.4672H126.797V60.2666H127.198V60.066H127.599V59.8654H128V59.6647H128.201V59.4641H128.602V59.2635H129.003V59.0629H129.405V58.8623H129.605V58.6617H130.007V58.4611H130.408V58.2605H130.809V58.0599H131.01V57.8593H131.411V57.6587H131.812V57.458H132.013V57.2574H132.414V57.0568H132.815V56.8562H133.216V56.6556H133.417V56.455H133.818V56.2544H134.219V56.0538H134.621V55.8532H134.821V55.6525H135.222V55.4519H135.624V55.2513H135.824V55.0507H136.225V54.8501H136.627V54.6495H137.028V54.4489H137.228V54.2483H137.63V54.0477H138.031V53.8471H138.432V53.6464H138.633V53.4458H139.034V53.2452H139.435V53.0446H139.836V52.844H140.037V52.6434H140.438V52.4428H140.839V52.2422H141.04V52.0416H141.441V51.841H141.843V51.6404H142.244V51.4397H142.444V51.2391H142.846V51.0385H143.247V50.8379H143.648V50.6373H143.849V50.4367H144.25V50.2361H144.651V50.0355H145.052V49.8349H145.253V49.6342H145.654V49.4336H146.055V49.233H146.256V49.0324H146.657V48.8318H147.058V48.6312H147.46V48.4306H147.66V48.23H148.061V48.0294H148.463V47.8288H148.864V47.6281H149.064V47.4275H149.466V47.2269H149.867V47.0263H150.068V46.8257H150.469V46.6251H150.87V46.4245H151.271V46.2239H151.472V46.0233H151.873V45.8227H152.274V45.622H152.675V45.4214H152.876V45.2208H153.277V45.0202H153.679V44.8196H154.08V44.619H154.28V44.4184H154.682V44.2178H155.083V44.0172H155.283V43.8166H155.685V43.6159H156.086V43.4153H156.487V43.2147H156.688V43.0141H157.089V42.8135H157.49V42.6129H157.891V42.4123H158.092V42.2117H158.493V42.0111H158.894V41.8105H159.296V41.6098H159.496V41.4092H159.897V41.2086H160.299V41.008H160.499V40.8074H160.9V40.6068H161.302V40.4062H161.703V40.2056H161.904V40.005H162.305V39.8044H162.706V39.6037H163.107V39.4031H163.308V39.2025H163.709V39.0019H164.11V38.8013H164.511V38.6007H164.712V38.4001H165.113V38.1995H165.515V37.9989H165.715V37.7982H166.116V37.5976H166.518V37.397H166.919V37.1964H167.119V36.9958H167.521V36.7952H167.922V36.5946H168.323V36.394H168.524V36.1934H168.925V35.9928H169.326V35.7921H169.527V35.5915H169.928V35.3909H170.53V89.355H170.129V89.1544H169.527V88.9538H168.925V88.7532H168.323V88.5526H167.721V88.352H167.119V88.1514H166.518V87.9508H165.916V87.7502H165.314V87.5496H164.712V87.3489H164.11V87.1483H163.508V86.9477H162.907V86.7471H162.305V86.5465H161.502V86.3459H160.9V86.1453H160.299V85.9447H159.697V85.7441H159.095V85.5435H158.493V85.3428H157.891V85.1422H157.289V84.9416H156.688V84.741H156.086V84.5404H155.484V84.3398H154.882V84.1392H154.28V83.9386H153.679V83.738H153.077V83.5374H152.475V83.3367H151.873V83.1361H151.271V82.9355H150.669V82.7349H149.867V82.5343H149.265V82.3337H148.663V82.1331H148.061V81.9325H147.46V81.7319H146.858V81.5312H146.256V81.3306H145.654V81.13H145.052V80.9294H144.45V80.7288H143.849V80.5282H143.247V80.3276H142.645V80.127H142.043V79.9264H141.441V79.7258H140.839V79.5252H140.238V79.3245H139.636V79.1239H139.034V78.9233H138.232V78.7227H137.63V78.5221H137.028V78.3215H136.426V78.1209H135.824V77.9203H135.222V77.7197H134.621V77.5191H134.019V77.3184H133.417V77.1178H132.815V76.9172H132.213V76.7166H131.611V76.516H131.01V76.3154H130.408V76.1148H129.806V75.9142H129.204V75.7136H128.602V75.5129H128V75.3123H127.399V75.1117H126.596V74.9111H125.994V74.7105H125.392V74.9111H125.192V75.1117H124.991V75.3123H124.791V75.7136H124.59V75.9142H124.389V76.3154H124.189V76.516H123.988V76.9172H123.788V77.1178H123.587V77.5191H123.386V77.7197H123.186V77.9203H122.985V78.3215H122.785V78.5221H122.584V78.9233H122.383V79.1239H122.183V79.5252H121.982V79.7258H121.782V79.9264H121.581V80.3276H121.38V80.5282H121.18V80.9294H120.979V81.13H120.778V81.5312H120.578V81.7319H120.377V82.1331H120.177V82.3337H119.976V82.5343H119.775V82.9355H119.575V83.1361H119.374V83.5374H119.174V83.738H118.973V84.1392H118.772V84.3398H118.572V84.741H118.371V84.9416H118.171V85.1422H117.97V85.5435H117.769V85.7441H117.569V86.1453H117.368V86.3459H117.167V86.7471H116.967V86.9477H116.766V87.3489H116.566V87.5496H116.365V87.7502H116.164V88.1514H115.964V88.352H115.763V88.7532H115.563V88.9538H115.362V89.355H115.161V89.5557H114.961V89.7563H114.76V90.1575H114.56V90.3581H114.359V90.7593H114.158V90.9599H113.958V91.3611H113.757V91.5618H113.556V91.963H113.356V92.1636H113.155V92.3642H112.955V92.7654H112.754V92.966H112.553V93.3672H112.353V93.5679H112.152V93.9691H111.952V94.1697H111.751V94.5709H111.55V94.7715H111.35V94.9721H111.149V95.3733H110.949V95.574H110.748V95.9752H110.547V96.1758H110.347V96.577H110.146V96.7776H109.946V96.9782H109.745V97.3794H109.544V97.5801H109.344V97.9813H109.143V98.1819H108.942V98.5831H108.742V98.7837H108.541V99.1849H108.341V99.3856H108.14V99.5862H107.939V99.9874H107.739V100.188H107.538V100.589H107.338V100.79H107.137V101.191H106.936V101.392H106.736V101.793H106.535V101.993H106.335V102.194H106.134V102.595H105.933V102.796H105.733V103.197H105.532V103.398H105.331V103.799H105.131V104H104.93V104.401H104.73V104.601H104.529V104.802H104.328V105.203H104.128V105.404H103.927V105.805H103.727V106.006H103.526V106.407H103.325V106.608H103.125V106.808H102.924V107.209H102.724V107.41H102.523V107.811H102.322V108.012H102.122V108.413H101.921V108.614H101.721V109.015H101.52V109.215H101.319V109.416H101.119V109.817H100.918V110.018H100.717V110.419H100.517V110.62H100.316V111.021H100.116V111.222H99.915V111.623H99.7144V111.823H99.5138V112.024H99.3132V112.425H99.1126V112.626H98.912V113.027H98.7114V113.228H98.5107V113.629H98.3101V113.829H98.1095V114.231H97.9089V114.431H97.7083V114.632H97.5077V115.033H97.3071V115.234H97.1065V115.635H96.9059V115.836H96.7052V116.237H96.5046V116.437H96.304V116.638H96.1034V117.039H95.9028V117.24H95.7022V117.641H95.5016V117.842H95.301V118.243H95.1004V118.444H94.8998V118.845H94.6991V119.045H94.4985V119.246H94.2979V119.647H94.0973V119.848H93.8967V120.249H93.6961V120.45H93.4955V120.851H93.2949V121.051H93.0943V121.453H92.8937V121.653H92.693V121.854H92.4924V122.255H92.2918V122.456H92.0912V122.857H91.8906V123.058H91.69V123.459H91.4894V123.659H91.2888V124.061H91.0882V124.261H90.8876V124.462H90.6869V124.863H90.4863V125.064H90.2857V125.465H90.0851V125.665H89.8845V126.067H89.6839V126.267H89.4833V126.468H89.2827V126.869H89.0821V127.07H88.8815V127.471H88.6808V127.672H88.4802V128.073H88.2796V128.273H88.079V128.675H87.8784V128.875H87.6778V129.076H87.4772V129.477H87.2766V129.678H87.076V130.079H86.8754V130.28H86.6747V130.681H86.4741V130.881H86.2735V131.283H86.0729V131.483H85.8723V131.684H85.6717V132.085H85.4711V132.286H85.2705V132.687H85.0699V132.887H84.8693V133.289H84.6686V133.489H84.468V133.89H84.2674V134.091H84.0668V134.292H83.8662V134.693H83.6656V134.894H83.465V135.295H83.2644V135.495H83.0638V135.897H82.8632V136.097H82.6625V136.298H82.4619V136.699H82.2613V136.9H82.0607V137.301H81.8601V137.501H81.6595V137.903H81.4589V138.103H81.2583V138.505H81.0577V138.705H80.8571V138.906H80.6564V139.307H80.4558V139.508H80.2552V139.909H80.0546V140.109H79.854V140.511H79.6534V140.711H79.4528V141.112H79.2522V141.313H79.0516V141.514" fill="url(#paint1_linear_435_88930)"/>
</g>
</g>
<mask id="mask3_435_88930" style="mask-type:luminance" maskUnits="userSpaceOnUse" x="63" y="0" width="123" height="162">
<path d="M66.3989 159.439L70.7347 161.272L129.505 160.247L178.905 99.6949L181.666 92.8902L186 0.473129L63.3167 65.1719L66.3989 159.439Z" fill="white"/>
</mask>
<g mask="url(#mask3_435_88930)">
<path d="M78.9685 152.183V141.328L125.379 74.4502L170.35 89.183V99.4222L78.9685 152.183Z" fill="#F4C4CF"/>
<path d="M78.9685 161.128V152.182L170.35 99.422V110.181L129.63 160.092L129.52 160.227L129.505 160.247H129.477L128.846 160.257L78.9685 161.128Z" fill="#EFBCCE"/>
<path d="M129.52 160.227L129.63 160.092L129.521 160.227" fill="#F4C4CF"/>
<path d="M128.846 160.257L129.477 160.247L128.846 160.259" fill="#F4C4CF"/>
<path d="M170.35 35.4313L78.9685 88.1917V79.415L170.35 26.6566V35.4313Z" fill="#A234EA"/>
<path d="M119.054 162.47V161.31L99.8602 172.392V173.551L119.054 162.47ZM100.746 168.436V167.276L86.3441 175.592V176.751L100.746 168.436ZM98.6658 173.082L86.315 180.212V181.371L98.6658 174.241V173.082ZM157.896 129.678L153.333 132.312V133.471L157.896 130.837V129.678ZM156.296 125.999V127.158L162.052 123.834V122.675L156.296 125.999ZM147.221 140.445L134.535 147.769V148.928L147.221 141.604V140.445ZM118.143 157.232V158.393L133.342 149.617V148.457L118.143 157.232ZM118.03 152.694L98.5883 163.92V165.08L118.03 153.853V152.694ZM97.3941 165.768V164.608L86.3948 170.958V172.119L97.3941 165.768ZM136.45 151.266V152.427L143.023 148.632V147.472L136.45 151.266ZM148.415 140.914L157.3 135.785V134.625L148.415 139.755V140.914ZM148.315 130.605V131.766L155.102 127.846V126.687L148.315 130.605ZM136.841 141.833V142.992L152.139 134.162V133L136.841 141.833ZM120.247 160.62V161.782L135.257 153.115V151.956L120.247 160.62ZM116.848 149.934V148.772L86.1982 166.468V167.629L116.848 149.934ZM135.647 142.523L128.859 146.441V147.602L135.647 143.683V142.523ZM116.949 159.081V157.922L101.94 166.586V167.748L116.949 159.081ZM133.24 139.309L118.042 148.084V149.243L133.24 140.469V139.309ZM119.224 152.004V153.165L127.667 148.291V147.131L119.224 152.004ZM134.434 138.619V139.779L147.12 132.454V131.295L134.434 138.619ZM94.6544 141.873L114.096 130.649V129.487L94.6544 140.714V141.873ZM115.291 129.959L123.733 125.086V123.924L115.291 128.799V129.959ZM124.927 124.396L131.714 120.478V119.316L124.927 123.236V124.396ZM132.908 119.788L148.206 110.955V109.795L132.908 118.628V119.788ZM149.4 109.105V110.265L157.849 105.388V104.229L149.4 109.105ZM86.3503 146.668L93.4609 142.563V141.404L86.3503 145.508V146.668ZM108.958 141.662L86.1308 154.84V156.002L108.958 142.822V141.662ZM147.224 116.127L156.867 110.558V109.398L147.224 114.965V116.127ZM107.776 138.9V137.74L86.2335 150.178V151.338L107.776 138.9ZM125.363 128.747L138.049 121.423V120.263L125.363 127.588V128.747ZM108.971 138.212L124.169 129.437V128.278L108.971 137.052V138.212ZM107.877 148.05V146.89L86.1818 159.416V160.576L107.877 148.05ZM144.262 121.28V122.44L158.366 114.297V113.138L144.262 121.28ZM139.242 120.735L146.03 116.815V115.655L139.242 119.573V120.735ZM118.594 137.259V136.099L110.152 140.972V142.134L118.594 137.259ZM119.788 136.569L126.576 132.651V131.491L119.788 135.409V136.569ZM124.269 138.585V137.426L109.071 146.2V147.362L124.269 138.585ZM127.769 130.801L143.068 121.969V123.128L127.769 131.961V130.801ZM119.054 117.064V115.904L99.8602 126.986V128.145L119.054 117.064ZM100.746 123.03V121.87L86.3441 130.186V131.345L100.746 123.03ZM108.624 127.688V126.528L104.744 128.769V129.929L108.624 127.688ZM98.6658 127.674L86.315 134.806V135.965L98.6658 128.833V127.674ZM103.55 129.457L86.2789 139.43V140.589L103.55 130.619V129.457ZM129.26 114.614L109.818 125.84V127L129.26 115.774V114.614ZM144.216 102.535L154.071 96.8461V95.6866L144.216 101.376V102.535ZM140.09 109.521L147.779 105.083V103.924L140.09 108.361V109.521ZM157.896 84.2699L153.333 86.9059V88.0654L157.896 85.4314V84.2699ZM138.897 109.051L130.454 113.926V115.086L138.897 110.211V109.051ZM147.221 95.0386L134.535 102.361V103.52L147.221 96.1982V95.0386ZM118.143 111.826V112.985L133.342 104.211V103.051L118.143 111.826ZM118.03 107.288L98.5883 118.512V119.672L118.03 108.447V107.288ZM97.3941 120.362V119.202L86.3948 125.551V126.713L97.3941 120.362ZM136.45 105.86V107.019L143.023 103.225V102.064L136.45 105.86ZM148.415 95.508L157.3 90.3785V89.2189L148.415 94.3485V95.508ZM136.841 96.4268V97.5864L152.139 88.7535V87.594L136.841 96.4268ZM120.247 115.214V116.373L135.257 107.709V106.55L120.247 115.214ZM135.647 97.1169L128.859 101.035V102.194L135.647 98.2765V97.1169ZM116.949 113.675V112.516L101.94 121.18V122.34L116.949 113.675ZM119.224 106.598V107.757L127.667 102.884V101.723L119.224 106.598ZM157.896 77.3749L153.333 80.0089V81.1684L157.896 78.5344V77.3749ZM156.296 73.6957V74.8552L160.485 72.4359V71.2763L156.296 73.6957ZM123.169 89.3774V88.2179L103.727 99.442V100.602L123.169 89.3774ZM154.478 65.5369V66.6964L162.623 61.9941V60.8346L154.478 65.5369ZM118.03 100.391L98.5883 111.617V112.777L118.03 101.55V100.391ZM97.3941 113.465V112.305L86.3948 118.656V119.816L97.3941 113.465ZM148.315 78.3037V79.4632L155.102 75.5433V74.3838L148.315 78.3037ZM136.841 89.5299V90.6914L152.139 81.8585V80.697L136.841 89.5299ZM107.877 93.6022V92.4427L86.1818 104.967V106.128L107.877 93.6022ZM153.284 66.225L139.343 74.2755V75.435L153.284 67.3865V66.225ZM102.533 101.292V100.132L86.2115 109.555V110.714L102.533 101.292ZM116.848 97.6305V96.469L86.1982 114.165V115.326L116.848 97.6305ZM157.278 68.524L141.98 77.3568V78.5164L157.278 69.6835V68.524ZM135.647 90.22L128.859 94.1379V95.2994L135.647 91.3795V90.22ZM133.24 87.0062L118.042 95.7809V96.9404L133.24 88.1657V87.0062ZM119.224 99.7028V100.862L127.667 95.9875V94.828L119.224 99.7028ZM134.434 86.3161V87.4756L147.12 80.1514V78.9918L134.434 86.3161ZM133.998 81.9648V83.1244L140.786 79.2065V78.045L133.998 81.9648ZM124.363 87.5278V88.6873L132.805 83.8145V82.653L124.363 87.5278ZM124.269 84.1375V82.9779L109.071 91.7526V92.9121L124.269 84.1375ZM125.463 82.2878V83.4494L138.149 76.1251V74.9636L125.463 82.2878ZM108.958 79.7842L86.1308 92.9623V94.1218L108.958 80.9438V79.7842ZM147.224 54.2466L156.867 48.6796V47.5201L147.224 53.087V54.2466ZM107.776 77.0218V75.8623L86.2335 88.3001V89.4597L107.776 77.0218ZM125.363 66.8689L138.049 59.5447V58.3852L125.363 65.7074V66.8689ZM108.971 76.3317L124.169 67.5571V66.3975L108.971 75.1722V76.3317ZM107.877 86.1716V85.0101L86.1818 97.5362V98.6958L107.877 86.1716ZM153.284 58.7944L139.343 66.8449V68.0044L153.284 59.9559V58.7944ZM144.262 59.4002V60.5618L158.366 52.417V51.2575L144.262 59.4002ZM139.242 58.8546L146.03 54.9366V53.7771L139.242 57.695V58.8546ZM118.594 75.3788V74.2193L110.152 79.0941V80.2536L118.594 75.3788ZM119.788 74.6907L126.576 70.7728V69.6113L119.788 73.5312V74.6907ZM124.269 76.7069V75.5473L109.071 84.322V85.4815L124.269 76.7069ZM125.463 74.8572V76.0188L138.149 68.6945V67.533L125.463 74.8572ZM127.769 68.9232L143.068 60.0904V61.2498L127.769 70.0827V68.9232Z" fill="#FFFFD7"/>
<path d="M152.675 43.2753V38.7595L157.191 36.1536V40.6693L152.675 43.2753Z" fill="#902FD4"/>
<path d="M158.272 40.0431V35.5294L162.787 32.9214V37.4372L158.272 40.0431Z" fill="#902FD4"/>
<path d="M161.541 36.9118L159.516 38.0813V36.0552L161.541 34.8856V36.9118ZM158.987 35.8305V38.9159L162.071 37.1345V34.0491L158.987 35.8305Z" fill="#FFFFD7"/>
<path d="M163.867 36.8137V32.298L168.383 29.6901V34.2058L163.867 36.8137Z" fill="#902FD4"/>
<path d="M164.607 32.986L165.813 33.4956L164.607 35.3974L164.995 35.5619L166.201 33.6601L167.406 34.1696L167.794 33.5578L166.589 33.0482L167.794 31.1465L167.406 30.9819L166.201 32.8837L164.995 32.3742L164.607 32.986Z" fill="#FFFFD7"/>
<path d="M156.405 40.4125L153.514 42.0815V41.5319L156.405 39.8628V40.4125Z" fill="#FFFFD7"/>
</g>
<defs>
<linearGradient id="paint0_linear_435_88930" x1="-0.189459" y1="-212.161" x2="886.2" y2="674.228" gradientUnits="userSpaceOnUse">
<stop stop-color="#370B63"/>
<stop offset="1" stop-color="#5B0D81"/>
</linearGradient>
<linearGradient id="paint1_linear_435_88930" x1="-0.189201" y1="-212.162" x2="886.201" y2="674.228" gradientUnits="userSpaceOnUse">
<stop stop-color="#A57AE7"/>
<stop offset="1" stop-color="#C77CF1"/>
</linearGradient>
</defs>
</svg>
