<svg width="173" height="145" viewBox="0 0 173 145" fill="none" xmlns="http://www.w3.org/2000/svg">
<path d="M59.1574 60.47C58.0407 60.47 56.9726 60.3067 56.1754 59.9732L32.2168 49.9671C31.3991 49.6249 30.9482 49.1419 30.9482 48.608C30.9482 47.9773 31.5823 47.3515 32.6879 46.8899L55.704 37.276C56.8 36.8174 58.2091 36.5827 59.5469 36.5827C60.6642 36.5827 61.7317 36.746 62.5295 37.0794L63.7554 37.5908L63.6593 38.0035L62.2592 37.4187C61.5363 37.1156 60.5659 36.9679 59.548 36.9679C58.3078 36.9679 56.9964 37.188 55.9743 37.6153L32.9582 47.2283C32.0237 47.6184 31.4889 48.121 31.4878 48.608C31.4878 48.9962 31.8431 49.3589 32.4877 49.6278L56.4463 59.6349C57.1691 59.9371 58.1389 60.0847 59.1574 60.0847C60.397 60.0847 61.7085 59.8657 62.7312 59.4384L66.5779 57.8318L67.1185 58.0577L63.0015 59.7777C61.9049 60.2353 60.4963 60.47 59.1574 60.47Z" fill="#9687BD"/>
<path d="M141.846 144.852C141.283 144.852 140.742 144.768 140.328 144.596L128.722 139.747C128.28 139.563 128.038 139.298 128.037 139.003C128.037 138.661 128.37 138.324 128.951 138.082L140.1 133.425C140.66 133.192 141.361 133.071 142.03 133.071C142.594 133.071 143.134 133.157 143.547 133.33L155.153 138.178C155.595 138.361 155.838 138.626 155.838 138.923C155.838 139.265 155.505 139.6 154.926 139.842L143.775 144.5C143.215 144.734 142.514 144.852 141.846 144.852ZM142.039 133.466C141.458 133.466 140.841 133.567 140.37 133.763L129.221 138.42C128.818 138.589 128.578 138.807 128.578 139.003C128.578 139.196 128.803 139.331 128.993 139.41L140.599 144.258C140.923 144.394 141.369 144.459 141.838 144.459C142.419 144.459 143.036 144.358 143.505 144.162L154.655 139.504C155.057 139.336 155.297 139.118 155.297 138.923C155.297 138.729 155.072 138.595 154.882 138.516L143.276 133.668C142.952 133.532 142.508 133.466 142.039 133.466Z" fill="#9687BD"/>
<mask id="mask0_435_90422" style="mask-type:luminance" maskUnits="userSpaceOnUse" x="72" y="0" width="101" height="43">
<path d="M172.78 42.6011C172.83 42.3468 172.743 42.0476 172.57 41.764L170.986 42.2706C170.755 41.944 170.407 41.6487 170.011 41.4834L73.6392 1.2293C73.3941 1.12761 73.1608 1.07773 72.9534 1.07773C72.8213 1.07773 72.7 1.0973 72.5928 1.13641L74.0309 0.539929L74.0283 0.545801C74.1555 0.485176 74.306 0.452913 74.4734 0.452913C74.6781 0.452913 74.9084 0.500829 75.1508 0.602523L171.523 40.8556C172.303 41.1813 172.896 42.0105 172.78 42.6011Z" fill="white"/>
</mask>
<g mask="url(#mask0_435_90422)">
<path d="M172.78 42.6011C172.83 42.3468 172.743 42.0476 172.57 41.764L170.986 42.2706C170.755 41.944 170.407 41.6487 170.011 41.4834L73.6392 1.2293C73.3941 1.12761 73.1608 1.07773 72.9534 1.07773C72.8213 1.07773 72.7 1.0973 72.5928 1.13641L74.0309 0.539929L74.0283 0.545801C74.1555 0.485176 74.306 0.452913 74.4734 0.452913C74.6781 0.452913 74.9084 0.500829 75.1508 0.602523L171.523 40.8556C172.303 41.1813 172.896 42.0105 172.78 42.6011Z" fill="url(#paint0_linear_435_90422)"/>
</g>
<mask id="mask1_435_90422" style="mask-type:luminance" maskUnits="userSpaceOnUse" x="158" y="41" width="15" height="55">
<path d="M158.732 95.9053C158.922 95.8104 159.056 95.6471 159.108 95.4232L171.263 43.2543C171.333 42.958 171.218 42.5982 170.987 42.2716V42.2706L172.571 41.7641C172.744 42.0477 172.83 42.3469 172.78 42.6011C172.78 42.6021 172.78 42.6031 172.78 42.6031C172.779 42.605 172.779 42.606 172.779 42.607C172.779 42.609 172.779 42.6099 172.778 42.6109C172.778 42.6119 172.778 42.6129 172.778 42.6138C172.778 42.6158 172.776 42.6177 172.776 42.6197C172.776 42.6226 172.775 42.6246 172.775 42.6266L160.62 94.7955C160.557 95.0683 160.371 95.2482 160.113 95.3274H160.115L158.732 95.9053Z" fill="white"/>
</mask>
<g mask="url(#mask1_435_90422)">
<path d="M158.732 95.9053C158.922 95.8104 159.056 95.6471 159.108 95.4232L171.263 43.2543C171.333 42.958 171.218 42.5982 170.987 42.2716V42.2706L172.571 41.7641C172.744 42.0477 172.83 42.3469 172.78 42.6011C172.78 42.6021 172.78 42.6031 172.78 42.6031C172.779 42.605 172.779 42.606 172.779 42.607C172.779 42.609 172.779 42.6099 172.778 42.6109C172.778 42.6119 172.778 42.6129 172.778 42.6138C172.778 42.6158 172.776 42.6177 172.776 42.6197C172.776 42.6226 172.775 42.6246 172.775 42.6266L160.62 94.7955C160.557 95.0683 160.371 95.2482 160.113 95.3274H160.115L158.732 95.9053Z" fill="url(#paint1_linear_435_90422)"/>
</g>
<path d="M61.2247 55.5953L157.596 95.8494C158.341 96.1604 158.978 95.9804 159.107 95.4231L171.262 43.2542C171.401 42.6616 170.803 41.8138 170.011 41.4833L73.6394 1.22925C72.8955 0.918299 72.2587 1.09823 72.1272 1.65559L59.9736 53.8245C59.8341 54.417 60.4328 55.2648 61.2247 55.5953Z" fill="#262864"/>
<path d="M63.4418 53.7178L74.8991 4.55862L167.794 43.3607L166.425 49.2041L121.762 30.5492C121.19 30.3106 120.459 30.1884 119.765 30.1884C119.191 30.1884 118.644 30.2725 118.233 30.4436L103.025 36.7955L102.411 36.5394L102.276 37.1084L95.4273 39.9686L94.0947 39.4112L93.8014 40.6482L91.6294 41.5556L89.9372 40.8467L89.5939 42.2919L89.7304 42.3486L63.5421 53.2866L63.4418 53.7178ZM82.3075 40.83L81.9642 42.2743L83.6929 42.9988L84.0361 41.5536L82.3075 40.83ZM103.098 33.6499L102.754 35.0951L104.483 35.8177L104.826 34.3735L103.098 33.6499ZM95.4679 33.6323L95.1246 35.0775L96.8533 35.8011L97.1966 34.3568L95.4679 33.6323ZM91.997 32.1792L91.6537 33.6245L93.3824 34.3471L93.7257 32.9028L91.997 32.1792ZM103.784 30.7604L103.441 32.2047L105.17 32.9292L105.513 31.484L103.784 30.7604ZM89.2114 27.8367L88.8681 29.2819L90.5968 30.0045L90.9401 28.5603L89.2114 27.8367ZM85.7405 26.3837L85.3972 27.8279L87.1259 28.5525L87.4692 27.1073L85.7405 26.3837Z" fill="#322F85"/>
<path d="M98.841 130.748C98.1044 130.748 97.33 130.617 96.7136 130.359L1.32206 90.5145C0.688027 90.2495 0.323639 89.8838 0.323639 89.5122C0.323639 89.1905 0.589225 88.903 1.06917 88.7026L57.9933 64.9258C58.4478 64.7361 59.0435 64.6432 59.6648 64.6432C60.4018 64.6432 61.1748 64.7742 61.7915 65.0314L157.184 104.876C157.818 105.141 158.181 105.506 158.181 105.879C158.181 106.2 157.918 106.487 157.437 106.689L100.513 130.464C100.059 130.655 99.4628 130.748 98.841 130.748ZM59.6559 65.0382C59.129 65.0382 58.6284 65.1125 58.2636 65.2651L1.34003 89.0409C1.1231 89.1318 0.864275 89.2873 0.864275 89.5122C0.864275 89.741 1.12932 89.9825 1.59292 90.1762L96.9853 130.021C97.5097 130.24 98.2017 130.352 98.8518 130.352C99.3776 130.352 99.8777 130.278 100.243 130.127L157.166 106.349C157.384 106.259 157.642 106.104 157.642 105.879C157.642 105.65 157.376 105.408 156.912 105.215L61.5207 65.3707C60.9953 65.1507 60.3059 65.0382 59.6559 65.0382Z" fill="#9687BD"/>
<mask id="mask2_435_90422" style="mask-type:luminance" maskUnits="userSpaceOnUse" x="0" y="60" width="158" height="65">
<path d="M0.644897 80.2944L5.90461 82.2813L58.6408 60.2538C59.5235 59.8852 61.0653 59.9311 62.0832 60.3575L153.04 98.3489C153.91 97.9969 157.879 96.6162 157.879 96.6162L155.954 100.245L155.946 100.241C155.866 100.402 155.696 100.552 155.408 100.672L99.8658 123.872C98.9832 124.241 97.4424 124.195 96.4233 123.769L3.34605 84.8911C2.92733 84.7171 2.67079 84.5049 2.56523 84.2907L2.5578 84.2946L0.644897 80.2944Z" fill="white"/>
</mask>
<g mask="url(#mask2_435_90422)">
<path d="M0.644897 80.2944L5.90461 82.2813L58.6408 60.2538C59.5235 59.8852 61.0653 59.9311 62.0832 60.3575L153.04 98.3489C153.91 97.9969 157.879 96.6162 157.879 96.6162L155.954 100.245L155.946 100.241C155.866 100.402 155.696 100.552 155.408 100.672L99.8658 123.872C98.9832 124.241 97.4424 124.195 96.4233 123.769L3.34605 84.8911C2.92733 84.7171 2.67079 84.5049 2.56523 84.2907L2.5578 84.2946L0.644897 80.2944Z" fill="url(#paint2_linear_435_90422)"/>
</g>
<mask id="mask3_435_90422" style="mask-type:luminance" maskUnits="userSpaceOnUse" x="0" y="55" width="158" height="67">
<path d="M1.45749 80.92L96.8504 120.763C97.8952 121.2 99.4739 121.248 100.378 120.87L157.302 97.0932C158.206 96.7158 158.092 96.0557 157.049 95.6196L61.6566 55.7752C60.6123 55.3391 59.0332 55.2922 58.1287 55.6696L1.20515 79.4464C0.300803 79.8239 0.413796 80.4839 1.45749 80.92Z" fill="white"/>
</mask>
<g mask="url(#mask3_435_90422)">
<path d="M1.45749 80.92L96.8504 120.763C97.8952 121.2 99.4739 121.248 100.378 120.87L157.302 97.0932C158.206 96.7158 158.092 96.0557 157.049 95.6196L61.6566 55.7752C60.6123 55.3391 59.0332 55.2922 58.1287 55.6696L1.20515 79.4464C0.300803 79.8239 0.413796 80.4839 1.45749 80.92Z" fill="url(#paint3_linear_435_90422)"/>
</g>
<path d="M1.45869 80.611L96.8505 120.455C97.894 120.891 99.474 120.938 100.378 120.561L157.302 96.7842C157.619 96.6512 157.806 96.4821 157.875 96.3021C157.976 96.5955 157.798 96.8859 157.302 97.0932L100.378 120.87C99.474 121.248 97.894 121.2 96.8505 120.763L1.45869 80.92C0.781276 80.6374 0.503118 80.2619 0.631925 79.9285C0.714777 80.171 0.986177 80.4135 1.45869 80.611Z" fill="white"/>
<path d="M125.623 112.146V111.389L125.488 111.315L121.799 112.856L121.664 113.043V113.798L121.799 113.873L125.488 112.331L125.623 112.146Z" fill="#262864"/>
<path d="M120.106 114.45V113.693L119.971 113.62L116.281 115.161L116.146 115.346V116.104L116.281 116.177L119.971 114.636L120.106 114.45Z" fill="#262864"/>
<path d="M142.461 94.8669L63.1911 61.7558C62.6621 61.5358 62.0111 61.5358 61.4832 61.7567L33.2544 73.5718C32.8495 73.7419 32.8495 74.1653 33.2555 74.3345L112.489 107.43C113.017 107.65 113.667 107.65 114.196 107.43L142.461 95.6296C142.867 95.4594 142.867 95.036 142.461 94.8669Z" fill="#B3ABDC"/>
<path d="M142.461 95.6295L142.178 95.7478L63.1911 62.756C62.6621 62.535 62.0111 62.535 61.4832 62.756L33.5385 74.4527L33.2555 74.3344C32.8495 74.1653 32.8495 73.7419 33.2544 73.5717L61.4832 61.7567C62.0111 61.5357 62.6621 61.5357 63.1911 61.7557L142.461 94.8668C142.867 95.0359 142.867 95.4593 142.461 95.6295Z" fill="#9491D0"/>
<path d="M59.3524 64.7488L128.21 93.5105L131.271 92.2315L62.4135 63.4698L59.3524 64.7488Z" fill="#262864"/>
<path d="M51.8458 67.8836L116.432 94.8608L119.493 93.5828L54.9079 66.6056L51.8458 67.8836Z" fill="#262864"/>
<path d="M46.9584 69.9263L123.001 101.689L126.063 100.409L50.0195 68.6473L46.9584 69.9263Z" fill="#262864"/>
<path d="M42.0692 71.968L118.112 103.731L121.174 102.452L45.1303 70.689L42.0692 71.968Z" fill="#262864"/>
<path d="M37.1799 74.0098L113.222 105.772L116.285 104.493L40.2409 72.7308L37.1799 74.0098Z" fill="#262864"/>
<path d="M132.37 95.2481L135.431 96.5271L138.494 95.2481L135.431 93.9691L132.37 95.2481Z" fill="#262864"/>
<path d="M121.572 97.0073L127.926 99.6621L130.987 98.3831L124.634 95.7293L121.572 97.0073Z" fill="#262864"/>
<mask id="mask4_435_90422" style="mask-type:luminance" maskUnits="userSpaceOnUse" x="38" y="86" width="41" height="18">
<path d="M60.1381 102.879L38.764 93.9515C37.9282 93.6024 37.9282 93.0363 38.764 92.6882L53.3801 86.5826C54.2154 86.2336 55.5701 86.2336 56.4054 86.5826L77.7794 95.5102C78.6147 95.8592 78.6147 96.4254 77.7794 96.7745L63.1633 102.879C62.328 103.228 60.9739 103.228 60.1381 102.879Z" fill="white"/>
</mask>
<g mask="url(#mask4_435_90422)">
<path d="M60.1381 102.879L38.764 93.9515C37.9282 93.6024 37.9282 93.0363 38.764 92.6882L53.3801 86.5826C54.2154 86.2336 55.5701 86.2336 56.4054 86.5826L77.7794 95.5102C78.6147 95.8592 78.6147 96.4254 77.7794 96.7745L63.1633 102.879C62.328 103.228 60.9739 103.228 60.1381 102.879Z" fill="url(#paint4_linear_435_90422)"/>
</g>
<path d="M77.7796 96.0273L56.4055 87.0998C55.5702 86.7507 54.2155 86.7507 53.3803 87.0998L38.7642 93.2044C38.5064 93.3129 38.3375 93.442 38.2393 93.5779C38.0181 93.2728 38.1865 92.9286 38.7642 92.6881L53.3803 86.5826C54.2155 86.2335 55.5702 86.2335 56.4055 86.5826L77.7796 95.5101C78.3567 95.7516 78.5256 96.0958 78.3053 96.4009C78.2067 96.265 78.0377 96.1349 77.7796 96.0273Z" fill="#9491D0"/>
<mask id="mask5_435_90422" style="mask-type:luminance" maskUnits="userSpaceOnUse" x="63" y="4" width="105" height="89">
<path d="M74.8991 4.55861L167.794 43.3607L156.275 92.4934L63.4418 53.7178L74.8991 4.55861Z" fill="white"/>
</mask>
<g mask="url(#mask5_435_90422)">
<mask id="mask6_435_90422" style="mask-type:luminance" maskUnits="userSpaceOnUse" x="63" y="30" width="104" height="63">
<path d="M156.275 92.4934L63.4418 53.7178L63.5421 53.2866L89.7304 42.3486L91.3226 43.0155L91.6659 41.5712L91.6294 41.5556L93.8014 40.6482L93.7514 40.8555L95.4801 41.5791L95.8234 40.1348L95.4274 39.9686L102.276 37.1084L102.068 37.9836L103.796 38.7072L104.14 37.2629L103.025 36.7955L118.233 30.4436C118.644 30.2725 119.191 30.1884 119.765 30.1884C120.459 30.1884 121.19 30.3106 121.762 30.5492L166.425 49.2041L165.841 51.6927L153.505 46.5405C153.088 46.3655 152.54 46.2785 151.993 46.2785C151.445 46.2785 150.898 46.3655 150.48 46.5405L135.864 52.6451C135.86 52.6471 135.857 52.649 135.853 52.65C135.851 52.651 135.849 52.6519 135.848 52.6529C135.845 52.6529 135.844 52.6539 135.841 52.6549C135.84 52.6558 135.837 52.6568 135.836 52.6578C135.834 52.6588 135.832 52.6588 135.83 52.6598C135.826 52.6617 135.824 52.6627 135.82 52.6646C135.818 52.6656 135.817 52.6666 135.814 52.6666C135.813 52.6676 135.81 52.6686 135.809 52.6695C135.806 52.6705 135.805 52.6715 135.802 52.6725C135.801 52.6735 135.799 52.6735 135.798 52.6744C135.794 52.6764 135.791 52.6774 135.787 52.6793C135.786 52.6803 135.786 52.6803 135.784 52.6803C135.78 52.6822 135.778 52.6842 135.774 52.6862C135.03 53.0372 135.06 53.573 135.864 53.9094L136.348 54.1118L136.058 55.3361L137.786 56.0597L138.077 54.8335L157.238 62.837C157.656 63.011 158.203 63.098 158.751 63.098C159.298 63.098 159.845 63.011 160.263 62.837L163.55 61.4641L162.126 67.5364L105.006 43.6784C105.001 43.6765 104.997 43.6745 104.993 43.6726C104.733 43.567 104.447 43.5142 104.159 43.5132C104.156 43.5132 104.155 43.5132 104.152 43.5132C104.151 43.5132 104.149 43.5132 104.148 43.5132C103.859 43.5132 103.571 43.567 103.311 43.6736C103.307 43.6755 103.302 43.6765 103.298 43.6784L88.6167 49.8241L87.8774 49.5151L87.7138 50.2015L75.0692 55.4945C74.867 55.5795 74.7656 55.7272 74.7656 55.8758C74.7656 56.0235 74.867 56.1721 75.0702 56.2572L154.304 89.3516C154.568 89.4621 154.862 89.5179 155.157 89.5179C155.451 89.5179 155.746 89.4621 156.01 89.3516L157.119 88.8891L156.275 92.4934ZM133.615 49.5493L133.272 50.9935L135.001 51.7181L135.344 50.2729L133.615 49.5493ZM134.302 46.6598L133.958 48.1051L135.687 48.8286L136.03 47.3834L134.302 46.6598ZM126.672 46.6432L126.33 48.0874L128.057 48.8111L128.401 47.3668L126.672 46.6432ZM123.201 45.1892L122.858 46.6344L124.587 47.358L124.93 45.9137L123.201 45.1892ZM85.0931 45.1726L84.7484 46.6168L86.4785 47.3404L86.8218 45.8961L85.0931 45.1726ZM134.988 43.7713L134.645 45.2156L136.374 45.9392L136.717 44.4939L134.988 43.7713ZM89.2506 43.7361L88.9073 45.1814L90.636 45.905L90.9793 44.4597L89.2506 43.7361ZM112.825 40.8985L112.482 42.3437L114.21 43.0673L114.554 41.6221L112.825 40.8985ZM105.195 40.8809L104.852 42.3261L106.582 43.0497L106.925 41.6054L105.195 40.8809ZM120.416 40.8467L120.072 42.2919L121.801 43.0155L122.144 41.5712L120.416 40.8467ZM116.945 39.3946L116.601 40.8388L118.33 41.5624L118.673 40.1172L116.945 39.3946ZM113.512 38.01L113.168 39.4542L114.898 40.1778L115.24 38.7336L113.512 38.01Z" fill="white"/>
</mask>
<g mask="url(#mask6_435_90422)">
<path d="M156.131 92.562V92.4642H155.861V92.3664H155.726V92.2687H155.455V92.1709H155.185V92.0731H154.915V91.9753H154.78V91.8775H154.509V91.7798H154.239V91.682H153.969V91.5842H153.834V91.4864H153.563V91.3886H153.293V91.2908H153.158V91.1931H152.887V91.0953H152.617V90.9975H152.347V90.8997H152.212V90.8019H151.941V90.7041H151.671V90.6064H151.401V90.5086H151.266V90.4108H150.995V90.313H150.725V90.2152H150.455V90.1175H150.319V90.0197H150.049V89.9219H149.779V89.8241H149.644V89.7263H149.373V89.6285H149.103V89.5308H148.833V89.433H148.698V89.3352H148.427V89.2374H148.157V89.1396H147.887V89.0418H147.751V88.9441H147.481V88.8463H147.211V88.7485H147.076V88.6507H146.805V88.5529H146.535V88.4551H146.265V88.3574H146.13V88.2596H145.859V88.1618H145.589V88.064H145.319V87.9662H145.183V87.8685H144.913V87.7707H144.643V87.6729H144.372V87.5751H144.237V87.4773H143.967V87.3795H143.697V87.2818H143.561V87.184H143.291V87.0862H143.021V86.9884H142.751V86.8906H142.615V86.7928H142.345V86.6951H142.075V86.5973H141.804V86.4995H141.669V86.4017H141.399V86.3039H141.129V86.2062H140.858V86.1084H140.723V86.0106H140.453V85.9128H140.183V85.815H140.047V85.7172H139.777V85.6195H139.507V85.5217H139.236V85.4239H139.101V85.3261H138.831V85.2283H138.561V85.1305H138.29V85.0328H138.155V84.935H137.885V84.8372H137.614V84.7394H137.344V84.6416H137.209V84.5438H136.939V84.4461H136.668V84.3483H136.533V84.2505H136.263V84.1527H135.993V84.0549H135.722V83.9572H135.587V83.8594H135.317V83.7616H135.046V83.6638H134.776V83.566H134.641V83.4682H134.371V83.3705H134.1V83.2727H133.965V83.1749H133.695V83.0771H133.425V82.9793H133.154V82.8815H133.019V82.7838H132.749V82.686H132.478V82.5882H132.208V82.4904H132.073V82.3926H131.803V82.2949H131.532V82.1971H131.262V82.0993H131.127V82.0015H130.857V81.9037H130.586V81.8059H130.451V81.7082H130.181V81.6104H129.91V81.5126H129.64V81.4148H129.505V81.317H129.235V81.2192H128.964V81.1215H128.694V81.0237H128.559V80.9259H128.289V80.8281H128.018V80.7303H127.748V80.6326H127.613V80.5348H127.342V80.437H127.072V80.3392H126.937V80.2414H126.667V80.1436H126.396V80.0459H126.126V79.9481H125.991V79.8503H125.72V79.7525H125.45V79.6547H125.18V79.5569H125.045V79.4592H124.774V79.3614H124.504V79.2636H124.234V79.1658H124.099V79.068H123.828V78.9702H123.558V78.8725H123.423V78.7747H123.152V78.6769H122.882V78.5791H122.612V78.4813H122.477V78.3836H122.206V78.2858H121.936V78.188H121.666V78.0902H121.531V77.9924H121.26V77.8946H120.99V77.7969H120.855V77.6991H120.584V77.6013H120.314V77.5035H120.044V77.4057H119.909V77.3079H119.638V77.2102H119.368V77.1124H119.098V77.0146H118.963V76.9168H118.692V76.819H118.422V76.7213H118.152V76.6235H118.016V76.5257H117.746V76.4279H117.476V76.3301H117.341V76.2323H117.07V76.1346H116.8V76.0368H116.53V75.939H116.395V75.8412H116.124V75.7434H115.854V75.6456H115.584V75.5479H115.448V75.4501H115.178V75.3523H114.908V75.2545H114.637V75.1567H114.502V75.059H114.232V74.9612H113.962V74.8634H113.827V74.7656H113.556V74.6678H113.286V74.57H113.016V74.4723H112.88V74.3745H112.61V74.2767H112.34V74.1789H112.069V74.0811H111.934V73.9833H111.664V73.8856H111.394V73.7878H111.123V73.69H110.988V73.5922H110.718V73.4944H110.448V73.3966H110.312V73.2989H110.042V73.2011H109.772V73.1033H109.501V73.0055H109.366V72.9077H109.096V72.81H108.826V72.7122H108.555V72.6144H108.42V72.5166H108.15V72.4188H107.88V72.321H107.744V72.2233H107.474V72.1255H107.204V72.0277H106.933V71.9299H106.798V71.8321H106.528V71.7343H106.258V71.6366H105.987V71.5388H105.852V71.441H105.582V71.3432H105.311V71.2454H105.041V71.1477H104.906V71.0499H104.636V70.9521H104.365V70.8543H104.23V70.7565H103.96V70.6587H103.69V70.561H103.419V70.4632H103.284V70.3654H103.014V70.2676H102.743V70.1698H102.473V70.072H102.338V69.9743H102.068V69.8765H101.797V69.7787H101.527V69.6809H101.392V69.5831H101.122V69.4854H100.851V69.3876H100.716V69.2898H100.446V69.192H100.175V69.0942H99.9051V68.9964H99.77V68.8987H99.4996V68.8009H99.2293V68.7031H98.959V68.6053H98.8239V68.5075H98.5535V68.4097H98.2832V68.312H98.1481V68.2142H97.8777V68.1164H97.6074V68.0186H97.3371V67.9208H97.2019V67.823H96.9316V67.7253H96.6613V67.6275H96.391V67.5297H96.2558V67.4319H95.9855V67.3341H95.7152V67.2364H95.4449V67.1386H95.3097V67.0408H95.0394V66.943H94.7691V66.8452H94.6339V66.7474H94.3636V66.6497H94.0933V66.5519H93.823V66.4541H93.6878V66.3563H93.4175V66.2585H93.1472V66.1607H92.8769V66.063H92.7417V65.9652H92.4714V65.8674H92.2011V65.7696H91.9307V65.6718H91.7956V65.5741H91.5253V65.4763H91.2549V65.3785H91.1198V65.2807H90.8495V65.1829H90.5792V65.0851H90.3088V64.9874H90.1737V64.8896H89.9034V64.7918H89.633V64.694H89.3627V64.5962H89.2276V64.4984H88.9572V64.4007H88.6869V64.3029H88.4166V64.2051H88.2814V64.1073H88.0111V64.0095H87.7408V63.9118H87.6057V63.814H87.3353V63.7162H87.065V63.6184H86.7947V63.5206H86.6595V63.4228H86.3892V63.3251H86.1189V63.2273H85.8486V63.1295H85.7134V63.0317H85.4431V62.9339H85.1728V62.8361H85.0376V62.7384H84.7673V62.6406H84.497V62.5428H84.2267V62.445H84.0915V62.3472H83.8212V62.2494H83.5509V62.1517H83.2806V62.0539H83.1454V61.9561H82.8751V61.8583H82.6048V61.7605H82.3344V61.6628H82.1993V61.565H81.929V61.4672H81.6587V61.3694H81.5235V61.2716H81.2532V61.1738H80.9829V61.0761H80.7125V60.9783H80.5774V60.8805H80.3071V60.7827H80.0367V60.6849H79.7664V60.5871H79.6313V60.4894H79.361V60.3916H79.0906V60.2938H78.8203V60.196H78.6852V60.0982H78.4148V60.0005H78.1445V59.9027H78.0094V59.8049H77.739V59.7071H77.4687V59.6093H77.1984V59.5115H77.0632V59.4138H76.7929V59.316H76.5226V59.2182H76.2523V59.1204H76.1171V59.0226H75.8468V58.9248H75.5765V58.8271H75.3062V58.7293H75.171V58.6315H74.9007V58.5337H74.6304V58.4359H74.4952V58.3381H74.2249V58.2404H73.9546V58.1426H73.6843V58.0448H73.5491V57.947H73.2788V57.8492H73.0085V57.7515H72.7382V57.6537H72.603V57.5559H72.3327V57.4581H72.0624V57.3603H71.9272V57.2625H71.6569V57.1648H71.3866V57.067H71.1163V56.9692H70.9811V56.8714H70.7108V56.7736H70.4405V56.6758H70.1701V56.5781H70.035V56.4803H69.7647V56.3825H69.4943V56.2847H69.224V56.1869H69.0889V56.0892H68.8185V55.9914H68.5482V55.8936H68.4131V55.7958H68.1428V55.698H67.8724V55.6002H67.6021V55.5025H67.467V55.4047H67.1966V55.3069H66.9263V55.2091H66.656V55.1113H66.5208V55.0135H66.2505V54.9158H65.9802V54.818H65.7099V54.7202H65.5747V54.6224H65.3044V54.5246H65.0341V54.4269H64.8989V54.3291H64.6286V54.2313H64.3583V54.1335H64.088V54.0357H63.9528V53.9379H63.6825V53.8402H63.4122V53.2535H63.5473V53.1557H63.8177V53.0579H64.088V52.9601H64.2231V52.8623H64.4935V52.7645H64.7638V52.6668H64.8989V52.569H65.1693V52.4712H65.4396V52.3734H65.7099V52.2756H65.845V52.1779H66.1154V52.0801H66.3857V51.9823H66.656V51.8845H66.7912V51.7867H67.0615V51.6889H67.3318V51.5912H67.467V51.4934H67.7373V51.3956H68.0076V51.2978H68.2779V51.2H68.4131V51.1022H68.6834V51.0045H68.9537V50.9067H69.224V50.8089H69.3592V50.7111H69.6295V50.6133H69.8998V50.5156H70.1701V50.4178H70.3053V50.32H70.5756V50.2222H70.8459V50.1244H70.9811V50.0266H71.2514V49.9289H71.5217V49.8311H71.792V49.7333H71.9272V49.6355H72.1975V49.5377H72.4678V49.4399H72.7382V49.3422H72.8733V49.2444H73.1436V49.1466H73.414V49.0488H73.6843V48.951H73.8194V48.8533H74.0897V48.7555H74.3601V48.6577H74.4952V48.5599H74.7655V48.4621H75.0359V48.3643H75.3062V48.2666H75.4413V48.1688H75.7117V48.071H75.982V47.9732H76.2523V47.8754H76.3875V47.7776H76.6578V47.6799H76.9281V47.5821H77.1984V47.4843H77.3336V47.3865H77.6039V47.2887H77.8742V47.1909H78.0094V47.0932H78.2797V46.9954H78.55V46.8976H78.8203V46.7998H78.9555V46.702H79.2258V46.6043H79.4961V46.5065H79.7664V46.4087H79.9016V46.3109H80.1719V46.2131H80.4422V46.1153H80.7125V46.0176H80.8477V45.9198H81.118V45.822H81.3883V45.7242H81.5235V45.6264H81.7938V45.5286H82.0641V45.4309H82.3344V45.3331H82.4696V45.2353H82.7399V45.1375H83.0102V45.0397H83.2806V44.942H83.4157V44.8442H83.686V44.7464H83.9564V44.6486H84.0915V44.5508H84.3618V44.453H84.6322V44.3553H84.9025V44.2575H85.0376V44.1597H85.3079V44.0619H85.5783V43.9641H85.8486V43.8663H85.9837V43.7686H86.2541V43.6708H86.5244V43.573H86.7947V43.4752H86.9299V43.3774H87.2002V43.2797H87.4705V43.1819H87.6057V43.0841H87.876V42.9863H88.1463V42.8885H88.4166V42.7907H88.5518V42.693H88.8221V42.5952H89.0924V42.4974H89.3627V42.3996H89.4979V42.3018H89.9034V42.3996H90.1737V42.4974H90.444V42.5952H90.5792V42.693H90.8495V42.7907H91.1198V42.8885H91.2549V42.693H91.3901V42.1063H91.5253V41.5196H91.6604V41.4218H91.9307V41.324H92.0659V41.2262H92.3362V41.1284H92.6065V41.0307H92.8769V40.9329H93.012V40.8351H93.2823V40.7373H93.5526V40.6395H93.823V40.8351H93.9581V40.9329H94.2284V41.0307H94.4988V41.1284H94.7691V41.2262H94.9042V41.324H95.1746V41.4218H95.4449V41.1284H95.58V40.5417H95.7152V40.1506H95.58V40.0528H95.3097V39.955H95.4449V39.8573H95.58V39.7595H95.8504V39.6617H96.1207V39.5639H96.391V39.4661H96.5261V39.3684H96.7965V39.2706H97.0668V39.1728H97.2019V39.075H97.4723V38.9772H97.7426V38.8794H98.0129V38.7817H98.1481V38.6839H98.4184V38.5861H98.6887V38.4883H98.959V38.3905H99.0942V38.2927H99.3645V38.195H99.6348V38.0972H99.9051V37.9994H100.04V37.9016H100.311V37.8038H100.581V37.7061H100.716V37.6083H100.986V37.5105H101.257V37.4127H101.527V37.3149H101.662V37.2171H101.933V37.1194H102.203V37.0216H102.338V37.5105H102.203V37.9994H102.473V38.0972H102.608V38.195H102.879V38.2927H103.149V38.3905H103.284V38.4883H103.554V38.5861H103.825V37.9994H103.96V37.4127H104.095V37.3149H103.96V37.2171H103.69V37.1194H103.554V37.0216H103.284V36.9238H103.014V36.7282H103.149V36.6304H103.419V36.5327H103.554V36.4349H103.825V36.3371H104.095V36.2393H104.23V36.1415H104.501V36.0437H104.771V35.946H105.041V35.8482H105.176V35.7504H105.447V35.6526H105.717V35.5548H105.987V35.4571H106.122V35.3593H106.393V35.2615H106.663V35.1637H106.798V35.0659H107.069V34.9681H107.339V34.8704H107.609V34.7726H107.744V34.6748H108.015V34.577H108.285V34.4792H108.555V34.3814H108.69V34.2837H108.961V34.1859H109.231V34.0881H109.501V33.9903H109.637V33.8925H109.907V33.7948H110.177V33.697H110.312V33.5992H110.583V33.5014H110.853V33.4036H111.123V33.3058H111.258V33.2081H111.529V33.1103H111.799V33.0125H112.069V32.9147H112.205V32.8169H112.475V32.7191H112.745V32.6214H113.016V32.5236H113.151V32.4258H113.421V32.328H113.691V32.2302H113.827V32.1324H114.097V32.0347H114.367V31.9369H114.637V31.8391H114.773V31.7413H115.043V31.6435H115.313V31.5458H115.584V31.448H115.719V31.3502H115.989V31.2524H116.259V31.1546H116.53V31.0568H116.665V30.9591H116.935V30.8613H117.205V30.7635H117.341V30.6657H117.611V30.5679H117.881V30.4701H118.152V30.3724H118.422V30.2746H118.827V30.1768H120.855V30.2746H121.26V30.3724H121.666V30.4701H121.936V30.5679H122.071V30.6657H122.342V30.7635H122.612V30.8613H122.747V30.9591H123.017V31.0568H123.288V31.1546H123.558V31.2524H123.693V31.3502H123.963V31.448H124.234V31.5458H124.504V31.6435H124.639V31.7413H124.91V31.8391H125.18V31.9369H125.45V32.0347H125.585V32.1324H125.856V32.2302H126.126V32.328H126.261V32.4258H126.531V32.5236H126.802V32.6214H127.072V32.7191H127.207V32.8169H127.478V32.9147H127.748V33.0125H128.018V33.1103H128.153V33.2081H128.424V33.3058H128.694V33.4036H128.964V33.5014H129.099V33.5992H129.37V33.697H129.64V33.7948H129.775V33.8925H130.046V33.9903H130.316V34.0881H130.586V34.1859H130.721V34.2837H130.992V34.3814H131.262V34.4792H131.532V34.577H131.667V34.6748H131.938V34.7726H132.208V34.8704H132.343V34.9681H132.614V35.0659H132.884V35.1637H133.154V35.2615H133.289V35.3593H133.56V35.4571H133.83V35.5548H134.1V35.6526H134.236V35.7504H134.506V35.8482H134.776V35.946H135.046V36.0437H135.182V36.1415H135.452V36.2393H135.722V36.3371H135.857V36.4349H136.128V36.5327H136.398V36.6304H136.668V36.7282H136.804V36.826H137.074V36.9238H137.344V37.0216H137.614V37.1194H137.75V37.2171H138.02V37.3149H138.29V37.4127H138.561V37.5105H138.696V37.6083H138.966V37.7061H139.236V37.8038H139.372V37.9016H139.642V37.9994H139.912V38.0972H140.183V38.195H140.318V38.2927H140.588V38.3905H140.858V38.4883H141.129V38.5861H141.264V38.6839H141.534V38.7817H141.804V38.8794H142.075V38.9772H142.21V39.075H142.48V39.1728H142.751V39.2706H142.886V39.3684H143.156V39.4661H143.426V39.5639H143.697V39.6617H143.832V39.7595H144.102V39.8573H144.372V39.955H144.643V40.0528H144.778V40.1506H145.048V40.2484H145.319V40.3462H145.454V40.444H145.724V40.5417H145.994V40.6395H146.265V40.7373H146.4V40.8351H146.67V40.9329H146.94V41.0307H147.211V41.1284H147.346V41.2262H147.616V41.324H147.887V41.4218H148.157V41.5196H148.292V41.6173H148.562V41.7151H148.833V41.8129H148.968V41.9107H149.238V42.0085H149.508V42.1063H149.779V42.204H149.914V42.3018H150.184V42.3996H150.455V42.4974H150.725V42.5952H150.86V42.693H151.13V42.7907H151.401V42.8885H151.671V42.9863H151.806V43.0841H152.077V43.1819H152.347V43.2797H152.482V43.3774H152.752V43.4752H153.023V43.573H153.293V43.6708H153.428V43.7686H153.698V43.8663H153.969V43.9641H154.239V44.0619H154.374V44.1597H154.645V44.2575H154.915V44.3553H155.05V44.453H155.32V44.5508H155.591V44.6486H155.861V44.7464H155.996V44.8442H156.266V44.942H156.537V45.0397H156.807V45.1375H156.942V45.2353H157.213V45.3331H157.483V45.4309H157.753V45.5286H157.888V45.6264H158.159V45.7242H158.429V45.822H158.564V45.9198H158.834V46.0176H159.105V46.1153H159.375V46.2131H159.51V46.3109H159.781V46.4087H160.051V46.5065H160.321V46.6043H160.456V46.702H160.727V46.7998H160.997V46.8976H161.267V46.9954H161.402V47.0932H161.673V47.1909H161.943V47.2887H162.078V47.3865H162.349V47.4843H162.619V47.5821H162.889V47.6799H163.024V47.7776H163.295V47.8754H163.565V47.9732H163.835V48.071H163.971V48.1688H164.241V48.2666H164.511V48.3643H164.781V48.4621H164.917V48.5599H165.187V48.6577H165.457V48.7555H165.592V48.8533H165.863V48.951H166.133V49.0488H166.403V49.1466H166.539V49.3422H166.403V49.9289H166.268V50.5156H166.133V51.1022H165.998V51.6889H165.863V51.7867H165.728V51.6889H165.592V51.5912H165.322V51.4934H165.052V51.3956H164.781V51.2978H164.646V51.2H164.376V51.1022H164.106V51.0045H163.835V50.9067H163.7V50.8089H163.43V50.7111H163.16V50.6133H162.889V50.5156H162.754V50.4178H162.484V50.32H162.213V50.2222H162.078V50.1244H161.808V50.0266H161.538V49.9289H161.267V49.8311H161.132V49.7333H160.862V49.6355H160.592V49.5377H160.321V49.4399H160.186V49.3422H159.916V49.2444H159.645V49.1466H159.51V49.0488H159.24V48.951H158.97V48.8533H158.699V48.7555H158.564V48.6577H158.294V48.5599H158.024V48.4621H157.753V48.3643H157.618V48.2666H157.348V48.1688H157.077V48.071H156.807V47.9732H156.672V47.8754H156.402V47.7776H156.131V47.6799H155.996V47.5821H155.726V47.4843H155.455V47.3865H155.185V47.2887H155.05V47.1909H154.78V47.0932H154.509V46.9954H154.239V46.8976H154.104V46.7998H153.834V46.702H153.563V46.6043H153.293V46.5065H153.023V46.4087H152.482V46.3109H151.536V46.4087H150.995V46.5065H150.59V46.6043H150.455V46.702H150.184V46.7998H149.914V46.8976H149.644V46.9954H149.508V47.0932H149.238V47.1909H148.968V47.2887H148.698V47.3865H148.562V47.4843H148.292V47.5821H148.022V47.6799H147.887V47.7776H147.616V47.8754H147.346V47.9732H147.076V48.071H146.94V48.1688H146.67V48.2666H146.4V48.3643H146.13V48.4621H145.994V48.5599H145.724V48.6577H145.454V48.7555H145.183V48.8533H145.048V48.951H144.778V49.0488H144.508V49.1466H144.372V49.2444H144.102V49.3422H143.832V49.4399H143.561V49.5377H143.426V49.6355H143.156V49.7333H142.886V49.8311H142.615V49.9289H142.48V50.0266H142.21V50.1244H141.94V50.2222H141.669V50.32H141.534V50.4178H141.264V50.5156H140.993V50.6133H140.858V50.7111H140.588V50.8089H140.318V50.9067H140.047V51.0045H139.912V51.1022H139.642V51.2H139.372V51.2978H139.101V51.3956H138.966V51.4934H138.696V51.5912H138.425V51.6889H138.155V51.7867H138.02V51.8845H137.75V51.9823H137.479V52.0801H137.344V52.1779H137.074V52.2756H136.804V52.3734H136.533V52.4712H136.398V52.569H136.128V52.6668H135.857V52.7645H135.722V52.8623H135.587V52.9601H135.452V53.1557H135.317V53.449H135.452V53.6446H135.587V53.7424H135.722V53.8402H135.993V53.9379H136.263V54.0357H136.398V54.5246H136.263V55.1113H136.128V55.3069H136.263V55.4047H136.533V55.5025H136.804V55.6002H136.939V55.698H137.209V55.7958H137.479V55.8936H137.75V55.6002H137.885V55.0135H138.02V54.818H138.29V54.9158H138.561V55.0135H138.831V55.1113H139.101V55.2091H139.236V55.3069H139.507V55.4047H139.777V55.5025H139.912V55.6002H140.183V55.698H140.453V55.7958H140.723V55.8936H140.858V55.9914H141.129V56.0892H141.399V56.1869H141.669V56.2847H141.804V56.3825H142.075V56.4803H142.345V56.5781H142.615V56.6758H142.751V56.7736H143.021V56.8714H143.291V56.9692H143.426V57.067H143.697V57.1648H143.967V57.2625H144.237V57.3603H144.372V57.4581H144.643V57.5559H144.913V57.6537H145.183V57.7515H145.319V57.8492H145.589V57.947H145.859V58.0448H146.13V58.1426H146.265V58.2404H146.535V58.3381H146.805V58.4359H146.94V58.5337H147.211V58.6315H147.481V58.7293H147.751V58.8271H147.887V58.9248H148.157V59.0226H148.427V59.1204H148.698V59.2182H148.833V59.316H149.103V59.4138H149.373V59.5115H149.644V59.6093H149.779V59.7071H150.049V59.8049H150.319V59.9027H150.455V60.0005H150.725V60.0982H150.995V60.196H151.266V60.2938H151.401V60.3916H151.671V60.4894H151.941V60.5871H152.212V60.6849H152.347V60.7827H152.617V60.8805H152.887V60.9783H153.023V61.0761H153.293V61.1738H153.563V61.2716H153.834V61.3694H153.969V61.4672H154.239V61.565H154.509V61.6628H154.78V61.7605H154.915V61.8583H155.185V61.9561H155.455V62.0539H155.726V62.1517H155.861V62.2494H156.131V62.3472H156.402V62.445H156.537V62.5428H156.807V62.6406H157.077V62.7384H157.348V62.8361H157.618V62.9339H158.024V63.0317H159.51V62.9339H159.916V62.8361H160.186V62.7384H160.456V62.6406H160.727V62.5428H160.862V62.445H161.132V62.3472H161.402V62.2494H161.538V62.1517H161.808V62.0539H162.078V61.9561H162.349V61.8583H162.484V61.7605H162.754V61.6628H163.024V61.565H163.295V61.4672H163.43V61.3694H163.565V62.0539H163.43V62.6406H163.295V63.1295H163.16V63.7162H163.024V64.3029H162.889V64.8896H162.754V65.4763H162.619V66.063H162.484V66.6497H162.349V67.2364H162.213V67.6275H162.078V67.5297H161.808V67.4319H161.538V67.3341H161.402V67.2364H161.132V67.1386H160.862V67.0408H160.592V66.943H160.456V66.8452H160.186V66.7474H159.916V66.6497H159.645V66.5519H159.51V66.4541H159.24V66.3563H158.97V66.2585H158.699V66.1607H158.564V66.063H158.294V65.9652H158.024V65.8674H157.888V65.7696H157.618V65.6718H157.348V65.5741H157.077V65.4763H156.942V65.3785H156.672V65.2807H156.402V65.1829H156.131V65.0851H155.996V64.9874H155.726V64.8896H155.455V64.7918H155.32V64.694H155.05V64.5962H154.78V64.4984H154.509V64.4007H154.374V64.3029H154.104V64.2051H153.834V64.1073H153.563V64.0095H153.428V63.9118H153.158V63.814H152.887V63.7162H152.617V63.6184H152.482V63.5206H152.212V63.4228H151.941V63.3251H151.806V63.2273H151.536V63.1295H151.266V63.0317H150.995V62.9339H150.86V62.8361H150.59V62.7384H150.319V62.6406H150.049V62.5428H149.914V62.445H149.644V62.3472H149.373V62.2494H149.103V62.1517H148.968V62.0539H148.698V61.9561H148.427V61.8583H148.292V61.7605H148.022V61.6628H147.751V61.565H147.481V61.4672H147.346V61.3694H147.076V61.2716H146.805V61.1738H146.535V61.0761H146.4V60.9783H146.13V60.8805H145.859V60.7827H145.589V60.6849H145.454V60.5871H145.183V60.4894H144.913V60.3916H144.778V60.2938H144.508V60.196H144.237V60.0982H143.967V60.0005H143.832V59.9027H143.561V59.8049H143.291V59.7071H143.021V59.6093H142.886V59.5115H142.615V59.4138H142.345V59.316H142.21V59.2182H141.94V59.1204H141.669V59.0226H141.399V58.9248H141.264V58.8271H140.993V58.7293H140.723V58.6315H140.453V58.5337H140.318V58.4359H140.047V58.3381H139.777V58.2404H139.507V58.1426H139.372V58.0448H139.101V57.947H138.831V57.8492H138.696V57.7515H138.425V57.6537H138.155V57.5559H137.885V57.4581H137.75V57.3603H137.479V57.2625H137.209V57.1648H136.939V57.067H136.804V56.9692H136.533V56.8714H136.263V56.7736H135.993V56.6758H135.857V56.5781H135.587V56.4803H135.317V56.3825H135.182V56.2847H134.911V56.1869H134.641V56.0892H134.371V55.9914H134.236V55.8936H133.965V55.7958H133.695V55.698H133.425V55.6002H133.289V55.5025H133.019V55.4047H132.749V55.3069H132.478V55.2091H132.343V55.1113H132.073V55.0135H131.803V54.9158H131.667V54.818H131.397V54.7202H131.127V54.6224H130.857V54.5246H130.721V54.4269H130.451V54.3291H130.181V54.2313H129.91V54.1335H129.775V54.0357H129.505V53.9379H129.235V53.8402H129.099V53.7424H128.829V53.6446H128.559V53.5468H128.289V53.449H128.153V53.3512H127.883V53.2535H127.613V53.1557H127.342V53.0579H127.207V52.9601H126.937V52.8623H126.667V52.7645H126.396V52.6668H126.261V52.569H125.991V52.4712H125.72V52.3734H125.585V52.2756H125.315V52.1779H125.045V52.0801H124.774V51.9823H124.639V51.8845H124.369V51.7867H124.099V51.6889H123.828V51.5912H123.693V51.4934H123.423V51.3956H123.152V51.2978H122.882V51.2H122.747V51.1022H122.477V51.0045H122.206V50.9067H122.071V50.8089H121.801V50.7111H121.531V50.6133H121.26V50.5156H121.125V50.4178H120.855V50.32H120.584V50.2222H120.314V50.1244H120.179V50.0266H119.909V49.9289H119.638V49.8311H119.368V49.7333H119.233V49.6355H118.963V49.5377H118.692V49.4399H118.557V49.3422H118.287V49.2444H118.016V49.1466H117.746V49.0488H117.611V48.951H117.341V48.8533H117.07V48.7555H116.8V48.6577H116.665V48.5599H116.395V48.4621H116.124V48.3643H115.989V48.2666H115.719V48.1688H115.448V48.071H115.178V47.9732H115.043V47.8754H114.773V47.7776H114.502V47.6799H114.232V47.5821H114.097V47.4843H113.827V47.3865H113.556V47.2887H113.286V47.1909H113.151V47.0932H112.88V46.9954H112.61V46.8976H112.475V46.7998H112.205V46.702H111.934V46.6043H111.664V46.5065H111.529V46.4087H111.258V46.3109H110.988V46.2131H110.718V46.1153H110.583V46.0176H110.312V45.9198H110.042V45.822H109.772V45.7242H109.637V45.6264H109.366V45.5286H109.096V45.4309H108.961V45.3331H108.69V45.2353H108.42V45.1375H108.15V45.0397H108.015V44.942H107.744V44.8442H107.474V44.7464H107.204V44.6486H107.069V44.5508H106.798V44.453H106.528V44.3553H106.393V44.2575H106.122V44.1597H105.852V44.0619H105.582V43.9641H105.447V43.8663H105.176V43.7686H104.906V43.6708H104.636V43.573H103.69V43.6708H103.419V43.7686H103.149V43.8663H102.879V43.9641H102.743V44.0619H102.473V44.1597H102.203V44.2575H101.933V44.3553H101.797V44.453H101.527V44.5508H101.257V44.6486H100.986V44.7464H100.851V44.8442H100.581V44.942H100.311V45.0397H100.175V45.1375H99.9051V45.2353H99.6348V45.3331H99.3645V45.4309H99.2293V45.5286H98.959V45.6264H98.6887V45.7242H98.4184V45.822H98.2832V45.9198H98.0129V46.0176H97.7426V46.1153H97.6074V46.2131H97.3371V46.3109H97.0668V46.4087H96.7965V46.5065H96.6613V46.6043H96.391V46.702H96.1207V46.7998H95.8504V46.8976H95.7152V46.9954H95.4449V47.0932H95.1746V47.1909H95.0394V47.2887H94.7691V47.3865H94.4988V47.4843H94.2284V47.5821H94.0933V47.6799H93.823V47.7776H93.5526V47.8754H93.2823V47.9732H93.1472V48.071H92.8769V48.1688H92.6065V48.2666H92.4714V48.3643H92.2011V48.4621H91.9307V48.5599H91.6604V48.6577H91.5253V48.7555H91.2549V48.8533H90.9846V48.951H90.7143V49.0488H90.5792V49.1466H90.3088V49.2444H90.0385V49.3422H89.7682V49.4399H89.633V49.5377H89.3627V49.6355H89.0924V49.7333H88.9572V49.8311H88.2814V49.7333H88.1463V49.6355H87.876V50.1244H87.7408V50.32H87.4705V50.4178H87.2002V50.5156H87.065V50.6133H86.7947V50.7111H86.5244V50.8089H86.3892V50.9067H86.1189V51.0045H85.8486V51.1022H85.5783V51.2H85.4431V51.2978H85.1728V51.3956H84.9025V51.4934H84.6322V51.5912H84.497V51.6889H84.2267V51.7867H83.9564V51.8845H83.8212V51.9823H83.5509V52.0801H83.2806V52.1779H83.0102V52.2756H82.8751V52.3734H82.6048V52.4712H82.3344V52.569H82.0641V52.6668H81.929V52.7645H81.6587V52.8623H81.3883V52.9601H81.2532V53.0579H80.9829V53.1557H80.7125V53.2535H80.4422V53.3512H80.3071V53.449H80.0367V53.5468H79.7664V53.6446H79.4961V53.7424H79.361V53.8402H79.0906V53.9379H78.8203V54.0357H78.6852V54.1335H78.4148V54.2313H78.1445V54.3291H77.8742V54.4269H77.739V54.5246H77.4687V54.6224H77.1984V54.7202H76.9281V54.818H76.7929V54.9158H76.5226V55.0135H76.2523V55.1113H76.1171V55.2091H75.8468V55.3069H75.5765V55.4047H75.3062V55.5025H75.171V55.6002H75.0359V55.698H74.9007V56.0892H75.0359V56.1869H75.171V56.2847H75.4413V56.3825H75.7117V56.4803H75.8468V56.5781H76.1171V56.6758H76.3875V56.7736H76.6578V56.8714H76.7929V56.9692H77.0632V57.067H77.3336V57.1648H77.6039V57.2625H77.739V57.3603H78.0094V57.4581H78.2797V57.5559H78.4148V57.6537H78.6852V57.7515H78.9555V57.8492H79.2258V57.947H79.361V58.0448H79.6313V58.1426H79.9016V58.2404H80.1719V58.3381H80.3071V58.4359H80.5774V58.5337H80.8477V58.6315H81.118V58.7293H81.2532V58.8271H81.5235V58.9248H81.7938V59.0226H81.929V59.1204H82.1993V59.2182H82.4696V59.316H82.7399V59.4138H82.8751V59.5115H83.1454V59.6093H83.4157V59.7071H83.686V59.8049H83.8212V59.9027H84.0915V60.0005H84.3618V60.0982H84.6322V60.196H84.7673V60.2938H85.0376V60.3916H85.3079V60.4894H85.4431V60.5871H85.7134V60.6849H85.9837V60.7827H86.2541V60.8805H86.3892V60.9783H86.6595V61.0761H86.9299V61.1738H87.2002V61.2716H87.3353V61.3694H87.6057V61.4672H87.876V61.565H88.1463V61.6628H88.2814V61.7605H88.5518V61.8583H88.8221V61.9561H88.9572V62.0539H89.2276V62.1517H89.4979V62.2494H89.7682V62.3472H89.9034V62.445H90.1737V62.5428H90.444V62.6406H90.7143V62.7384H90.8495V62.8361H91.1198V62.9339H91.3901V63.0317H91.5253V63.1295H91.7956V63.2273H92.0659V63.3251H92.3362V63.4228H92.4714V63.5206H92.7417V63.6184H93.012V63.7162H93.2823V63.814H93.4175V63.9118H93.6878V64.0095H93.9581V64.1073H94.2284V64.2051H94.3636V64.3029H94.6339V64.4007H94.9042V64.4984H95.0394V64.5962H95.3097V64.694H95.58V64.7918H95.8504V64.8896H95.9855V64.9874H96.2558V65.0851H96.5261V65.1829H96.7965V65.2807H96.9316V65.3785H97.2019V65.4763H97.4723V65.5741H97.7426V65.6718H97.8777V65.7696H98.1481V65.8674H98.4184V65.9652H98.5535V66.063H98.8239V66.1607H99.0942V66.2585H99.3645V66.3563H99.4996V66.4541H99.77V66.5519H100.04V66.6497H100.311V66.7474H100.446V66.8452H100.716V66.943H100.986V67.0408H101.257V67.1386H101.392V67.2364H101.662V67.3341H101.933V67.4319H102.068V67.5297H102.338V67.6275H102.608V67.7253H102.879V67.823H103.014V67.9208H103.284V68.0186H103.554V68.1164H103.825V68.2142H103.96V68.312H104.23V68.4097H104.501V68.5075H104.636V68.6053H104.906V68.7031H105.176V68.8009H105.447V68.8987H105.582V68.9964H105.852V69.0942H106.122V69.192H106.393V69.2898H106.528V69.3876H106.798V69.4854H107.069V69.5831H107.339V69.6809H107.474V69.7787H107.744V69.8765H108.015V69.9743H108.15V70.072H108.42V70.1698H108.69V70.2676H108.961V70.3654H109.096V70.4632H109.366V70.561H109.637V70.6587H109.907V70.7565H110.042V70.8543H110.312V70.9521H110.583V71.0499H110.853V71.1477H110.988V71.2454H111.258V71.3432H111.529V71.441H111.664V71.5388H111.934V71.6366H112.205V71.7343H112.475V71.8321H112.61V71.9299H112.88V72.0277H113.151V72.1255H113.421V72.2233H113.556V72.321H113.827V72.4188H114.097V72.5166H114.367V72.6144H114.502V72.7122H114.773V72.81H115.043V72.9077H115.178V73.0055H115.448V73.1033H115.719V73.2011H115.989V73.2989H116.124V73.3966H116.395V73.4944H116.665V73.5922H116.935V73.69H117.07V73.7878H117.341V73.8856H117.611V73.9833H117.746V74.0811H118.016V74.1789H118.287V74.2767H118.557V74.3745H118.692V74.4723H118.963V74.57H119.233V74.6678H119.503V74.7656H119.638V74.8634H119.909V74.9612H120.179V75.059H120.449V75.1567H120.584V75.2545H120.855V75.3523H121.125V75.4501H121.26V75.5479H121.531V75.6456H121.801V75.7434H122.071V75.8412H122.206V75.939H122.477V76.0368H122.747V76.1346H123.017V76.2323H123.152V76.3301H123.423V76.4279H123.693V76.5257H123.963V76.6235H124.099V76.7213H124.369V76.819H124.639V76.9168H124.774V77.0146H125.045V77.1124H125.315V77.2102H125.585V77.3079H125.72V77.4057H125.991V77.5035H126.261V77.6013H126.531V77.6991H126.667V77.7969H126.937V77.8946H127.207V77.9924H127.342V78.0902H127.613V78.188H127.883V78.2858H128.153V78.3836H128.289V78.4813H128.559V78.5791H128.829V78.6769H129.099V78.7747H129.235V78.8725H129.505V78.9702H129.775V79.068H130.046V79.1658H130.181V79.2636H130.451V79.3614H130.721V79.4592H130.857V79.5569H131.127V79.6547H131.397V79.7525H131.667V79.8503H131.803V79.9481H132.073V80.0459H132.343V80.1436H132.614V80.2414H132.749V80.3392H133.019V80.437H133.289V80.5348H133.56V80.6326H133.695V80.7303H133.965V80.8281H134.236V80.9259H134.371V81.0237H134.641V81.1215H134.911V81.2192H135.182V81.317H135.317V81.4148H135.587V81.5126H135.857V81.6104H136.128V81.7082H136.263V81.8059H136.533V81.9037H136.804V82.0015H137.074V82.0993H137.209V82.1971H137.479V82.2949H137.75V82.3926H137.885V82.4904H138.155V82.5882H138.425V82.686H138.696V82.7838H138.831V82.8815H139.101V82.9793H139.372V83.0771H139.642V83.1749H139.777V83.2727H140.047V83.3705H140.318V83.4682H140.453V83.566H140.723V83.6638H140.993V83.7616H141.264V83.8594H141.399V83.9572H141.669V84.0549H141.94V84.1527H142.21V84.2505H142.345V84.3483H142.615V84.4461H142.886V84.5438H143.156V84.6416H143.291V84.7394H143.561V84.8372H143.832V84.935H143.967V85.0328H144.237V85.1305H144.508V85.2283H144.778V85.3261H144.913V85.4239H145.183V85.5217H145.454V85.6195H145.724V85.7172H145.859V85.815H146.13V85.9128H146.4V86.0106H146.67V86.1084H146.805V86.2062H147.076V86.3039H147.346V86.4017H147.481V86.4995H147.751V86.5973H148.022V86.6951H148.292V86.7928H148.427V86.8906H148.698V86.9884H148.968V87.0862H149.238V87.184H149.373V87.2818H149.644V87.3795H149.914V87.4773H150.184V87.5751H150.319V87.6729H150.59V87.7707H150.86V87.8685H150.995V87.9662H151.266V88.064H151.536V88.1618H151.806V88.2596H151.941V88.3574H152.212V88.4551H152.482V88.5529H152.752V88.6507H152.887V88.7485H153.158V88.8463H153.428V88.9441H153.563V89.0418H153.834V89.1396H154.104V89.2374H154.374V89.3352H154.645V89.433H155.726V89.3352H155.996V89.2374H156.266V89.1396H156.402V89.0418H156.672V88.9441H156.942V88.8463H157.213V89.1396H157.077V89.7263H156.942V90.313H156.807V90.8019H156.672V91.3886H156.537V91.9753H156.402V92.562H156.131ZM134.776 51.4934V51.5912H134.911V51.4934H135.046V50.9067H135.182V50.2222H134.911V50.1244H134.641V50.0266H134.506V49.9289H134.236V49.8311H133.965V49.7333H133.695V49.8311H133.56V50.4178H133.425V51.0045H133.56V51.1022H133.83V51.2H134.1V51.2978H134.236V51.3956H134.506V51.4934H134.776ZM127.748 48.5599V48.6577H128.018V48.3643H128.153V47.7776H128.289V47.3865H128.153V47.2887H127.883V47.1909H127.748V47.0932H127.478V46.9954H127.207V46.8976H126.937V46.7998H126.802V46.702H126.667V47.2887H126.531V47.8754H126.396V48.071H126.531V48.1688H126.802V48.2666H127.072V48.3643H127.342V48.4621H127.478V48.5599H127.748ZM135.317 48.5599V48.6577H135.722V48.071H135.857V47.4843H135.993V47.3865H135.722V47.2887H135.452V47.1909H135.317V47.0932H135.046V46.9954H134.776V46.8976H134.506V46.7998H134.371V46.9954H134.236V47.5821H134.1V48.071H134.236V48.1688H134.371V48.2666H134.641V48.3643H134.911V48.4621H135.046V48.5599H135.317ZM86.2541 47.0932V47.1909H86.3892V47.0932H86.5244V46.5065H86.6595V45.9198H86.5244V45.822H86.3892V45.7242H86.1189V45.6264H85.8486V45.5286H85.5783V45.4309H85.4431V45.3331H85.1728V45.4309H85.0376V46.0176H84.9025V46.6043H85.0376V46.702H85.3079V46.7998H85.4431V46.8976H85.7134V46.9954H85.9837V47.0932H86.2541ZM124.234 47.0932V47.1909H124.504V47.0932H124.639V46.5065H124.774V45.9198H124.639V45.822H124.369V45.7242H124.234V45.6264H123.963V45.5286H123.693V45.4309H123.423V45.3331H123.288V45.4309H123.152V46.0176H123.017V46.6043H123.152V46.702H123.288V46.7998H123.558V46.8976H123.828V46.9954H123.963V47.0932H124.234ZM90.444 45.7242V45.822H90.5792V45.5286H90.7143V44.942H90.8495V44.453H90.7143V44.3553H90.444V44.2575H90.1737V44.1597H89.9034V44.0619H89.7682V43.9641H89.4979V43.8663H89.2276V44.453H89.0924V45.0397H88.9572V45.1375H89.0924V45.2353H89.3627V45.3331H89.633V45.4309H89.7682V45.5286H90.0385V45.6264H90.3088V45.7242H90.444ZM136.128 45.7242V45.822H136.398V45.2353H136.533V44.6486H136.668V44.5508H136.533V44.453H136.263V44.3553H136.128V44.2575H135.857V44.1597H135.587V44.0619H135.317V43.9641H135.182V43.8663H135.046V44.1597H134.911V44.7464H134.776V45.2353H135.046V45.3331H135.182V45.4309H135.452V45.5286H135.722V45.6264H135.993V45.7242H136.128ZM106.258 42.7907V42.8885H106.528V42.693H106.663V42.1063H106.798V41.6173H106.663V41.5196H106.393V41.4218H106.122V41.324H105.987V41.2262H105.717V41.1284H105.447V41.0307H105.176V41.6173H105.041V42.1063H104.906V42.3018H105.041V42.3996H105.311V42.4974H105.582V42.5952H105.852V42.693H105.987V42.7907H106.258ZM113.827 42.7907V42.8885H114.232V42.3996H114.367V41.8129H114.502V41.6173H114.232V41.5196H113.962V41.4218H113.827V41.324H113.556V41.2262H113.286V41.1284H113.016V41.0307H112.88V41.324H112.745V41.8129H112.61V42.3018H112.745V42.3996H112.88V42.4974H113.151V42.5952H113.421V42.693H113.556V42.7907H113.827ZM121.531 42.7907V42.8885H121.801V42.3996H121.936V41.8129H122.071V41.6173H121.936V41.5196H121.666V41.4218H121.531V41.324H121.26V41.2262H120.99V41.1284H120.855V41.0307H120.584V40.9329H120.449V41.324H120.314V41.9107H120.179V42.3018H120.449V42.3996H120.584V42.4974H120.855V42.5952H121.125V42.693H121.395V42.7907H121.531ZM118.016 41.324V41.4218H118.287V41.1284H118.422V40.5417H118.557V40.1506H118.422V40.0528H118.152V39.955H118.016V39.8573H117.746V39.7595H117.476V39.6617H117.341V39.5639H117.07V39.4661H116.935V40.0528H116.8V40.6395H116.665V40.8351H116.935V40.9329H117.07V41.0307H117.341V41.1284H117.611V41.2262H117.881V41.324H118.016ZM114.637 39.955V40.0528H114.908V39.5639H115.043V38.9772H115.178V38.7817H115.043V38.6839H114.773V38.5861H114.637V38.4883H114.367V38.3905H114.097V38.2927H113.827V38.195H113.691V38.0972H113.556V38.4883H113.421V38.9772H113.286V39.4661H113.556V39.5639H113.691V39.6617H113.962V39.7595H114.232V39.8573H114.367V39.955" fill="url(#paint5_linear_435_90422)"/>
</g>
</g>
<mask id="mask7_435_90422" style="mask-type:luminance" maskUnits="userSpaceOnUse" x="63" y="4" width="105" height="89">
<path d="M74.8991 4.55861L167.794 43.3607L156.275 92.4934L63.4418 53.7178L74.8991 4.55861Z" fill="white"/>
</mask>
<g mask="url(#mask7_435_90422)">
<mask id="mask8_435_90422" style="mask-type:luminance" maskUnits="userSpaceOnUse" x="135" y="46" width="31" height="18">
<path d="M158.751 63.0981C158.203 63.0981 157.656 63.0111 157.238 62.8371L138.077 54.8336L138.13 54.6155L136.401 53.8919L136.348 54.1119L135.864 53.9095C135.06 53.5732 135.03 53.0373 135.774 52.6863C135.27 52.9239 135.13 53.2475 135.34 53.536C135.439 53.3991 135.606 53.27 135.864 53.1625L150.48 47.0579C150.898 46.8829 151.446 46.7959 151.993 46.7959C152.54 46.7959 153.088 46.8829 153.505 47.0579L165.73 52.1641L163.55 61.4642L160.263 62.8371C159.846 63.0111 159.298 63.0981 158.751 63.0981ZM144.031 53.9095L143.687 55.3538L145.416 56.0774L145.759 54.6331L144.031 53.9095ZM144.717 51.0201L144.374 52.4643L146.103 53.1879L146.445 51.7437L144.717 51.0201Z" fill="white"/>
</mask>
<g mask="url(#mask8_435_90422)">
<path d="M157.888 63.1294V63.0316H157.483V62.9338H157.213V62.836H156.942V62.7383H156.672V62.6405H156.402V62.5427H156.266V62.4449H155.996V62.3471H155.726V62.2494H155.591V62.1516H155.32V62.0538H155.05V61.956H154.78V61.8582H154.645V61.7604H154.374V61.6627H154.104V61.5649H153.834V61.4671H153.698V61.3693H153.428V61.2715H153.158V61.1737H153.023V61.076H152.752V60.9782H152.482V60.8804H152.212V60.7826H152.077V60.6848H151.806V60.5871H151.536V60.4893H151.266V60.3915H151.13V60.2937H150.86V60.1959H150.59V60.0981H150.319V60.0004H150.184V59.9026H149.914V59.8048H149.644V59.707H149.508V59.6092H149.238V59.5114H148.968V59.4137H148.698V59.3159H148.562V59.2181H148.292V59.1203H148.022V59.0225H147.751V58.9247H147.616V58.827H147.346V58.7292H147.076V58.6314H146.805V58.5336H146.67V58.4358H146.4V58.3381H146.13V58.2403H145.994V58.1425H145.724V58.0447H145.454V57.9469H145.183V57.8491H145.048V57.7514H144.778V57.6536H144.508V57.5558H144.237V57.458H144.102V57.3602H143.832V57.2624H143.561V57.1647H143.291V57.0669H143.156V56.9691H142.886V56.8713H142.615V56.7735H142.48V56.6758H142.21V56.578H141.94V56.4802H141.669V56.3824H141.534V56.2846H141.264V56.1868H140.993V56.0891H140.723V55.9913H140.588V55.8935H140.318V55.7957H140.047V55.6979H139.912V55.6001H139.642V55.5024H139.372V55.4046H139.101V55.3068H138.966V55.209H138.696V55.1112H138.425V55.0135H138.155V54.9157H138.02V54.6223H137.885V54.5245H137.615V54.4268H137.344V54.329H137.209V54.2312H136.939V54.1334H136.668V54.0356H136.398V54.1334H136.128V54.0356H135.857V53.9378H135.587V53.8401H135.452V53.7423H135.317V53.5467H135.182V53.0578H135.317V52.8622H135.452V52.7645H135.587V52.6667H135.722V52.5689H135.857V52.7645H135.722V52.8622H135.587V52.96H135.452V53.1556H135.317V53.3511H135.452V53.2534H135.587V53.1556H135.857V53.0578H135.993V52.96H136.263V52.8622H136.533V52.7645H136.804V52.6667H136.939V52.5689H137.209V52.4711H137.479V52.3733H137.75V52.2755H137.885V52.1778H138.155V52.08H138.425V51.9822H138.561V51.8844H138.831V51.7866H139.101V51.6888H139.372V51.5911H139.507V51.4933H139.777V51.3955H140.047V51.2977H140.318V51.1999H140.453V51.1022H140.723V51.0044H140.993V50.9066H141.264V50.8088H141.399V50.711H141.669V50.6132H141.94V50.5155H142.075V50.4177H142.345V50.3199H142.615V50.2221H142.886V50.1243H143.021V50.0265H143.291V49.9288H143.561V49.831H143.832V49.7332H143.967V49.6354H144.237V49.5376H144.508V49.4399H144.778V49.3421H144.913V49.2443H145.183V49.1465H145.454V49.0487H145.589V48.9509H145.859V48.8532H146.13V48.7554H146.4V48.6576H146.535V48.5598H146.805V48.462H147.076V48.3642H147.346V48.2665H147.481V48.1687H147.751V48.0709H148.022V47.9731H148.157V47.8753H148.427V47.7775H148.698V47.6798H148.968V47.582H149.103V47.4842H149.373V47.3864H149.644V47.2886H149.914V47.1909H150.049V47.0931H150.319V46.9953H150.59V46.8975H150.995V46.7997H151.671V46.7019H152.347V46.7997H153.023V46.8975H153.428V46.9953H153.698V47.0931H153.834V47.1909H154.104V47.2886H154.374V47.3864H154.645V47.4842H154.78V47.582H155.05V47.6798H155.32V47.7775H155.591V47.8753H155.726V47.9731H155.996V48.0709H156.266V48.1687H156.402V48.2665H156.672V48.3642H156.942V48.462H157.213V48.5598H157.348V48.6576H157.618V48.7554H157.888V48.8532H158.159V48.9509H158.294V49.0487H158.564V49.1465H158.834V49.2443H159.105V49.3421H159.24V49.4399H159.51V49.5376H159.781V49.6354H159.916V49.7332H160.186V49.831H160.456V49.9288H160.727V50.0265H160.862V50.1243H161.132V50.2221H161.402V50.3199H161.673V50.4177H161.808V50.5155H162.078V50.6132H162.349V50.711H162.619V50.8088H162.754V50.9066H163.024V51.0044H163.295V51.1022H163.43V51.1999H163.7V51.2977H163.971V51.3955H164.241V51.4933H164.376V51.5911H164.646V51.6888H164.917V51.7866H165.187V51.8844H165.322V51.9822H165.592V52.08H165.863V52.1778H165.728V52.7645H165.592V53.3511H165.457V53.9378H165.322V54.5245H165.187V55.1112H165.052V55.6979H164.917V56.2846H164.781V56.8713H164.646V57.458H164.511V57.9469H164.376V58.5336H164.241V59.1203H164.106V59.707H163.971V60.2937H163.835V60.8804H163.7V61.4671H163.565V61.5649H163.43V61.6627H163.16V61.7604H162.889V61.8582H162.619V61.956H162.484V62.0538H162.213V62.1516H161.943V62.2494H161.673V62.3471H161.538V62.4449H161.267V62.5427H160.997V62.6405H160.862V62.7383H160.592V62.836H160.321V62.9338H160.051V63.0316H159.645V63.1294H157.888ZM145.048 55.7957V55.8935H145.454V55.3068H145.589V54.7201H145.724V54.6223H145.454V54.5245H145.183V54.4268H144.913V54.329H144.778V54.2312H144.508V54.1334H144.237V54.0356H144.102V54.2312H143.967V54.8179H143.832V55.4046H144.102V55.5024H144.372V55.6001H144.643V55.6979H144.778V55.7957H145.048ZM145.859 52.96V53.0578H146.13V52.4711H146.265V51.8844H146.4V51.7866H146.265V51.6888H145.994V51.5911H145.724V51.4933H145.589V51.3955H145.319V51.2977H145.048V51.1999H144.913V51.1022H144.778V51.3955H144.643V51.9822H144.508V52.4711H144.643V52.5689H144.913V52.6667H145.183V52.7645H145.454V52.8622H145.589V52.96" fill="url(#paint6_linear_435_90422)"/>
</g>
</g>
<mask id="mask9_435_90422" style="mask-type:luminance" maskUnits="userSpaceOnUse" x="63" y="4" width="105" height="89">
<path d="M74.8991 4.55861L167.794 43.3607L156.275 92.4934L63.4418 53.7178L74.8991 4.55861Z" fill="white"/>
</mask>
<g mask="url(#mask9_435_90422)">
<path d="M135.34 53.5359C135.13 53.2474 135.27 52.9238 135.774 52.6862C135.778 52.6842 135.781 52.6822 135.785 52.6803C135.786 52.6803 135.786 52.6803 135.787 52.6793C135.791 52.6774 135.794 52.6764 135.798 52.6744C135.799 52.6735 135.801 52.6735 135.802 52.6725C135.805 52.6715 135.806 52.6705 135.809 52.6695C135.81 52.6686 135.813 52.6676 135.814 52.6666C135.817 52.6666 135.818 52.6656 135.82 52.6647C135.824 52.6627 135.826 52.6617 135.831 52.6598C135.832 52.6588 135.835 52.6588 135.836 52.6578C135.837 52.6568 135.84 52.6558 135.841 52.6549C135.844 52.6539 135.845 52.6529 135.848 52.6529C135.849 52.652 135.851 52.651 135.853 52.65C135.858 52.649 135.86 52.6471 135.864 52.6451L150.48 46.5406C150.898 46.3655 151.445 46.2785 151.993 46.2785C152.54 46.2785 153.088 46.3655 153.505 46.5406L165.841 51.6927L165.73 52.164L153.505 47.0578C153.088 46.8828 152.54 46.7957 151.993 46.7957C151.445 46.7957 150.898 46.8828 150.48 47.0578L135.864 53.1624C135.606 53.2699 135.439 53.399 135.34 53.5359Z" fill="#3B3290"/>
<path d="M155.157 89.5181C154.863 89.5181 154.568 89.4623 154.305 89.3518L75.0708 56.2573L75.3544 56.3757L87.9144 51.1179L89.2633 51.6831L89.562 50.4285L103.298 44.6789C103.563 44.5684 103.858 44.5127 104.152 44.5127C104.212 44.5127 104.273 44.5156 104.332 44.5195L104.167 45.2158L105.896 45.9393L106.088 45.1297L111.304 47.3083L111.109 48.1218L112.839 48.8464L113.032 48.0309L125.141 53.0882L124.956 53.8656L126.686 54.5901L126.871 53.8108L135.558 57.4395L135.371 58.2257L137.1 58.9493L137.287 58.1621L142.502 60.3398L142.315 61.1328L144.043 61.8564L144.232 61.0624L161.913 68.4479L161.502 70.2002L103.412 45.9364L100.676 47.0785L161.014 72.2819L160.688 73.6695L132.576 61.9268L132.599 61.83L130.869 61.1064L130.846 61.2042L122.16 57.5755L122.184 57.4699L120.455 56.7472L120.431 56.8538L115.215 54.6752L115.241 54.5637L113.512 53.8402L113.485 53.9526L101.376 48.8953L101.394 48.82L99.6665 48.0964L99.6476 48.1727L98.8528 47.8402L96.1172 48.9833L160.2 75.7503L159.876 77.1378L117.864 59.5908L118.026 58.9063L116.298 58.1827L116.134 58.8681L94.2926 49.745L91.5583 50.8871L159.388 79.2196L158.799 81.7297L157.539 82.2558L158.574 82.6889L157.763 86.1436L154.859 84.9301L152.124 86.0732L156.393 87.8567L157.467 87.4079L157.12 88.8893L156.01 89.3518C155.747 89.4623 155.452 89.5181 155.157 89.5181ZM82.4581 54.6889L79.7224 55.831L148.781 84.6769L151.516 83.5338L82.4581 54.6889ZM89.7337 51.6498L86.998 52.7919L152.637 80.2092L155.372 79.0661L141.345 73.2079L141.64 71.969L139.911 71.2445L139.617 72.4853L120.513 64.5063L120.812 63.2488L119.082 62.5252L118.783 63.7837L110.147 60.1755L110.436 58.9581L108.707 58.2345L108.418 59.4538L89.7337 51.6498Z" fill="#3D3393"/>
<path d="M161.912 68.4478L144.232 61.0623L144.386 60.411L142.658 59.6874L142.502 60.3396L137.286 58.162L137.443 57.5049L135.714 56.7813L135.558 57.4394L126.871 53.8107L127.029 53.1448L125.299 52.4212L125.141 53.0881L113.032 48.0308L113.181 47.4011L111.453 46.6775L111.303 47.3082L106.088 45.1296L106.239 44.494L104.51 43.7714L104.332 44.5194C104.272 44.5155 104.212 44.5126 104.152 44.5126C103.858 44.5126 103.563 44.5683 103.298 44.6788L89.5617 50.4284L89.6063 50.2387L88.617 49.8241L103.298 43.6785C103.302 43.6765 103.307 43.6756 103.311 43.6736C103.571 43.567 103.859 43.5132 104.148 43.5132C104.149 43.5132 104.151 43.5132 104.152 43.5132C104.155 43.5132 104.156 43.5132 104.159 43.5132C104.447 43.5142 104.733 43.567 104.993 43.6726C104.997 43.6746 105.001 43.6765 105.006 43.6785L162.126 67.5364L161.912 68.4478ZM75.3541 56.3755L75.0705 56.2572C74.8673 56.1722 74.7659 56.0235 74.7659 55.8759C74.7659 55.7273 74.8672 55.5796 75.0694 55.4945L87.7141 50.2016L87.5344 50.9594L87.9142 51.1178L75.3541 56.3755Z" fill="#3B3290"/>
<path d="M148.78 84.6768L79.722 55.8309L82.4577 54.6888L151.516 83.5337L148.78 84.6768Z" fill="#312F82"/>
<path d="M152.637 80.209L86.998 52.7918L89.7336 51.6497L108.418 59.4537L108.364 59.6786L110.093 60.4022L110.147 60.1753L118.783 63.7835L118.739 63.9693L120.469 64.6938L120.513 64.5061L139.617 72.4851L139.568 72.6895L141.297 73.4131L141.345 73.2078L155.372 79.0659L152.637 80.209Z" fill="#312F82"/>
<path d="M158.574 82.6887L157.539 82.2556L158.798 81.7295L158.574 82.6887Z" fill="#312F82"/>
<path d="M156.393 87.8567L152.124 86.0731L154.859 84.9301L157.763 86.1436L157.467 87.4079L156.393 87.8567Z" fill="#312F82"/>
<path d="M159.388 79.2195L91.5582 50.887L94.2924 49.7449L116.134 58.868L115.954 59.6268L117.683 60.3514L117.864 59.5906L159.876 77.1377L159.388 79.2195Z" fill="#312F82"/>
<path d="M160.2 75.7502L96.1168 48.9833L98.8524 47.8402L99.6472 48.1727L99.3215 49.5406L101.051 50.2642L101.376 48.8953L113.485 53.9526L113.168 55.2853L114.899 56.0089L115.215 54.6752L120.431 56.8538L120.112 58.1914L121.84 58.915L122.159 57.5754L130.846 61.2041L130.527 62.5516L132.256 63.2742L132.576 61.9267L160.688 73.6694L160.2 75.7502Z" fill="#312F82"/>
<path d="M161.014 72.2817L100.676 47.0783L103.412 45.9362L161.502 70.1999L161.014 72.2817ZM135.028 59.6698L134.685 61.115L136.413 61.8386L136.757 60.3943L135.028 59.6698ZM121.142 53.8576L120.798 55.3018L122.527 56.0254L122.87 54.5812L121.142 53.8576ZM103.824 46.6598L103.481 48.105L105.209 48.8286L105.553 47.3834L103.824 46.6598Z" fill="#312F82"/>
</g>
<path d="M113.855 36.565L114.198 35.1207L115.927 35.8443L115.583 37.2886L113.855 36.565Z" fill="#76D1CB"/>
<mask id="mask10_435_90422" style="mask-type:luminance" maskUnits="userSpaceOnUse" x="113" y="38" width="3" height="3">
<path d="M114.898 40.178L113.168 39.4544L113.512 38.0101L115.24 38.7337L114.898 40.178Z" fill="white"/>
</mask>
<g mask="url(#mask10_435_90422)">
<path d="M114.898 40.178L113.168 39.4544L113.512 38.0101L115.24 38.7337L114.898 40.178Z" fill="url(#paint7_linear_435_90422)"/>
</g>
<mask id="mask11_435_90422" style="mask-type:luminance" maskUnits="userSpaceOnUse" x="112" y="40" width="3" height="4">
<path d="M114.21 43.0674L112.481 42.3438L112.824 40.8986L114.553 41.6222L114.21 43.0674Z" fill="white"/>
</mask>
<g mask="url(#mask11_435_90422)">
<path d="M114.21 43.0674L112.481 42.3438L112.824 40.8986L114.553 41.6222L114.21 43.0674Z" fill="url(#paint8_linear_435_90422)"/>
</g>
<path d="M111.796 45.2335L112.139 43.7882L113.867 44.5118L113.524 45.957L111.796 45.2335Z" fill="#76D1CB"/>
<path d="M112.838 48.8464L111.108 48.1219L111.303 47.3083L113.031 48.0309L112.838 48.8464Z" fill="#497AB7"/>
<path d="M113.032 48.031L111.303 47.3084L111.453 46.6777L113.181 47.4013L113.032 48.031Z" fill="#4778B5"/>
<path d="M110.423 51.0113L110.765 49.567L112.495 50.2906L112.152 51.7349L110.423 51.0113Z" fill="#76D1CB"/>
<path d="M109.736 53.9009L110.079 52.4557L111.808 53.1803L111.465 54.6245L109.736 53.9009Z" fill="#76D1CB"/>
<path d="M109.05 56.7903L109.393 55.3451L111.122 56.0687L110.779 57.5139L109.05 56.7903Z" fill="#76D1CB"/>
<path d="M110.146 60.1755L108.418 59.4539L108.707 58.2345L110.435 58.9582L110.146 60.1755Z" fill="#3F429D"/>
<path d="M110.092 60.4023L108.363 59.6787L108.417 59.4538L110.146 60.1755L110.092 60.4023Z" fill="#33378F"/>
<path d="M110.384 35.1118L110.727 33.6676L112.456 34.3912L112.112 35.8354L110.384 35.1118Z" fill="#76D1CB"/>
<path d="M109.698 38.0015L110.041 36.5563L111.77 37.2799L111.426 38.7251L109.698 38.0015Z" fill="#76D1CB"/>
<path d="M109.01 40.8899L109.354 39.4457L111.082 40.1693L110.739 41.6145L109.01 40.8899Z" fill="#76D1CB"/>
<path d="M108.324 43.7793L108.667 42.3351L110.396 43.0587L110.053 44.5029L108.324 43.7793Z" fill="#76D1CB"/>
<path d="M107.637 46.6687L107.981 45.2235L109.709 45.9481L109.366 47.3923L107.637 46.6687Z" fill="#76D1CB"/>
<path d="M106.951 49.5581L107.294 48.1139L109.023 48.8375L108.68 50.2817L106.951 49.5581Z" fill="#76D1CB"/>
<path d="M106.264 52.4478L106.608 51.0026L108.336 51.7262L107.993 53.1714L106.264 52.4478Z" fill="#76D1CB"/>
<path d="M105.579 55.3362L105.921 53.892L107.65 54.6156L107.306 56.0608L105.579 55.3362Z" fill="#76D1CB"/>
<path d="M104.891 58.2259L105.236 56.7816L106.963 57.5052L106.621 58.9495L104.891 58.2259Z" fill="#76D1CB"/>
<path d="M106.912 33.659L107.255 32.2138L108.984 32.9383L108.641 34.3826L106.912 33.659Z" fill="#76D1CB"/>
<path d="M106.226 36.5474L106.568 35.1031L108.297 35.8267L107.954 37.272L106.226 36.5474Z" fill="#76D1CB"/>
<path d="M105.54 39.4378L105.883 37.9925L107.61 38.7162L107.268 40.1604L105.54 39.4378Z" fill="#76D1CB"/>
<mask id="mask12_435_90422" style="mask-type:luminance" maskUnits="userSpaceOnUse" x="104" y="40" width="3" height="4">
<path d="M106.582 43.0498L104.852 42.3262L105.195 40.881L106.925 41.6056L106.582 43.0498Z" fill="white"/>
</mask>
<g mask="url(#mask12_435_90422)">
<path d="M106.582 43.0498L104.852 42.3262L105.195 40.881L106.925 41.6056L106.582 43.0498Z" fill="url(#paint9_linear_435_90422)"/>
</g>
<path d="M105.895 45.9392L104.167 45.2156L104.332 44.5194C104.565 44.538 104.795 44.5908 105.006 44.6778L106.087 45.1296L105.895 45.9392Z" fill="#497AB7"/>
<path d="M106.087 45.1296L105.006 44.6779C104.795 44.5909 104.565 44.5381 104.332 44.5195L104.51 43.7715L106.239 44.4941L106.087 45.1296Z" fill="#4778B5"/>
<path d="M105.208 48.8289L103.48 48.1053L103.823 46.66L105.552 47.3836L105.208 48.8289Z" fill="#416FAE"/>
<path d="M102.794 50.9937L103.137 49.5495L104.866 50.273L104.522 51.7183L102.794 50.9937Z" fill="#76D1CB"/>
<path d="M102.107 53.8833L102.45 52.4391L104.179 53.1627L103.835 54.6069L102.107 53.8833Z" fill="#76D1CB"/>
<path d="M101.42 56.7728L101.763 55.3275L103.492 56.0521L103.149 57.4963L101.42 56.7728Z" fill="#76D1CB"/>
<path d="M105.17 32.9294L103.441 32.2049L103.784 30.7606L105.513 31.4842L105.17 32.9294Z" fill="#4270AF"/>
<path d="M104.483 35.8179L102.754 35.0953L103.097 33.65L104.826 34.3736L104.483 35.8179Z" fill="#4270AF"/>
<path d="M102.276 37.1086L102.411 36.5396L103.025 36.7957L102.276 37.1086Z" fill="#343891"/>
<mask id="mask13_435_90422" style="mask-type:luminance" maskUnits="userSpaceOnUse" x="102" y="36" width="3" height="3">
<path d="M103.796 38.7073L102.068 37.9837L102.276 37.1085L103.025 36.7956L104.14 37.263L103.796 38.7073Z" fill="white"/>
</mask>
<g mask="url(#mask13_435_90422)">
<path d="M103.796 38.7073L102.068 37.9837L102.276 37.1085L103.025 36.7956L104.14 37.263L103.796 38.7073Z" fill="url(#paint10_linear_435_90422)"/>
</g>
<path d="M101.381 40.8733L101.724 39.4291L103.453 40.1517L103.11 41.5969L101.381 40.8733Z" fill="#76D1CB"/>
<path d="M100.694 43.7627L101.037 42.3175L102.766 43.0421L102.423 44.4863L100.694 43.7627Z" fill="#76D1CB"/>
<path d="M100.008 46.6512L100.351 45.2069L102.08 45.9305L101.737 47.3757L100.008 46.6512Z" fill="#76D1CB"/>
<path d="M101.375 48.8953L99.6467 48.1727L99.6656 48.0964L101.393 48.82L101.375 48.8953Z" fill="#497AB7"/>
<path d="M101.051 50.2644L99.321 49.5408L99.6467 48.1728L101.375 48.8954L101.051 50.2644Z" fill="#416FAE"/>
<path d="M98.6345 52.4302L98.9778 50.986L100.708 51.7096L100.365 53.1538L98.6345 52.4302Z" fill="#76D1CB"/>
<path d="M97.949 55.3196L98.2909 53.8754L100.021 54.598L99.6763 56.0432L97.949 55.3196Z" fill="#76D1CB"/>
<path d="M99.9699 30.7527L100.313 29.3075L102.041 30.0311L101.697 31.4753L99.9699 30.7527Z" fill="#76D1CB"/>
<path d="M99.2819 33.6414L99.6252 32.1971L101.355 32.9207L101.012 34.365L99.2819 33.6414Z" fill="#76D1CB"/>
<path d="M98.5964 36.5308L98.9384 35.0866L100.668 35.8102L100.325 37.2544L98.5964 36.5308Z" fill="#76D1CB"/>
<path d="M97.9104 39.4202L98.2537 37.975L99.981 38.6995L99.6391 40.1438L97.9104 39.4202Z" fill="#76D1CB"/>
<path d="M97.2234 42.3099L97.5667 40.8646L99.2953 41.5882L98.952 43.0334L97.2234 42.3099Z" fill="#76D1CB"/>
<path d="M96.5368 45.1981L96.8801 43.7538L98.6088 44.4774L98.2655 45.9216L96.5368 45.1981Z" fill="#76D1CB"/>
<path d="M95.8503 48.0877L96.1936 46.6434L97.9223 47.367L97.579 48.8113L95.8503 48.0877Z" fill="#76D1CB"/>
<path d="M95.1633 50.9771L95.5066 49.5319L97.2353 50.2555L96.8919 51.7007L95.1633 50.9771Z" fill="#76D1CB"/>
<path d="M94.4773 53.8655L94.8206 52.4213L96.5493 53.1449L96.206 54.5901L94.4773 53.8655Z" fill="#76D1CB"/>
<path d="M96.4977 29.2989L96.841 27.8546L98.5697 28.5782L98.2264 30.0225L96.4977 29.2989Z" fill="#76D1CB"/>
<path d="M95.8107 32.1883L96.154 30.7431L97.8827 31.4676L97.5394 32.9119L95.8107 32.1883Z" fill="#76D1CB"/>
<path d="M96.8534 35.8015L95.1247 35.0779L95.468 33.6327L97.1967 34.3573L96.8534 35.8015Z" fill="#4270AF"/>
<path d="M94.4377 37.9673L94.781 36.5221L96.5096 37.2457L96.1663 38.6909L94.4377 37.9673Z" fill="#76D1CB"/>
<path d="M93.8011 40.6484L94.0944 39.4115L95.4271 39.9688L93.8011 40.6484Z" fill="#343891"/>
<mask id="mask14_435_90422" style="mask-type:luminance" maskUnits="userSpaceOnUse" x="93" y="39" width="3" height="3">
<path d="M95.4798 41.5791L93.7512 40.8555L93.8012 40.6482L95.4271 39.9686L95.8232 40.1349L95.4798 41.5791Z" fill="white"/>
</mask>
<g mask="url(#mask14_435_90422)">
<path d="M95.4798 41.5791L93.7512 40.8555L93.8012 40.6482L95.4271 39.9686L95.8232 40.1349L95.4798 41.5791Z" fill="url(#paint11_linear_435_90422)"/>
</g>
<path d="M93.0646 43.7449L93.4079 42.3007L95.1366 43.0243L94.7947 44.4685L93.0646 43.7449Z" fill="#76D1CB"/>
<path d="M92.3781 46.6346L92.7214 45.1893L94.4514 45.9139L94.1068 47.3582L92.3781 46.6346Z" fill="#76D1CB"/>
<path d="M91.6926 49.523L92.0359 48.0788L93.7632 48.8023L93.4199 50.2476L91.6926 49.523Z" fill="#76D1CB"/>
<path d="M91.006 52.4136L91.3493 50.9684L93.078 51.692L92.7347 53.1362L91.006 52.4136Z" fill="#76D1CB"/>
<path d="M93.0255 27.8457L93.3689 26.4005L95.0989 27.1251L94.7556 28.5693L93.0255 27.8457Z" fill="#76D1CB"/>
<path d="M92.34 30.7351L92.6833 29.2909L94.4106 30.0135L94.0673 31.4587L92.34 30.7351Z" fill="#76D1CB"/>
<path d="M93.3822 34.3472L91.6535 33.6246L91.9968 32.1793L93.7255 32.9029L93.3822 34.3472Z" fill="#4270AF"/>
<path d="M90.9669 36.5132L91.3103 35.069L93.0389 35.7926L92.6956 37.2378L90.9669 36.5132Z" fill="#76D1CB"/>
<path d="M90.2805 39.4026L90.6237 37.9584L92.3524 38.682L92.0091 40.1262L90.2805 39.4026Z" fill="#76D1CB"/>
<path d="M89.7304 42.3486L89.5939 42.2919L89.9372 40.8467L91.6294 41.5556L89.7304 42.3486Z" fill="#343891"/>
<mask id="mask15_435_90422" style="mask-type:luminance" maskUnits="userSpaceOnUse" x="89" y="41" width="3" height="3">
<path d="M91.3227 43.0156L89.7305 42.3487L91.6295 41.5557L91.666 41.5714L91.3227 43.0156Z" fill="white"/>
</mask>
<g mask="url(#mask15_435_90422)">
<path d="M91.3227 43.0156L89.7305 42.3487L91.6295 41.5557L91.666 41.5714L91.3227 43.0156Z" fill="url(#paint12_linear_435_90422)"/>
</g>
<mask id="mask16_435_90422" style="mask-type:luminance" maskUnits="userSpaceOnUse" x="88" y="43" width="3" height="3">
<path d="M90.6353 45.905L88.9066 45.1814L89.2499 43.7362L90.9786 44.4598L90.6353 45.905Z" fill="white"/>
</mask>
<g mask="url(#mask16_435_90422)">
<path d="M90.6353 45.905L88.9066 45.1814L89.2499 43.7362L90.9786 44.4598L90.6353 45.905Z" fill="url(#paint13_linear_435_90422)"/>
</g>
<path d="M88.2204 48.0711L88.5637 46.6259L90.2924 47.3495L89.9491 48.7937L88.2204 48.0711Z" fill="#76D1CB"/>
<mask id="mask17_435_90422" style="mask-type:luminance" maskUnits="userSpaceOnUse" x="87" y="49" width="2" height="2">
<path d="M87.7135 50.2017L87.8771 49.5152L88.6164 49.8242L87.7135 50.2017Z" fill="white"/>
</mask>
<g mask="url(#mask17_435_90422)">
<path d="M87.7135 50.2017L87.8771 49.5152L88.6164 49.8242L87.7135 50.2017Z" fill="url(#paint14_linear_435_90422)"/>
</g>
<path d="M89.2629 51.6831L87.914 51.1179L89.5616 50.4286L89.2629 51.6831Z" fill="#3F429D"/>
<path d="M87.9137 51.1179L87.5339 50.9595L87.7136 50.2017L88.6165 49.8243L89.6059 50.2389L89.5613 50.4286L87.9137 51.1179Z" fill="#3C409A"/>
<path d="M89.5543 26.3926L89.8976 24.9484L91.6263 25.671L91.283 27.1162L89.5543 26.3926Z" fill="#76D1CB"/>
<path d="M90.5965 30.0046L88.8678 29.282L89.2111 27.8368L90.9398 28.5604L90.5965 30.0046Z" fill="#4270AF"/>
<path d="M88.1813 32.1704L88.5246 30.7262L90.2533 31.4498L89.91 32.895L88.1813 32.1704Z" fill="#76D1CB"/>
<path d="M87.4948 35.0601L87.8381 33.6158L89.5667 34.3394L89.2234 35.7837L87.4948 35.0601Z" fill="#76D1CB"/>
<path d="M86.8082 37.9495L87.1515 36.5043L88.8816 37.2289L88.5383 38.6731L86.8082 37.9495Z" fill="#76D1CB"/>
<path d="M86.1227 40.8392L86.4647 39.3949L88.1934 40.1175L87.8501 41.5627L86.1227 40.8392Z" fill="#76D1CB"/>
<path d="M85.4362 43.7286L85.7795 42.2833L87.5069 43.0069L87.1649 44.4512L85.4362 43.7286Z" fill="#76D1CB"/>
<mask id="mask18_435_90422" style="mask-type:luminance" maskUnits="userSpaceOnUse" x="84" y="45" width="3" height="3">
<path d="M86.4782 47.3406L84.7482 46.617L85.0929 45.1727L86.8215 45.8963L86.4782 47.3406Z" fill="white"/>
</mask>
<g mask="url(#mask18_435_90422)">
<path d="M86.4782 47.3406L84.7482 46.617L85.0929 45.1727L86.8215 45.8963L86.4782 47.3406Z" fill="url(#paint15_linear_435_90422)"/>
</g>
<path d="M84.0631 49.5064L84.4064 48.0621L86.1351 48.7857L85.7918 50.23L84.0631 49.5064Z" fill="#76D1CB"/>
<path d="M86.0836 24.9395L86.4269 23.4943L88.1543 24.2188L87.8123 25.6631L86.0836 24.9395Z" fill="#76D1CB"/>
<path d="M87.1258 28.5525L85.3971 27.8279L85.7404 26.3837L87.4691 27.1073L87.1258 28.5525Z" fill="#343891"/>
<path d="M84.7106 30.7176L85.0539 29.2733L86.7826 29.9969L86.4393 31.4412L84.7106 30.7176Z" fill="#76D1CB"/>
<path d="M84.0236 33.6072L84.3669 32.163L86.0955 32.8866L85.7522 34.3308L84.0236 33.6072Z" fill="#76D1CB"/>
<path d="M83.3375 36.4966L83.6808 35.0514L85.4095 35.775L85.0662 37.2202L83.3375 36.4966Z" fill="#76D1CB"/>
<path d="M82.6505 39.385L82.9939 37.9408L84.7225 38.6644L84.3792 40.1096L82.6505 39.385Z" fill="#76D1CB"/>
<path d="M83.6927 42.999L81.964 42.2745L82.3073 40.8302L84.036 41.5538L83.6927 42.999Z" fill="#4270AF"/>
<path d="M81.2775 45.1639L81.6208 43.7196L83.3494 44.4432L83.0061 45.8875L81.2775 45.1639Z" fill="#76D1CB"/>
<path d="M80.5905 48.0533L80.9338 46.608L82.6625 47.3326L82.3192 48.7769L80.5905 48.0533Z" fill="#76D1CB"/>
<path d="M145.059 49.576L145.402 48.1308L147.131 48.8543L146.788 50.2986L145.059 49.576Z" fill="#76D1CB"/>
<mask id="mask19_435_90422" style="mask-type:luminance" maskUnits="userSpaceOnUse" x="144" y="51" width="3" height="3">
<path d="M146.103 53.188L144.374 52.4644L144.717 51.0201L146.445 51.7437L146.103 53.188Z" fill="white"/>
</mask>
<g mask="url(#mask19_435_90422)">
<path d="M146.103 53.188L144.374 52.4644L144.717 51.0201L146.445 51.7437L146.103 53.188Z" fill="url(#paint16_linear_435_90422)"/>
</g>
<mask id="mask20_435_90422" style="mask-type:luminance" maskUnits="userSpaceOnUse" x="143" y="53" width="3" height="4">
<path d="M145.416 56.0776L143.687 55.3541L144.03 53.9098L145.759 54.6334L145.416 56.0776Z" fill="white"/>
</mask>
<g mask="url(#mask20_435_90422)">
<path d="M145.416 56.0776L143.687 55.3541L144.03 53.9098L145.759 54.6334L145.416 56.0776Z" fill="url(#paint17_linear_435_90422)"/>
</g>
<path d="M143 58.2435L143.342 56.7982L145.072 57.5228L144.729 58.967L143 58.2435Z" fill="#76D1CB"/>
<path d="M144.043 61.8564L142.314 61.1329L142.502 60.3398L144.232 61.0625L144.043 61.8564Z" fill="#497AB7"/>
<path d="M144.232 61.0625L142.502 60.3399L142.657 59.6877L144.386 60.4113L144.232 61.0625Z" fill="#4778B5"/>
<path d="M141.627 64.0213L141.971 62.577L143.699 63.3006L143.356 64.7449L141.627 64.0213Z" fill="#76D1CB"/>
<path d="M140.941 66.9107L141.284 65.4664L143.013 66.19L142.67 67.6343L140.941 66.9107Z" fill="#76D1CB"/>
<path d="M140.254 69.8001L140.597 68.3558L142.326 69.0785L141.982 70.5237L140.254 69.8001Z" fill="#76D1CB"/>
<path d="M141.345 73.208L139.616 72.4854L139.911 71.2445L141.64 71.9691L141.345 73.208Z" fill="#3F429D"/>
<path d="M141.296 73.4133L139.567 72.6897L139.616 72.4854L141.345 73.208L141.296 73.4133Z" fill="#33378F"/>
<path d="M141.588 48.1219L141.932 46.6776L143.66 47.4012L143.317 48.8464L141.588 48.1219Z" fill="#76D1CB"/>
<path d="M140.901 51.0113L141.245 49.567L142.973 50.2906L142.63 51.7349L140.901 51.0113Z" fill="#76D1CB"/>
<path d="M140.215 53.9009L140.558 52.4557L142.287 53.1803L141.943 54.6245L140.215 53.9009Z" fill="#76D1CB"/>
<path d="M139.528 56.7903L139.871 55.3451L141.6 56.0687L141.258 57.5139L139.528 56.7903Z" fill="#76D1CB"/>
<path d="M138.842 59.6787L139.185 58.2345L140.914 58.9581L140.57 60.4023L138.842 59.6787Z" fill="#76D1CB"/>
<path d="M138.156 62.5682L138.498 61.1239L140.227 61.8475L139.883 63.2917L138.156 62.5682Z" fill="#76D1CB"/>
<path d="M137.468 65.4578L137.813 64.0126L139.54 64.7371L139.198 66.1814L137.468 65.4578Z" fill="#76D1CB"/>
<path d="M136.782 68.3472L137.125 66.902L138.855 67.6266L138.512 69.0708L136.782 68.3472Z" fill="#76D1CB"/>
<path d="M136.097 71.2366L136.44 69.7914L138.169 70.515L137.824 71.9602L136.097 71.2366Z" fill="#76D1CB"/>
<path d="M138.117 46.6687L138.46 45.2235L140.188 45.9481L139.846 47.3923L138.117 46.6687Z" fill="#76D1CB"/>
<path d="M137.43 49.5581L137.773 48.1139L139.503 48.8375L139.16 50.2817L137.43 49.5581Z" fill="#76D1CB"/>
<path d="M136.744 52.4478L137.087 51.0026L138.816 51.7262L138.473 53.1714L136.744 52.4478Z" fill="#76D1CB"/>
<mask id="mask21_435_90422" style="mask-type:luminance" maskUnits="userSpaceOnUse" x="136" y="54" width="3" height="3">
<path d="M137.786 56.0598L136.057 55.3362L136.348 54.112L138.077 54.8336L137.786 56.0598Z" fill="white"/>
</mask>
<g mask="url(#mask21_435_90422)">
<path d="M137.786 56.0598L136.057 55.3362L136.348 54.112L138.077 54.8336L137.786 56.0598Z" fill="url(#paint18_linear_435_90422)"/>
</g>
<mask id="mask22_435_90422" style="mask-type:luminance" maskUnits="userSpaceOnUse" x="136" y="53" width="3" height="2">
<path d="M138.077 54.8337L136.348 54.1121L136.401 53.8921L138.129 54.6157L138.077 54.8337Z" fill="white"/>
</mask>
<g mask="url(#mask22_435_90422)">
<path d="M138.077 54.8337L136.348 54.1121L136.401 53.8921L138.129 54.6157L138.077 54.8337Z" fill="url(#paint19_linear_435_90422)"/>
</g>
<path d="M137.099 58.9495L135.37 58.2259L135.557 57.4397L137.286 58.1623L137.099 58.9495Z" fill="#497AB7"/>
<path d="M137.286 58.1621L135.558 57.4395L135.714 56.7814L137.443 57.505L137.286 58.1621Z" fill="#4778B5"/>
<path d="M136.413 61.8389L134.684 61.1153L135.028 59.6701L136.756 60.3946L136.413 61.8389Z" fill="#416FAE"/>
<path d="M133.997 64.0047L134.341 62.5594L136.069 63.283L135.726 64.7283L133.997 64.0047Z" fill="#76D1CB"/>
<path d="M133.311 66.8941L133.654 65.4489L135.383 66.1725L135.04 67.6167L133.311 66.8941Z" fill="#76D1CB"/>
<path d="M132.624 69.7828L132.968 68.3385L134.696 69.0621L134.353 70.5063L132.624 69.7828Z" fill="#76D1CB"/>
<mask id="mask23_435_90422" style="mask-type:luminance" maskUnits="userSpaceOnUse" x="134" y="43" width="3" height="3">
<path d="M136.374 45.9392L134.645 45.2156L134.988 43.7714L136.717 44.494L136.374 45.9392Z" fill="white"/>
</mask>
<g mask="url(#mask23_435_90422)">
<path d="M136.374 45.9392L134.645 45.2156L134.988 43.7714L136.717 44.494L136.374 45.9392Z" fill="url(#paint20_linear_435_90422)"/>
</g>
<mask id="mask24_435_90422" style="mask-type:luminance" maskUnits="userSpaceOnUse" x="133" y="46" width="4" height="3">
<path d="M135.687 48.8289L133.958 48.1053L134.302 46.66L136.03 47.3836L135.687 48.8289Z" fill="white"/>
</mask>
<g mask="url(#mask24_435_90422)">
<path d="M135.687 48.8289L133.958 48.1053L134.302 46.66L136.03 47.3836L135.687 48.8289Z" fill="url(#paint21_linear_435_90422)"/>
</g>
<mask id="mask25_435_90422" style="mask-type:luminance" maskUnits="userSpaceOnUse" x="133" y="49" width="3" height="3">
<path d="M135 51.7183L133.272 50.9937L133.615 49.5495L135.344 50.273L135 51.7183Z" fill="white"/>
</mask>
<g mask="url(#mask25_435_90422)">
<path d="M135 51.7183L133.272 50.9937L133.615 49.5495L135.344 50.273L135 51.7183Z" fill="url(#paint22_linear_435_90422)"/>
</g>
<path d="M132.585 53.8833L132.928 52.4391L134.657 53.1627L134.313 54.6069L132.585 53.8833Z" fill="#76D1CB"/>
<path d="M131.9 56.7728L132.243 55.3275L133.97 56.0521L133.627 57.4963L131.9 56.7728Z" fill="#76D1CB"/>
<path d="M131.212 59.6622L131.555 58.2179L133.285 58.9405L132.942 60.3857L131.212 59.6622Z" fill="#76D1CB"/>
<path d="M132.575 61.9268L130.845 61.2042L130.868 61.1064L132.598 61.83L132.575 61.9268Z" fill="#497AB7"/>
<path d="M132.255 63.2742L130.527 62.5516L130.846 61.2041L132.576 61.9267L132.255 63.2742Z" fill="#416FAE"/>
<path d="M129.84 65.4402L130.183 63.996L131.91 64.7196L131.568 66.1648L129.84 65.4402Z" fill="#76D1CB"/>
<path d="M129.154 68.3296L129.497 66.8854L131.226 67.609L130.882 69.0532L129.154 68.3296Z" fill="#76D1CB"/>
<path d="M131.174 43.7627L131.516 42.3175L133.246 43.0421L132.903 44.4863L131.174 43.7627Z" fill="#76D1CB"/>
<path d="M130.487 46.6512L130.83 45.2069L132.558 45.9305L132.216 47.3757L130.487 46.6512Z" fill="#76D1CB"/>
<path d="M129.801 49.5408L130.144 48.0966L131.873 48.8202L131.53 50.2644L129.801 49.5408Z" fill="#76D1CB"/>
<path d="M129.114 52.4302L129.457 50.986L131.186 51.7096L130.843 53.1538L129.114 52.4302Z" fill="#76D1CB"/>
<path d="M128.428 55.3196L128.771 53.8754L130.5 54.598L130.156 56.0432L128.428 55.3196Z" fill="#76D1CB"/>
<path d="M127.741 58.2093L128.084 56.764L129.813 57.4876L129.47 58.9329L127.741 58.2093Z" fill="#76D1CB"/>
<path d="M127.055 61.0977L127.398 59.6535L129.126 60.3771L128.783 61.8223L127.055 61.0977Z" fill="#76D1CB"/>
<path d="M126.368 63.9871L126.711 62.5429L128.44 63.2664L128.097 64.7107L126.368 63.9871Z" fill="#76D1CB"/>
<path d="M125.681 66.8765L126.024 65.4313L127.753 66.1558L127.41 67.6001L125.681 66.8765Z" fill="#76D1CB"/>
<path d="M127.702 42.3099L128.045 40.8646L129.774 41.5882L129.431 43.0334L127.702 42.3099Z" fill="#76D1CB"/>
<path d="M127.015 45.1981L127.359 43.7538L129.087 44.4774L128.744 45.9216L127.015 45.1981Z" fill="#76D1CB"/>
<mask id="mask26_435_90422" style="mask-type:luminance" maskUnits="userSpaceOnUse" x="126" y="46" width="3" height="3">
<path d="M128.057 48.8113L126.33 48.0877L126.672 46.6434L128.401 47.367L128.057 48.8113Z" fill="white"/>
</mask>
<g mask="url(#mask26_435_90422)">
<path d="M128.057 48.8113L126.33 48.0877L126.672 46.6434L128.401 47.367L128.057 48.8113Z" fill="url(#paint23_linear_435_90422)"/>
</g>
<path d="M125.642 50.9771L125.985 49.5319L127.714 50.2555L127.372 51.7007L125.642 50.9771Z" fill="#76D1CB"/>
<path d="M126.685 54.5901L124.955 53.8655L125.141 53.0882L126.871 53.8108L126.685 54.5901Z" fill="#3F429D"/>
<path d="M126.871 53.8108L125.14 53.0882L125.299 52.4213L127.029 53.1449L126.871 53.8108Z" fill="#3C409A"/>
<path d="M124.27 56.7552L124.614 55.3109L126.341 56.0345L125.998 57.4797L124.27 56.7552Z" fill="#76D1CB"/>
<path d="M123.583 59.6446L123.927 58.2003L125.655 58.9239L125.312 60.3682L123.583 59.6446Z" fill="#76D1CB"/>
<path d="M122.897 62.534L123.24 61.0897L124.969 61.8133L124.625 63.2576L122.897 62.534Z" fill="#76D1CB"/>
<path d="M122.21 65.4234L122.554 63.9781L124.282 64.7017L123.939 66.147L122.21 65.4234Z" fill="#76D1CB"/>
<path d="M124.231 40.8555L124.574 39.4112L126.303 40.1349L125.959 41.5791L124.231 40.8555Z" fill="#76D1CB"/>
<path d="M123.544 43.7449L123.887 42.3007L125.616 43.0243L125.273 44.4685L123.544 43.7449Z" fill="#76D1CB"/>
<mask id="mask27_435_90422" style="mask-type:luminance" maskUnits="userSpaceOnUse" x="122" y="45" width="3" height="3">
<path d="M124.586 47.3582L122.858 46.6346L123.201 45.1893L124.93 45.9139L124.586 47.3582Z" fill="white"/>
</mask>
<g mask="url(#mask27_435_90422)">
<path d="M124.586 47.3582L122.858 46.6346L123.201 45.1893L124.93 45.9139L124.586 47.3582Z" fill="url(#paint24_linear_435_90422)"/>
</g>
<path d="M122.171 49.523L122.514 48.0788L124.243 48.8023L123.9 50.2476L122.171 49.523Z" fill="#76D1CB"/>
<path d="M121.485 52.4136L121.828 50.9684L123.557 51.692L123.213 53.1362L121.485 52.4136Z" fill="#76D1CB"/>
<path d="M122.526 56.0256L120.798 55.302L121.141 53.8578L122.87 54.5814L122.526 56.0256Z" fill="#33378F"/>
<path d="M122.159 57.5754L120.43 56.8538L120.455 56.7472L122.183 57.4699L122.159 57.5754Z" fill="#497AB7"/>
<path d="M121.84 58.915L120.112 58.1915L120.431 56.8538L122.159 57.5754L121.84 58.915Z" fill="#416FAE"/>
<path d="M119.425 61.0809L119.768 59.6356L121.497 60.3592L121.153 61.8044L119.425 61.0809Z" fill="#76D1CB"/>
<path d="M120.513 64.5063L118.783 63.7837L119.081 62.5253L120.811 63.2489L120.513 64.5063Z" fill="#3F429D"/>
<path d="M120.468 64.6941L118.738 63.9695L118.783 63.7837L120.513 64.5064L120.468 64.6941Z" fill="#33378F"/>
<path d="M120.759 39.4026L121.102 37.9584L122.831 38.682L122.488 40.1262L120.759 39.4026Z" fill="#76D1CB"/>
<mask id="mask28_435_90422" style="mask-type:luminance" maskUnits="userSpaceOnUse" x="120" y="40" width="3" height="4">
<path d="M121.801 43.0156L120.072 42.292L120.415 40.8468L122.144 41.5714L121.801 43.0156Z" fill="white"/>
</mask>
<g mask="url(#mask28_435_90422)">
<path d="M121.801 43.0156L120.072 42.292L120.415 40.8468L122.144 41.5714L121.801 43.0156Z" fill="url(#paint25_linear_435_90422)"/>
</g>
<path d="M119.385 45.1814L119.729 43.7362L121.459 44.4598L121.116 45.905L119.385 45.1814Z" fill="#76D1CB"/>
<path d="M118.7 48.0711L119.042 46.6259L120.771 47.3495L120.427 48.7937L118.7 48.0711Z" fill="#76D1CB"/>
<path d="M118.014 50.9595L118.357 49.5153L120.085 50.2389L119.743 51.6831L118.014 50.9595Z" fill="#76D1CB"/>
<path d="M117.327 53.8489L117.67 52.4047L119.399 53.1273L119.056 54.5725L117.327 53.8489Z" fill="#76D1CB"/>
<path d="M116.64 56.7386L116.984 55.2933L118.712 56.0179L118.369 57.4622L116.64 56.7386Z" fill="#76D1CB"/>
<path d="M117.864 59.5908L116.134 58.8682L116.297 58.1827L118.026 58.9063L117.864 59.5908Z" fill="#497AB7"/>
<path d="M117.683 60.3516L115.954 59.627L116.134 58.8682L117.864 59.5908L117.683 60.3516Z" fill="#416FAE"/>
<path d="M115.267 62.5174L115.61 61.0722L117.339 61.7958L116.996 63.24L115.267 62.5174Z" fill="#76D1CB"/>
<path d="M117.288 37.9495L117.631 36.5043L119.36 37.2289L119.017 38.6731L117.288 37.9495Z" fill="#76D1CB"/>
<mask id="mask29_435_90422" style="mask-type:luminance" maskUnits="userSpaceOnUse" x="116" y="39" width="3" height="3">
<path d="M118.33 41.5627L116.601 40.8392L116.945 39.3949L118.673 40.1175L118.33 41.5627Z" fill="white"/>
</mask>
<g mask="url(#mask29_435_90422)">
<path d="M118.33 41.5627L116.601 40.8392L116.945 39.3949L118.673 40.1175L118.33 41.5627Z" fill="url(#paint26_linear_435_90422)"/>
</g>
<path d="M115.914 43.7286L116.258 42.2833L117.986 43.0069L117.643 44.4512L115.914 43.7286Z" fill="#76D1CB"/>
<path d="M115.228 46.617L115.572 45.1727L117.3 45.8963L116.957 47.3416L115.228 46.617Z" fill="#76D1CB"/>
<path d="M114.541 49.5064L114.885 48.0621L116.613 48.7857L116.27 50.23L114.541 49.5064Z" fill="#76D1CB"/>
<path d="M113.855 52.396L114.198 50.9508L115.927 51.6754L115.583 53.1196L113.855 52.396Z" fill="#76D1CB"/>
<path d="M115.215 54.6753L113.484 53.9527L113.512 53.8402L115.24 54.5638L115.215 54.6753Z" fill="#497AB7"/>
<path d="M114.898 56.009L113.168 55.2855L113.484 53.9527L115.215 54.6753L114.898 56.009Z" fill="#416FAE"/>
<path d="M112.481 58.1739L112.824 56.7296L114.553 57.4532L114.21 58.8975L112.481 58.1739Z" fill="#76D1CB"/>
<path d="M111.796 61.0633L112.139 59.619L113.867 60.3426L113.524 61.7869L111.796 61.0633Z" fill="#76D1CB"/>
<defs>
<linearGradient id="paint0_linear_435_90422" x1="172.795" y1="48.1883" x2="61.4649" y2="48.1883" gradientUnits="userSpaceOnUse">
<stop stop-color="#C5BAE3"/>
<stop offset="1" stop-color="#ECE9F6"/>
</linearGradient>
<linearGradient id="paint1_linear_435_90422" x1="172.794" y1="68.844" x2="153.677" y2="68.844" gradientUnits="userSpaceOnUse">
<stop stop-color="#5659B1"/>
<stop offset="1" stop-color="#C1B9E2"/>
</linearGradient>
<linearGradient id="paint2_linear_435_90422" x1="157.879" y1="92.0634" x2="0.644223" y2="92.0634" gradientUnits="userSpaceOnUse">
<stop stop-color="#5659B1"/>
<stop offset="1" stop-color="#C1B9E2"/>
</linearGradient>
<linearGradient id="paint3_linear_435_90422" x1="105.048" y1="88.2703" x2="-52.2705" y2="88.2703" gradientUnits="userSpaceOnUse">
<stop stop-color="#C5BAE3"/>
<stop offset="1" stop-color="#ECE9F6"/>
</linearGradient>
<linearGradient id="paint4_linear_435_90422" x1="78.4066" y1="94.7308" x2="38.1375" y2="94.7308" gradientUnits="userSpaceOnUse">
<stop stop-color="#C5BAE3"/>
<stop offset="1" stop-color="#ECE9F6"/>
</linearGradient>
<linearGradient id="paint5_linear_435_90422" x1="165.153" y1="63.0434" x2="7.8348" y2="63.0434" gradientUnits="userSpaceOnUse">
<stop stop-color="#3F3494"/>
<stop offset="1" stop-color="#433695"/>
</linearGradient>
<linearGradient id="paint6_linear_435_90422" x1="175.506" y1="54.6888" x2="135.237" y2="54.6888" gradientUnits="userSpaceOnUse">
<stop stop-color="#3F3494"/>
<stop offset="1" stop-color="#433695"/>
</linearGradient>
<linearGradient id="paint7_linear_435_90422" x1="165.153" y1="63.0433" x2="7.83506" y2="63.0433" gradientUnits="userSpaceOnUse">
<stop stop-color="#40439D"/>
<stop offset="1" stop-color="#44469F"/>
</linearGradient>
<linearGradient id="paint8_linear_435_90422" x1="165.153" y1="63.0435" x2="7.83464" y2="63.0435" gradientUnits="userSpaceOnUse">
<stop stop-color="#4A7BB8"/>
<stop offset="1" stop-color="#4C7FB8"/>
</linearGradient>
<linearGradient id="paint9_linear_435_90422" x1="165.153" y1="63.0433" x2="7.83486" y2="63.0433" gradientUnits="userSpaceOnUse">
<stop stop-color="#40439D"/>
<stop offset="1" stop-color="#44469F"/>
</linearGradient>
<linearGradient id="paint10_linear_435_90422" x1="165.153" y1="63.0434" x2="7.83501" y2="63.0434" gradientUnits="userSpaceOnUse">
<stop stop-color="#40439D"/>
<stop offset="1" stop-color="#44469F"/>
</linearGradient>
<linearGradient id="paint11_linear_435_90422" x1="165.153" y1="63.0436" x2="7.8342" y2="63.0436" gradientUnits="userSpaceOnUse">
<stop stop-color="#40439D"/>
<stop offset="1" stop-color="#44469F"/>
</linearGradient>
<linearGradient id="paint12_linear_435_90422" x1="165.154" y1="63.0433" x2="7.83459" y2="63.0433" gradientUnits="userSpaceOnUse">
<stop stop-color="#40439D"/>
<stop offset="1" stop-color="#44469F"/>
</linearGradient>
<linearGradient id="paint13_linear_435_90422" x1="165.152" y1="63.0435" x2="7.83439" y2="63.0435" gradientUnits="userSpaceOnUse">
<stop stop-color="#4A7BB8"/>
<stop offset="1" stop-color="#4C7FB8"/>
</linearGradient>
<linearGradient id="paint14_linear_435_90422" x1="165.152" y1="63.0435" x2="7.83537" y2="63.0435" gradientUnits="userSpaceOnUse">
<stop stop-color="#40439D"/>
<stop offset="1" stop-color="#44469F"/>
</linearGradient>
<linearGradient id="paint15_linear_435_90422" x1="165.153" y1="63.0434" x2="7.83479" y2="63.0434" gradientUnits="userSpaceOnUse">
<stop stop-color="#4A7BB8"/>
<stop offset="1" stop-color="#4C7FB8"/>
</linearGradient>
<linearGradient id="paint16_linear_435_90422" x1="175.506" y1="54.689" x2="135.237" y2="54.689" gradientUnits="userSpaceOnUse">
<stop stop-color="#40439D"/>
<stop offset="1" stop-color="#44469F"/>
</linearGradient>
<linearGradient id="paint17_linear_435_90422" x1="175.506" y1="54.6891" x2="135.237" y2="54.6891" gradientUnits="userSpaceOnUse">
<stop stop-color="#4A7BB8"/>
<stop offset="1" stop-color="#4C7FB8"/>
</linearGradient>
<linearGradient id="paint18_linear_435_90422" x1="165.153" y1="63.0434" x2="7.83427" y2="63.0434" gradientUnits="userSpaceOnUse">
<stop stop-color="#40439D"/>
<stop offset="1" stop-color="#44469F"/>
</linearGradient>
<linearGradient id="paint19_linear_435_90422" x1="175.506" y1="54.689" x2="135.237" y2="54.689" gradientUnits="userSpaceOnUse">
<stop stop-color="#40439D"/>
<stop offset="1" stop-color="#44469F"/>
</linearGradient>
<linearGradient id="paint20_linear_435_90422" x1="165.153" y1="63.0433" x2="7.83496" y2="63.0433" gradientUnits="userSpaceOnUse">
<stop stop-color="#4A7BB8"/>
<stop offset="1" stop-color="#4C7FB8"/>
</linearGradient>
<linearGradient id="paint21_linear_435_90422" x1="165.153" y1="63.0435" x2="7.83406" y2="63.0435" gradientUnits="userSpaceOnUse">
<stop stop-color="#4A7BB8"/>
<stop offset="1" stop-color="#4C7FB8"/>
</linearGradient>
<linearGradient id="paint22_linear_435_90422" x1="165.153" y1="63.0434" x2="7.83514" y2="63.0434" gradientUnits="userSpaceOnUse">
<stop stop-color="#40439D"/>
<stop offset="1" stop-color="#44469F"/>
</linearGradient>
<linearGradient id="paint23_linear_435_90422" x1="165.153" y1="63.0436" x2="7.83506" y2="63.0436" gradientUnits="userSpaceOnUse">
<stop stop-color="#4A7BB8"/>
<stop offset="1" stop-color="#4C7FB8"/>
</linearGradient>
<linearGradient id="paint24_linear_435_90422" x1="165.153" y1="63.0434" x2="7.83406" y2="63.0434" gradientUnits="userSpaceOnUse">
<stop stop-color="#4A7BB8"/>
<stop offset="1" stop-color="#4C7FB8"/>
</linearGradient>
<linearGradient id="paint25_linear_435_90422" x1="165.153" y1="63.0434" x2="7.83406" y2="63.0434" gradientUnits="userSpaceOnUse">
<stop stop-color="#4A7BB8"/>
<stop offset="1" stop-color="#4C7FB8"/>
</linearGradient>
<linearGradient id="paint26_linear_435_90422" x1="165.153" y1="63.0435" x2="7.8351" y2="63.0435" gradientUnits="userSpaceOnUse">
<stop stop-color="#40439D"/>
<stop offset="1" stop-color="#44469F"/>
</linearGradient>
</defs>
</svg>
