<svg width="217" height="236" viewBox="0 0 217 236" fill="none" xmlns="http://www.w3.org/2000/svg">
<path d="M98.0382 210.758C73.9755 224.652 52.1805 225.94 36.4451 216.793L58.9083 229.85C74.6467 238.994 96.4417 237.705 120.504 223.814C129.089 218.856 137.377 212.633 145.199 205.436L122.736 192.38C114.914 199.576 106.623 205.802 98.0382 210.758Z" fill="#F5CB1D"/>
<mask id="mask0_435_88901" style="mask-type:luminance" maskUnits="userSpaceOnUse" x="159" y="5" width="58" height="146">
<path d="M203.563 103.562C205.685 93.65 206.81 83.832 206.783 74.3708C206.707 47.0727 197.071 27.8751 181.535 18.8463L159.072 5.79291C174.608 14.8187 184.241 34.0193 184.317 61.3144C184.344 70.7756 183.219 80.5936 181.096 90.5053L167.686 82.7102C172.787 110.483 172.536 131.897 171.502 150.901C196.496 133.445 210.345 118.535 217 111.369L203.563 103.562Z" fill="white"/>
</mask>
<g mask="url(#mask0_435_88901)">
<path d="M203.563 103.562C205.685 93.65 206.81 83.832 206.783 74.3708C206.707 47.0727 197.071 27.8751 181.535 18.8463L159.072 5.79291C174.608 14.8187 184.241 34.0193 184.317 61.3144C184.344 70.7756 183.219 80.5936 181.096 90.5053L167.686 82.7102C172.787 110.483 172.536 131.897 171.502 150.901C196.496 133.445 210.345 118.535 217 111.369L203.563 103.562Z" fill="url(#paint0_linear_435_88901)"/>
</g>
<path d="M156.937 13.1167C166.123 12.7992 174.45 14.7677 181.535 18.886L159.072 5.83257C154.805 3.35313 150.085 1.65681 145.008 0.755745C135.212 -1.0101 125.022 0.483665 115.754 3.53459C109.891 5.48489 103.801 8.20317 97.5512 11.8135C74.0206 25.4051 52.7821 48.3914 37.2462 74.7793L59.7124 87.8357C75.2482 61.4447 96.4869 38.4615 119.939 24.9213C131.021 18.4959 144.062 13.5249 156.937 13.1167Z" fill="#F5CB1D"/>
<mask id="mask1_435_88901" style="mask-type:luminance" maskUnits="userSpaceOnUse" x="0" y="137" width="59" height="93">
<path d="M35.8764 195.28L49.3168 203.09C43.478 192.815 32.6108 173.696 25.8528 137.75C19.3367 145.104 9.48841 156.222 0 174.431L13.4132 182.223C17.1082 198.524 25.242 210.323 36.4448 216.833L58.908 229.889C47.7052 223.379 39.5744 211.58 35.8764 195.28Z" fill="white"/>
</mask>
<g mask="url(#mask1_435_88901)">
<path d="M35.8764 195.28L49.3168 203.09C43.478 192.815 32.6108 173.696 25.8528 137.75C19.3367 145.104 9.48841 156.222 0 174.431L13.4132 182.223C17.1082 198.524 25.242 210.323 36.4448 216.833L58.908 229.889C47.7052 223.379 39.5744 211.58 35.8764 195.28Z" fill="url(#paint1_linear_435_88901)"/>
</g>
<mask id="mask2_435_88901" style="mask-type:luminance" maskUnits="userSpaceOnUse" x="68" y="39" width="90" height="172">
<path d="M68.6625 210.129V90.1334V90.6201L157.248 39.474V158.983L68.6625 210.129Z" fill="white"/>
</mask>
<g mask="url(#mask2_435_88901)">
<path d="M68.6625 210.129V90.1334V90.6201L157.248 39.474V158.983L68.6625 210.129Z" fill="url(#paint2_linear_435_88901)"/>
</g>
<path d="M157.248 39.5131L68.6625 90.6592V81.1708L157.248 30.0247V39.5131Z" fill="#A234EA"/>
<path d="M108.899 148.416V147.161L100.046 152.274V153.529L108.899 148.416ZM97.5542 148.736L74.958 161.781V163.036L97.5542 149.988V148.736ZM124.263 150.905L108.322 160.109V161.364L124.263 152.159V150.905ZM104.182 139.931L83.7902 151.703V152.958L104.182 141.183V139.931ZM147.191 137.667L140.074 141.776V143.031L147.191 138.922V137.667ZM114.853 148.703L98.9118 157.904V159.159L114.853 149.955V148.703ZM138.819 142.499L125.514 150.182V151.437L138.819 143.753V142.499ZM144.083 144.437L128.039 153.701V154.956L144.083 145.692V144.437ZM118.415 160.511V159.259L109.561 164.369V165.624L118.415 160.511ZM126.787 154.424L119.667 158.536V159.788L126.787 155.679V154.424ZM124.368 160.798L108.427 170.002V171.257L124.368 162.053V160.798ZM114.747 138.81L98.806 148.011V149.266L114.747 140.061V138.81ZM116.105 82.3327L129.409 74.6494V73.3946L116.105 81.0779V82.3327ZM134.57 65.4392L118.524 74.7039V75.9557L134.57 66.6941V65.4392ZM107.07 104.282L74.9186 122.844V124.099L107.07 105.537V104.282ZM125.058 90.1732L132.176 86.0639V84.8091L125.058 88.9184V90.1732ZM145.287 72.2638L130.664 80.7059V81.9608L145.287 73.5186V72.2638ZM110.151 80.7906L117.272 76.6814V75.4265L110.151 79.5358V80.7906ZM98.9118 100.291L114.853 91.0894V89.8346L98.9118 99.0388V100.291ZM74.9035 114.154L97.66 101.016V99.7614L74.9035 112.899V114.154ZM92.0541 109.229V107.974L74.9338 117.858V119.113L92.0541 109.229ZM93.3059 108.506L113.698 96.7316V95.4768L93.3059 107.251V108.506ZM74.9035 106.117L97.66 92.9792V91.7274L74.9035 104.865V106.117ZM133.428 85.3413L149.474 76.0767V74.8218L133.428 84.0865V85.3413ZM127.628 165.146L134.522 161.167V159.912L127.628 163.894V165.146ZM110.632 174.958L126.376 165.869V164.617L110.632 173.706V174.958ZM89.2511 187.307L109.38 175.684V174.429L89.2511 186.052V187.307ZM75.0426 195.507L87.9962 188.03V186.775L75.0426 194.255V195.507ZM107.07 160.831L74.9186 179.394V180.646L107.07 162.086V160.831ZM148.443 138.199L154.482 134.713V133.458L148.443 136.944V138.199ZM97.66 158.63L74.9035 171.768V173.023L97.66 159.885V158.63ZM146.538 71.5411V72.7929L155.08 67.8642V66.6094L146.538 71.5411ZM145.338 144.969L150.121 142.205V140.95L145.338 143.714V144.969ZM140.176 152.924L149.499 147.545V146.29L140.176 151.67V152.924ZM125.62 161.33L138.925 153.647V152.392L125.62 160.075V161.33ZM130.664 73.9268L145.287 65.4846V64.2297L130.664 72.672V73.9268ZM150.614 123.077L135.822 131.619V132.874L150.614 124.332V123.077ZM150.614 56.1746L135.822 64.7166V65.9714L150.614 57.4294V56.1746ZM152.837 77.8576L148.443 80.3945V81.6494L152.837 79.1124V77.8576ZM149.042 52.1047L138.928 57.9434V59.1983L149.042 53.3595V52.1047ZM125.514 94.8872L138.819 87.2039V85.9491L125.514 93.6323V94.8872ZM114.747 71.907L98.806 81.1081V82.3629L114.747 73.1618V71.907ZM98.7939 86.0942L74.8491 99.9186V101.174L98.7939 87.349V86.0942ZM137.676 58.6691L130.558 62.7783V64.0332L137.676 59.9209V58.6691ZM97.5542 81.8338L74.958 94.8781V96.1329L97.5542 83.0856V81.8338ZM129.306 63.501L115.999 71.1812V72.4361L129.306 64.7558V63.501ZM98.7939 152.997L74.8491 166.821V168.076L98.7939 154.252V152.997ZM86.6628 121.042L75.1272 127.701V128.955L86.6628 122.294V121.042ZM87.9145 129.028L108.31 117.254V116.002L87.9145 127.773V129.028ZM75.1272 136.412L86.6628 129.751V128.496L75.1272 135.157V136.412ZM109.561 116.531L118.415 111.421V110.166L109.561 115.279V116.531ZM108.31 108.545L87.9145 120.32V121.571L108.31 109.8V108.545ZM75.0426 146.414L87.9962 138.937V137.682L75.0426 145.159V146.414ZM129.409 81.4286L116.105 89.1119V90.3667L129.409 82.6835V81.4286ZM108.322 104.814L124.263 95.6098V94.355L108.322 103.559V104.814ZM107.176 122.887V121.632L91.4312 130.721V131.976L107.176 122.887ZM82.5384 153.68V152.428L75.0789 156.734V157.986L82.5384 153.68ZM114.95 96.009L123.806 90.8958V89.6441L114.95 94.7541V96.009ZM75.0728 141.419L90.1793 132.699V131.444L75.0728 140.167V141.419ZM75.0728 190.512L90.1793 181.792V180.537L75.0728 189.26V190.512ZM75.1272 184.25V185.505L86.6628 178.844V177.589L75.1272 184.25ZM93.1214 139.702L75.0033 150.161V151.416L93.1214 140.956V139.702ZM107.176 171.98V170.725L91.4312 179.814V181.069L107.176 171.98ZM98.9118 92.2565L114.853 83.0554V81.8006L98.9118 91.0047V92.2565ZM108.31 165.095L87.9145 176.866V178.121L108.31 166.347V165.095ZM98.4431 137.881V136.63L94.3732 138.979V140.234L98.4431 137.881ZM100.046 85.3716V86.6264L108.899 81.5133V80.2584L100.046 85.3716ZM109.38 125.336L89.2511 136.959V138.211L109.38 126.591V125.336ZM120.087 124.133L99.6949 135.907V137.159L120.087 125.387V124.133ZM114.29 135.35V134.096L105.434 139.209V140.461L114.29 135.35ZM126.787 105.331L119.667 109.443V110.698L126.787 106.586V105.331ZM139.959 119.276L123.912 128.538V129.793L139.959 120.528V119.276ZM134.57 132.342L118.524 141.607V142.858L134.57 133.597V132.342ZM137.676 125.569L130.558 129.681V130.936L137.676 126.824V125.569ZM110.151 147.693L117.272 143.581V142.329L110.151 146.439V147.693ZM129.306 130.404L115.999 138.087V139.339L129.306 131.659V130.404ZM150.073 113.435L141.211 118.551V119.806L150.073 114.69V113.435ZM149.042 119.007L138.928 124.846V126.101L149.042 120.262V119.007ZM150.121 84.4039L145.338 87.1646V88.4194L150.121 85.6558V84.4039ZM140.074 86.4813L147.191 82.372V81.1172L140.074 85.2264V86.4813ZM122.66 129.261L115.542 133.373V134.628L122.66 130.516V129.261ZM150.121 91.8574L145.338 94.6211V95.876L150.121 93.1123V91.8574ZM128.039 105.863L144.083 96.5986V95.3438L128.039 104.608V105.863ZM130.195 118.297L121.339 123.41V124.665L130.195 119.552V118.297ZM126.376 115.524L110.632 124.613V125.868L126.376 116.779V115.524ZM108.427 122.164L124.368 112.96V111.705L108.427 120.909V122.164ZM128.039 98.4068L144.083 89.1421V87.8873L128.039 97.152V98.4068ZM119.667 103.242L126.787 99.1295V97.8746L119.667 101.987V103.242ZM134.522 110.822L127.628 114.801V116.056L134.522 112.074V110.822ZM125.62 112.237L138.925 104.554V103.302L125.62 110.982V112.237ZM139.511 112.918L131.447 117.574V118.829L139.511 114.172V112.918ZM118.415 102.71L109.561 107.823V109.077L118.415 103.964V102.71ZM146.109 104.131L135.774 110.096V111.351L146.109 105.383V104.131ZM149.499 98.4522L140.176 103.831V102.576L149.499 97.1973V98.4522Z" fill="#FFFFD7"/>
<path d="M136.863 49.1404V43.8368L142.169 40.7738V46.0774L136.863 49.1404Z" fill="#902FD4"/>
<path d="M143.439 45.3457V40.039L148.746 36.976V42.2826L143.439 45.3457Z" fill="#902FD4"/>
<path d="M147.283 41.6635L144.903 43.0393V40.6597L147.283 39.2839V41.6635ZM144.28 40.3966V44.019L147.906 41.9266V38.3042L144.28 40.3966Z" fill="#FFFFD7"/>
<path d="M150.016 41.5485V36.2449L155.32 33.1818V38.4854L150.016 41.5485Z" fill="#902FD4"/>
<path d="M150.884 37.0524L152.302 37.6511L150.884 39.8857L151.34 40.0792L152.755 37.8447L154.173 38.4434L154.627 37.7237L153.212 37.125L154.627 34.8905L154.173 34.7L152.755 36.9315L151.34 36.3328L150.884 37.0524Z" fill="#FFFFD7"/>
<path d="M141.247 45.7783L137.848 47.7407V47.0935L141.247 45.1312V45.7783Z" fill="#FFFFD7"/>
<defs>
<linearGradient id="paint0_linear_435_88901" x1="197.44" y1="42.2891" x2="137.937" y2="145.35" gradientUnits="userSpaceOnUse">
<stop stop-color="#D69B09"/>
<stop offset="1" stop-color="#F5CB1D"/>
</linearGradient>
<linearGradient id="paint1_linear_435_88901" x1="79.0127" y1="116.161" x2="28.2264" y2="204.125" gradientUnits="userSpaceOnUse">
<stop stop-color="#F5CB1D"/>
<stop offset="1" stop-color="#D69B09"/>
</linearGradient>
<linearGradient id="paint2_linear_435_88901" x1="-1053.59" y1="-383.565" x2="282.43" y2="952.454" gradientUnits="userSpaceOnUse">
<stop stop-color="#BC6EE9"/>
<stop offset="1" stop-color="#C96FF1"/>
</linearGradient>
</defs>
</svg>
