<svg width="145" height="121" viewBox="0 0 145 121" fill="none" xmlns="http://www.w3.org/2000/svg">
<path d="M134.651 89.3747L89.4997 115.102C88.7828 115.512 87.8971 115.512 87.1786 115.102L2.64795 66.9385C1.10053 66.0564 -0.829682 63.9338 1.53524 61.3038L43.468 37.1275C46.2336 35.4835 50.2724 34.4622 53.476 34.8656C54.8952 35.0449 56.6697 35.3891 57.4759 35.8469L136.702 80.8794C140.036 82.7779 137.985 87.4762 134.651 89.3747Z" fill="#3D72E8"/>
<mask id="mask0_435_90896" style="mask-type:luminance" maskUnits="userSpaceOnUse" x="0" y="63" width="145" height="58">
<path d="M92.3724 120.186C89.6798 120.186 86.9905 119.599 84.9403 118.424L3.08765 71.8289C1.052 70.662 0.0333703 69.1333 0.0285042 67.603L0.0187625 65.3779L0.0122681 63.934C0.0138901 64.371 0.0982453 64.808 0.265315 65.237C0.395077 65.5716 0.575117 65.8998 0.807068 66.2199C0.807068 66.2199 0.807069 66.2199 0.808692 66.2215C0.811936 66.2263 0.815189 66.2311 0.818433 66.2359C0.820055 66.2375 0.821662 66.2407 0.823284 66.2423C0.824906 66.2455 0.828157 66.2487 0.829779 66.2519C0.833023 66.2551 0.834651 66.2583 0.836273 66.2615C0.837895 66.2631 0.841126 66.2663 0.842748 66.2695C0.845992 66.2727 0.849244 66.2775 0.850866 66.2807C0.852488 66.2823 0.852491 66.2839 0.854113 66.2839C1.36343 66.9659 2.10144 67.6045 3.07142 68.16L84.924 114.755C86.9727 115.93 89.6636 116.517 92.3546 116.517H92.3562C95.052 116.517 97.7511 115.928 99.8143 114.753L113.543 106.927L141.001 91.2766C143.054 90.1064 144.093 88.5729 144.109 87.0378L144.125 90.6587C144.127 91.4255 143.875 92.1922 143.367 92.9157C142.85 93.6537 142.067 94.3468 141.017 94.9439L99.8305 118.422C97.7673 119.597 95.0682 120.186 92.3724 120.186Z" fill="white"/>
</mask>
<g mask="url(#mask0_435_90896)">
<path d="M92.3724 120.186C89.6798 120.186 86.9905 119.599 84.9403 118.424L3.08765 71.8289C1.052 70.662 0.0333703 69.1333 0.0285042 67.603L0.0187625 65.3779L0.0122681 63.934C0.0138901 64.371 0.0982453 64.808 0.265315 65.237C0.395077 65.5716 0.575117 65.8998 0.807068 66.2199C0.807068 66.2199 0.807069 66.2199 0.808692 66.2215C0.811936 66.2263 0.815189 66.2311 0.818433 66.2359C0.820055 66.2375 0.821662 66.2407 0.823284 66.2423C0.824906 66.2455 0.828157 66.2487 0.829779 66.2519C0.833023 66.2551 0.834651 66.2583 0.836273 66.2615C0.837895 66.2631 0.841126 66.2663 0.842748 66.2695C0.845992 66.2727 0.849244 66.2775 0.850866 66.2807C0.852488 66.2823 0.852491 66.2839 0.854113 66.2839C1.36343 66.9659 2.10144 67.6045 3.07142 68.16L84.924 114.755C86.9727 115.93 89.6636 116.517 92.3546 116.517H92.3562C95.052 116.517 97.7511 115.928 99.8143 114.753L113.543 106.927L141.001 91.2766C143.054 90.1064 144.093 88.5729 144.109 87.0378L144.125 90.6587C144.127 91.4255 143.875 92.1922 143.367 92.9157C142.85 93.6537 142.067 94.3468 141.017 94.9439L99.8305 118.422C97.7673 119.597 95.0682 120.186 92.3724 120.186Z" fill="url(#paint0_linear_435_90896)"/>
</g>
<path d="M83.6443 112.544L2.42428 66.2839C0.481087 65.1761 0.479463 62.4084 2.42266 61.3007L11.8304 55.9381L19.3551 55.0705L36.4918 45.3027L39.3855 40.2315L45.1924 36.9211C49.3335 34.5616 54.4364 34.5616 58.5774 36.9195L136.967 81.5695C137.635 81.9489 137.635 82.8997 136.969 83.2791L85.6264 112.544C85.0133 112.893 84.2575 112.893 83.6443 112.544ZM141.048 82.7653L59.1938 36.1688C55.0982 33.8204 48.4284 33.822 44.3052 36.172L3.11852 59.6487C-1.00469 61.9986 -1.02578 65.8116 3.07147 68.1599L84.9241 114.755C89.0262 117.106 95.6912 117.103 99.8127 114.753L141.001 91.2765C145.123 88.9266 145.15 85.1168 141.048 82.7653Z" fill="#282A35"/>
<path d="M122.085 97.6744L120.189 96.5955C119.243 96.056 117.657 96.1152 116.58 96.7283L109.808 100.589C109.448 100.794 109.17 101.05 109.008 101.329C108.642 101.956 108.869 102.648 109.574 103.05L111.472 104.13C112.418 104.67 114.002 104.61 115.081 103.997L121.851 100.136C122.211 99.9315 122.489 99.6753 122.651 99.3984C123.019 98.7693 122.79 98.0778 122.085 97.6744Z" fill="#1E1F27"/>
<path d="M112.02 104.358C111.822 104.302 111.636 104.225 111.47 104.131L109.574 103.05L111.472 104.131C111.636 104.225 111.822 104.302 112.02 104.358Z" fill="#282A35"/>
<path d="M113.065 104.499C112.698 104.499 112.341 104.452 112.02 104.358C111.822 104.302 111.636 104.225 111.472 104.13L109.574 103.05C109.235 102.858 109.014 102.595 108.909 102.309L109.008 102.022C109.17 101.744 109.448 101.489 109.808 101.283L116.58 97.4232C117.164 97.0902 117.895 96.9205 118.596 96.9205C119.186 96.9205 119.756 97.0422 120.189 97.2887L122.085 98.3692C122.424 98.5629 122.644 98.8239 122.75 99.112L122.651 99.3985C122.489 99.6754 122.211 99.9316 121.851 100.136L115.081 103.998C114.497 104.33 113.764 104.499 113.065 104.499Z" fill="#272934"/>
<path d="M29.9712 45.9685L21.6064 50.7355C21.1992 50.9676 21.1538 51.3198 21.5074 51.5215C21.861 51.7216 22.479 51.6976 22.8861 51.4655L31.251 46.6968C31.6597 46.4647 31.7035 46.1126 31.3499 45.9109C30.9963 45.7108 30.3799 45.7364 29.9712 45.9685Z" fill="#191414"/>
<mask id="mask1_435_90896" style="mask-type:luminance" maskUnits="userSpaceOnUse" x="19" y="78" width="10" height="8">
<path d="M28.1268 84.0378C28.0555 83.8329 27.9484 83.6312 27.817 83.4535C27.6678 83.2518 27.4877 83.0821 27.2931 82.9717L20.4903 79.0963C20.2356 78.9522 20.0053 78.9378 19.8399 79.0322L19.1651 79.4148C19.3322 79.3204 19.5625 79.3332 19.8172 79.4788L26.62 83.3526C26.8146 83.4631 26.9946 83.6328 27.1439 83.8345C27.2753 84.0122 27.3823 84.2139 27.4537 84.4204C27.5121 84.5917 27.5461 84.7693 27.5461 84.9358V85.2256C27.5461 85.5185 27.4407 85.725 27.2704 85.821L27.9435 85.44C28.1139 85.344 28.2193 85.1375 28.2193 84.8446V84.5532C28.2193 84.3867 28.1852 84.2123 28.1268 84.0378Z" fill="white"/>
</mask>
<g mask="url(#mask1_435_90896)">
<path d="M28.1268 84.0378C28.0555 83.8329 27.9484 83.6312 27.817 83.4535C27.6678 83.2518 27.4877 83.0821 27.2931 82.9717L20.4903 79.0963C20.2356 78.9522 20.0053 78.9378 19.8399 79.0322L19.1651 79.4148C19.3322 79.3204 19.5625 79.3332 19.8172 79.4788L26.62 83.3526C26.8146 83.4631 26.9946 83.6328 27.1439 83.8345C27.2753 84.0122 27.3823 84.2139 27.4537 84.4204C27.5121 84.5917 27.5461 84.7693 27.5461 84.9358V85.2256C27.5461 85.5185 27.4407 85.725 27.2704 85.821L27.9435 85.44C28.1139 85.344 28.2193 85.1375 28.2193 84.8446V84.5532C28.2193 84.3867 28.1852 84.2123 28.1268 84.0378Z" fill="url(#paint1_linear_435_90896)"/>
</g>
<path d="M26.6201 83.3524L19.8173 79.4786C19.3031 79.1872 18.8927 79.4241 18.8927 80.0116V80.303C18.8927 80.884 19.3047 81.5932 19.8189 81.8845L26.6217 85.7599C27.1294 86.0481 27.5463 85.8064 27.5463 85.2253V84.9356C27.5463 84.3465 27.1294 83.6405 26.6201 83.3524Z" fill="#B3B4B5"/>
<path d="M81.8259 107.254L18.5423 71.1966L18.7986 71.3423L27.8884 66.1638L81.8259 96.8968L119.457 75.4562L128.545 80.6346L81.8259 107.254Z" fill="#6BB1FD"/>
<path d="M65.5179 44.723L18.7985 71.342L13.7962 68.4911L60.5139 41.8721L65.5179 44.723Z" fill="#4888F9"/>
<path d="M119.457 75.4563L110.367 70.2778L113.754 68.3473L122.845 73.5258L119.457 75.4563ZM22.8845 63.3129L18.5423 60.8398L18.7986 60.9854L27.8884 55.807L31.9727 58.1345L22.8845 63.3129Z" fill="#6BB1FD"/>
<path d="M122.846 73.5254L113.754 68.3469L114.739 67.7867L123.83 72.9635L122.846 73.5254Z" fill="#5B89ED"/>
<path d="M81.8258 96.8967L27.8884 66.1638L36.9766 60.9853L81.8258 86.5398L110.367 70.2777L119.457 75.4562L81.8258 96.8967Z" fill="#8ED4FF"/>
<path d="M27.8884 66.1636L22.8844 63.3126L31.9727 58.1342L36.9766 60.9851L27.8884 66.1636Z" fill="#74BDFE"/>
<path d="M65.5179 34.3645L18.7985 60.9851L13.7962 58.1342L60.5139 31.5152L65.5179 34.3645Z" fill="#4888F9"/>
<mask id="mask2_435_90896" style="mask-type:luminance" maskUnits="userSpaceOnUse" x="18" y="45" width="111" height="21">
<path d="M119.457 65.0991L110.367 59.9207L119.457 54.7406L128.545 59.9207L119.457 65.0991ZM18.87 50.6683L18.5423 50.481L18.7986 50.6282L27.8884 45.4498L27.9582 45.4882L18.87 50.6683Z" fill="white"/>
</mask>
<g mask="url(#mask2_435_90896)">
<path d="M119.457 65.0991L110.367 59.9207L119.457 54.7406L128.545 59.9207L119.457 65.0991ZM18.87 50.6683L18.5423 50.481L18.7986 50.6282L27.8884 45.4498L27.9582 45.4882L18.87 50.6683Z" fill="url(#paint2_linear_435_90896)"/>
</g>
<path d="M22.8844 52.9558L18.8699 50.6683L27.9581 45.4883L29.3855 46.303L21.6062 50.7355C21.1991 50.9676 21.1537 51.3198 21.5073 51.5215C21.6679 51.6128 21.882 51.6576 22.1058 51.6576C22.3767 51.6576 22.6638 51.592 22.886 51.4655L30.6653 47.0314L31.9727 47.7773L22.8844 52.9558Z" fill="#5B89ED"/>
<path d="M22.106 51.6577C21.8821 51.6577 21.668 51.6129 21.5074 51.5217C21.1538 51.32 21.1992 50.9678 21.6064 50.7357L29.3856 46.3032L30.6654 47.0315L22.8861 51.4656C22.6639 51.5921 22.3768 51.6577 22.106 51.6577Z" fill="#507DEA"/>
<mask id="mask3_435_90896" style="mask-type:luminance" maskUnits="userSpaceOnUse" x="105" y="59" width="15" height="9">
<path d="M114.739 67.7869L105.646 62.6116L110.367 59.9208L119.457 65.0992L114.739 67.7869Z" fill="white"/>
</mask>
<g mask="url(#mask3_435_90896)">
<path d="M114.739 67.7869L105.646 62.6116L110.367 59.9208L119.457 65.0992L114.739 67.7869Z" fill="url(#paint3_linear_435_90896)"/>
</g>
<path d="M110.367 70.2776L101.279 65.0992L104.664 63.1702L113.754 68.3471L110.367 70.2776ZM31.9727 58.1343L27.8884 55.8067L36.9766 50.6283L41.0609 52.9558L31.9727 58.1343Z" fill="#8ED4FF"/>
<path d="M113.754 68.3472L104.664 63.1703L105.646 62.6117L114.739 67.7869L113.754 68.3472Z" fill="#82BEFD"/>
<path d="M81.8258 86.5398L36.9767 60.9853L46.0649 55.8068L81.8258 76.1829L101.279 65.0992L110.367 70.2777L81.8258 86.5398Z" fill="#A9E7FF"/>
<path d="M36.9767 60.9851L31.9728 58.1342L41.061 52.9557L46.065 55.8067L36.9767 60.9851Z" fill="#95DBFF"/>
<path d="M27.8884 55.8069L22.8844 52.9559L31.9727 47.7775L36.9766 50.6284L27.8884 55.8069Z" fill="#74BDFE"/>
<path d="M65.5179 24.0075L18.7985 50.6282L13.7962 47.7772L60.5139 21.1566L65.5179 24.0075Z" fill="#4888F9"/>
<mask id="mask4_435_90896" style="mask-type:luminance" maskUnits="userSpaceOnUse" x="18" y="35" width="111" height="20">
<path d="M119.457 54.7407L110.424 49.5959L119.512 44.4158L128.545 49.5639L119.457 54.7407ZM22.8845 42.5974L18.5423 40.1242L18.7986 40.2715L27.8317 35.1235L31.9176 37.4525L22.8845 42.5974Z" fill="white"/>
</mask>
<g mask="url(#mask4_435_90896)">
<path d="M119.457 54.7407L110.424 49.5959L119.512 44.4158L128.545 49.5639L119.457 54.7407ZM22.8845 42.5974L18.5423 40.1242L18.7986 40.2715L27.8317 35.1235L31.9176 37.4525L22.8845 42.5974Z" fill="url(#paint4_linear_435_90896)"/>
</g>
<mask id="mask5_435_90896" style="mask-type:luminance" maskUnits="userSpaceOnUse" x="27" y="40" width="93" height="20">
<path d="M110.367 59.9207L101.336 54.7742L110.424 49.5958L119.457 54.7406L110.367 59.9207ZM27.9581 45.4882L27.8884 45.4498L36.9199 40.3017L36.988 40.3418L27.9581 45.4882Z" fill="white"/>
</mask>
<g mask="url(#mask5_435_90896)">
<path d="M110.367 59.9207L101.336 54.7742L110.424 49.5958L119.457 54.7406L110.367 59.9207ZM27.9581 45.4882L27.8884 45.4498L36.9199 40.3017L36.988 40.3418L27.9581 45.4882Z" fill="url(#paint5_linear_435_90896)"/>
</g>
<path d="M36.576 45.1536L38.7495 41.3454L41.0058 42.6292L36.576 45.1536Z" fill="#8ED4FF"/>
<path d="M31.9727 47.7773L30.6653 47.0314L31.2509 46.6968C31.6596 46.4647 31.7034 46.1126 31.3498 45.9109C31.1909 45.8196 30.9768 45.7764 30.7513 45.7764C30.4804 45.7764 30.1949 45.8405 29.9711 45.9685L29.3856 46.3031L27.9582 45.4883L36.988 40.3418L38.7495 41.3455L36.576 45.1537L31.9727 47.7773Z" fill="#82BEFD"/>
<path d="M30.6653 47.0315L29.3856 46.3031L29.9711 45.9686C30.195 45.8405 30.4804 45.7765 30.7513 45.7765C30.9768 45.7765 31.1909 45.8197 31.3498 45.911C31.7034 46.1127 31.6596 46.4648 31.2509 46.6969L30.6653 47.0315Z" fill="#7AB7FD"/>
<mask id="mask6_435_90896" style="mask-type:luminance" maskUnits="userSpaceOnUse" x="96" y="54" width="15" height="9">
<path d="M105.645 62.6116L96.6075 57.4667L101.336 54.7743L110.367 59.9207L105.645 62.6116Z" fill="white"/>
</mask>
<g mask="url(#mask6_435_90896)">
<path d="M105.645 62.6116L96.6075 57.4667L101.336 54.7743L110.367 59.9207L105.645 62.6116Z" fill="url(#paint6_linear_435_90896)"/>
</g>
<path d="M101.279 65.0991L92.2458 59.9527L95.6293 58.0237L104.664 63.1702L101.279 65.0991ZM41.0609 52.9557L36.9767 50.6282L46.0098 45.4818L50.094 47.8093L41.0609 52.9557Z" fill="#A9E7FF"/>
<path d="M104.664 63.1704L95.6294 58.0239L96.6075 57.4669L105.645 62.6117L104.664 63.1704Z" fill="#A0DBFF"/>
<path d="M81.8259 76.1826L46.0649 55.8066L55.098 50.6601L81.8259 65.8897L92.2458 59.9525L101.279 65.099L81.8259 76.1826Z" fill="#BEF2FF"/>
<path d="M46.065 55.8069L41.0611 52.9559L50.0942 47.8095L55.0981 50.6604L46.065 55.8069Z" fill="#AEEBFF"/>
<path d="M36.9767 50.6282L31.9728 47.7772L36.5761 45.1536L41.0059 42.6292L46.0099 45.4817L36.9767 50.6282Z" fill="#95DBFF"/>
<path d="M27.8884 45.4497L22.8844 42.5971L31.9175 37.4523L36.9199 40.3016L27.8884 45.4497Z" fill="#74BDFE"/>
<path d="M65.5179 13.6509L18.7985 40.2715L13.7962 37.4189L60.5139 10.7999L65.5179 13.6509Z" fill="#4888F9"/>
<mask id="mask7_435_90896" style="mask-type:luminance" maskUnits="userSpaceOnUse" x="18" y="3" width="111" height="42">
<path d="M119.512 44.4158L65.518 13.6508L60.514 10.7999L22.8277 32.2724L18.5423 29.8313L18.7986 29.9769L65.518 3.35791L128.545 39.2693L119.512 44.4158Z" fill="white"/>
</mask>
<g mask="url(#mask7_435_90896)">
<path d="M119.512 44.4158L65.518 13.6508L60.514 10.7999L22.8277 32.2724L18.5423 29.8313L18.7986 29.9769L65.518 3.35791L128.545 39.2693L119.512 44.4158Z" fill="url(#paint7_linear_435_90896)"/>
</g>
<mask id="mask8_435_90896" style="mask-type:luminance" maskUnits="userSpaceOnUse" x="27" y="13" width="93" height="37">
<path d="M110.424 49.5959L65.518 24.0078L60.514 21.1569L31.9175 37.4526L27.8316 35.1235L65.518 13.6509L119.512 44.4159L110.424 49.5959Z" fill="white"/>
</mask>
<g mask="url(#mask8_435_90896)">
<path d="M110.424 49.5959L65.518 24.0078L60.514 21.1569L31.9175 37.4526L27.8316 35.1235L65.518 13.6509L119.512 44.4159L110.424 49.5959Z" fill="url(#paint8_linear_435_90896)"/>
</g>
<mask id="mask9_435_90896" style="mask-type:luminance" maskUnits="userSpaceOnUse" x="36" y="24" width="75" height="31">
<path d="M101.336 54.7742L65.518 34.3645L60.514 31.5151L54.9439 34.6878C53.9107 34.5021 52.8369 34.4077 51.7631 34.4077C49.0657 34.4077 46.3666 34.9968 44.305 36.1717L36.9881 40.3417L36.9199 40.3017L65.518 24.0075L110.424 49.5957L101.336 54.7742Z" fill="white"/>
</mask>
<g mask="url(#mask9_435_90896)">
<path d="M101.336 54.7742L65.518 34.3645L60.514 31.5151L54.9439 34.6878C53.9107 34.5021 52.8369 34.4077 51.7631 34.4077C49.0657 34.4077 46.3666 34.9968 44.305 36.1717L36.9881 40.3417L36.9199 40.3017L65.518 24.0075L110.424 49.5957L101.336 54.7742Z" fill="url(#paint9_linear_435_90896)"/>
</g>
<path d="M41.006 42.6294L38.7498 41.3456L39.3856 40.2315L45.1925 36.9211C47.2638 35.7413 49.5752 35.1523 51.8866 35.1523C52.5517 35.1523 53.2167 35.2003 53.8752 35.2979L41.006 42.6294Z" fill="#6EAEFD"/>
<path d="M38.7495 41.3455L36.9879 40.3418L44.3049 36.1718C46.3665 34.9968 49.0656 34.4078 51.763 34.4078C52.8368 34.4078 53.9106 34.5022 54.9438 34.6879L53.8749 35.2978C53.2164 35.2001 52.5513 35.1521 51.8863 35.1521C49.5749 35.1521 47.2635 35.7412 45.1922 36.921L39.3853 40.2313L38.7495 41.3455Z" fill="#69A5FC"/>
<mask id="mask10_435_90896" style="mask-type:luminance" maskUnits="userSpaceOnUse" x="60" y="34" width="42" height="24">
<path d="M96.6077 57.4668L60.7738 37.0683L65.5182 34.3647L101.336 54.7743L96.6077 57.4668Z" fill="white"/>
</mask>
<g mask="url(#mask10_435_90896)">
<path d="M96.6077 57.4668L60.7738 37.0683L65.5182 34.3647L101.336 54.7743L96.6077 57.4668Z" fill="url(#paint10_linear_435_90896)"/>
</g>
<path d="M92.2458 59.9526L65.5179 44.723L60.5139 41.8721L50.094 47.8093L46.0097 45.4818L59.8051 37.6204L95.6293 58.0237L92.2458 59.9526Z" fill="#79B5FD"/>
<path d="M95.6294 58.0239L59.8052 37.6207L60.7736 37.0684L96.6075 57.4669L95.6294 58.0239Z" fill="#75B0FD"/>
<path d="M81.8259 65.8901L55.098 50.6605L65.518 44.7233L92.2458 59.9529L81.8259 65.8901Z" fill="#81BAFD"/>
<path d="M55.0981 50.6604L50.0941 47.8095L60.514 41.8722L65.518 44.7232L55.0981 50.6604Z" fill="#7BB7FD"/>
<path d="M46.0098 45.4819L41.0058 42.6294L53.875 35.2979L54.9439 34.688L60.514 31.5153L65.518 34.3647L60.7735 37.0683L59.8051 37.6206L46.0098 45.4819Z" fill="#71B0FD"/>
<path d="M36.9199 40.3015L31.9175 37.4522L60.514 21.1565L65.5179 24.0074L36.9199 40.3015Z" fill="#64A4FD"/>
<path d="M27.8317 35.1235L22.8278 32.2726L60.5141 10.8L65.518 13.651L27.8317 35.1235Z" fill="#528FFB"/>
<path d="M65.5179 3.35802L18.7985 29.9771L13.7962 27.1261L60.5139 0.507065L65.5179 3.35802Z" fill="#4888F9"/>
<path d="M81.9233 41.7619L81.2615 41.3857L76.5917 44.0462L77.2535 44.4224L81.9233 41.7619ZM72.6534 43.2986L60.7363 50.0891L61.3981 50.4668L73.3152 43.6764L72.6534 43.2986ZM96.0155 40.5597L87.6085 45.3492L88.2687 45.727L96.6773 40.9359L96.0155 40.5597ZM73.5244 39.8122L62.7687 45.9399L63.4305 46.3161L74.1846 40.1884L73.5244 39.8122ZM108.108 33.6685L104.353 35.8087L105.015 36.1849L108.77 34.0462L108.108 33.6685ZM87.0262 41.0928L78.6192 45.8823L79.281 46.26L87.688 41.469L87.0262 41.0928ZM103.693 36.1849L96.6757 40.1819L97.3374 40.5597L104.354 36.5611L103.693 36.1849ZM109.094 36.0984L100.632 40.9199L101.294 41.2977L109.756 36.4746L109.094 36.0984ZM96.2182 44.1887L95.5565 43.8125L90.8866 46.4729L91.5484 46.8491L96.2182 44.1887ZM99.9716 41.2961L96.2166 43.4363L96.8784 43.8125L100.633 41.6739L99.9716 41.2961ZM101.321 43.5179L92.9142 48.309L93.5743 48.6868L101.983 43.8957L101.321 43.5179ZM81.7205 38.133L73.3135 42.9225L73.9753 43.3002L82.3823 38.5092L81.7205 38.133ZM53.0641 20.9889L60.0826 16.9902L59.4208 16.614L52.4023 20.6127L53.0641 20.9889ZM59.5165 13.5678L51.0544 18.3892L51.7145 18.767L60.1783 13.9439L59.5165 13.5678ZM57.1256 28.7333L40.1706 38.3939L40.8323 38.7701L57.7858 29.1095L57.1256 28.7333ZM64.6486 22.2086L68.402 20.07L67.7419 19.6922L63.9868 21.8325L64.6486 22.2086ZM72.0305 14.2576L64.3177 18.6517L64.9795 19.0295L72.6907 14.6338L72.0305 14.2576ZM47.301 21.2818L51.0544 19.1432L50.3926 18.767L46.6392 20.9056L47.301 21.2818ZM48.2337 28.57L56.6407 23.7806L55.9805 23.4028L47.5719 28.1939L48.2337 28.57ZM35.5721 35.7847L47.5735 28.9462L46.9117 28.5684L34.9103 35.4069L35.5721 35.7847ZM47.2426 32.1269L46.5808 31.7492L37.5526 36.894L38.2144 37.2702L47.2426 32.1269ZM47.9028 31.7508L58.6568 25.6214L57.9967 25.2453L47.241 31.373L47.9028 31.7508ZM31.3353 33.3707L43.3368 26.5323L42.675 26.1545L30.6735 32.993L31.3353 33.3707ZM69.0622 19.6938L77.5259 14.8707L76.8642 14.4946L68.402 19.3161L69.0622 19.6938ZM106.327 44.4111L109.962 42.3398L109.302 41.9636L105.665 44.035L106.327 44.4111ZM97.3634 49.5192L105.667 44.7873L105.005 44.4111L96.7032 49.1414L97.3634 49.5192ZM86.087 55.9446L96.7032 49.8953L96.0431 49.5176L85.4253 55.5669L86.087 55.9446ZM78.5949 60.2139L85.4269 56.3208L84.7651 55.943L77.9331 59.8361L78.5949 60.2139ZM86.9483 45.7254L69.9932 55.386L70.655 55.7637L87.6085 46.1032L86.9483 45.7254ZM109.43 33.6701L112.614 31.8548L111.954 31.4786L108.768 33.2923L109.43 33.6701ZM77.959 46.26L65.9576 53.0969L66.6194 53.4747L78.6192 46.6362L77.959 46.26ZM72.6907 13.8815L73.3525 14.2593L77.8568 11.6916L77.1951 11.3139L72.6907 13.8815ZM110.416 36.0984L112.94 34.6609L112.278 34.2832L109.754 35.7223L110.416 36.0984ZM110.32 39.1447L115.235 36.3433L114.573 35.9671L109.658 38.7669L110.32 39.1447ZM102.643 43.5195L109.66 39.5209L108.998 39.1447L101.981 43.1417L102.643 43.5195ZM60.7428 16.614L68.4539 12.2199L67.7921 11.8437L60.081 16.2378L60.7428 16.614ZM103.263 28.8502L95.4591 33.2955L96.1209 33.6733L103.923 29.2264L103.263 28.8502ZM67.9787 8.74626L60.1767 13.1916L60.8385 13.5693L68.6405 9.12246L67.9787 8.74626ZM81.2631 14.9796L78.9452 16.3002L79.607 16.6764L81.9249 15.3558L81.2631 14.9796ZM64.5237 7.72335L59.1905 10.7632L59.8523 11.1393L65.1855 8.09955L64.5237 7.72335ZM67.5148 23.5677L74.5317 19.569L73.8699 19.1912L66.853 23.1899L67.5148 23.5677ZM46.4365 18.0291L38.0295 22.8185L38.6913 23.1963L47.0982 18.4068L46.4365 18.0291ZM40.649 24.3184L28.0215 31.5139L28.6833 31.89L41.3092 24.6946L40.649 24.3184ZM58.5303 11.1393L54.7753 13.278L55.4371 13.6558L59.1921 11.5155L58.5303 11.1393ZM37.3693 23.1947L25.4539 29.9851L26.114 30.3629L38.0311 23.5725L37.3693 23.1947ZM54.1152 13.6542L47.0982 17.6529L47.7584 18.0291L54.7769 14.0303L54.1152 13.6542ZM75.9315 44.4224L63.304 51.6178L63.9658 51.994L76.5933 44.7985L75.9315 44.4224ZM48.9879 36.361L42.9037 39.8266L43.5655 40.2044L49.6497 36.7371L48.9879 36.361ZM54.2417 38.602L64.9974 32.4743L64.3356 32.0965L53.5815 38.2242L54.2417 38.602ZM47.4973 42.4454L53.5815 38.9782L52.9213 38.6004L46.8371 42.0676L47.4973 42.4454ZM65.6575 32.0981L70.3274 29.4361L69.6656 29.0599L64.9957 31.7204L65.6575 32.0981ZM60.4038 29.8571L49.6481 35.9848L50.3099 36.361L61.0656 30.2332L60.4038 29.8571ZM52.704 45.4612L59.536 41.5682L58.8742 41.192L52.0422 45.0851L52.704 45.4612ZM63.6576 19.0279L56.6407 23.0266L57.3008 23.4028L64.3194 19.4041L63.6576 19.0279ZM58.446 28.7333L66.853 23.9439L66.1928 23.5661L57.7858 28.3572L58.446 28.7333ZM67.0233 34.3104L66.3631 33.9342L58.0599 38.6644L58.7217 39.0406L67.0233 34.3104ZM62.7703 46.6922L62.1085 46.3161L58.1751 48.5571L58.8369 48.9333L62.7703 46.6922ZM59.3186 25.2469L63.9868 22.5848L63.3267 22.2086L58.6568 24.8691L59.3186 25.2469ZM50.0941 43.9565L58.0616 39.4168L57.3998 39.0406L49.4324 43.5788L50.0941 43.9565ZM75.985 58.7091L83.9524 54.1694L83.2907 53.7916L75.3232 58.3314L75.985 58.7091ZM72.7264 56.8202L73.3881 57.1964L79.4724 53.7292L78.8106 53.353L72.7264 56.8202ZM64.201 41.1472L54.6472 46.5914L55.309 46.9676L64.8627 41.525L64.201 41.1472ZM92.9142 49.0614L92.254 48.6852L83.9508 53.4154L84.6126 53.7932L92.9142 49.0614ZM43.9969 26.1561L52.4039 21.365L51.7421 20.9889L43.3351 25.7783L43.9969 26.1561ZM90.2265 46.8491L79.4724 52.9768L80.1326 53.3546L90.8882 47.2253L90.2265 46.8491ZM67.6688 39.9258L67.0071 39.5481L64.8611 40.771L65.5229 41.1488L67.6688 39.9258ZM41.3092 23.9423L41.971 24.3184L46.6392 21.658L45.979 21.2818L41.3092 23.9423ZM70.1522 34.765L59.5344 40.8142L60.1962 41.192L70.8123 35.1428L70.1522 34.765ZM78.4229 33.0442L67.6688 39.1719L68.329 39.5481L79.0847 33.4219L78.4229 33.0442ZM79.5162 37.1517L78.8544 36.7755L74.1846 39.436L74.8463 39.8122L79.5162 37.1517ZM74.0807 26.5451L70.3257 28.6837L70.9875 29.0599L74.7425 26.9213L74.0807 26.5451ZM92.3919 29.0615L83.9297 33.883L84.5915 34.2591L93.0537 29.4377L92.3919 29.0615ZM94.799 33.6717L86.3368 38.4931L86.9986 38.8709L95.4608 34.0478L94.799 33.6717ZM93.8128 31.2433L90.0594 33.3819L90.7196 33.7581L94.4746 31.6195L93.8128 31.2433ZM82.5834 41.3857L86.3385 39.2471L85.6767 38.8693L81.9217 41.0095L82.5834 41.3857ZM89.3976 33.7581L82.3807 37.7568L83.0425 38.133L90.0594 34.1343L89.3976 33.7581ZM97.7267 26.0216L93.052 28.6853L93.7138 29.0615L98.3869 26.3994L97.7267 26.0216ZM99.8078 27.8273L94.4729 30.8671L95.1347 31.2433L100.47 28.2035L99.8078 27.8273ZM82.4553 17.2911L79.9314 18.7302L80.5932 19.1064L83.1171 17.6689L82.4553 17.2911ZM75.1918 19.1928L78.9468 17.0526L78.2851 16.6764L74.5301 18.815L75.1918 19.1928ZM83.2696 34.2591L79.5146 36.3978L80.1764 36.7755L83.9313 34.6353L83.2696 34.2591ZM86.3871 19.5322L83.8632 20.9696L84.525 21.3474L87.0489 19.9083L86.3871 19.5322ZM75.4027 26.5451L83.8649 21.7236L83.2031 21.3458L74.7409 26.1673L75.4027 26.5451ZM83.7529 30.0075L79.0831 32.668L79.7449 33.0442L84.4147 30.3837L83.7529 30.0075ZM79.1139 29.6586L70.8123 34.3888L71.4725 34.7666L79.7757 30.0348L79.1139 29.6586ZM67.6851 33.9342L76.0921 29.1431L75.4303 28.7669L67.0233 33.5564L67.6851 33.9342ZM71.4709 24.304L79.9331 19.4825L79.2713 19.1048L70.8091 23.9278L71.4709 24.304ZM67.0557 26.8204L70.8107 24.6802L70.1489 24.304L66.3939 26.4426L67.0557 26.8204ZM83.4107 27.211L79.7757 29.2824L80.4359 29.6602L84.0725 27.5888L83.4107 27.211ZM76.7522 28.7669L83.7691 24.7698L83.1074 24.3921L76.0904 28.3908L76.7522 28.7669ZM88.6661 27.2078L84.4131 29.6314L85.0749 30.0075L89.3279 27.584L88.6661 27.2078ZM65.7338 26.8188L61.0639 29.4809L61.7257 29.8571L66.3956 27.1966L65.7338 26.8188ZM89.5225 23.7293L84.0709 26.8348L84.7326 27.211L90.1827 24.1055L89.5225 23.7293ZM89.3441 21.5924L84.4293 24.3921L83.7675 24.0159L88.6823 21.2162L89.3441 21.5924Z" fill="#FFFFD7"/>
<path d="M53.6382 8.83887L50.8401 7.24608L53.6382 5.65173L56.4362 7.24608L53.6382 8.83887Z" fill="#4466D0"/>
<path d="M57.1063 6.86377L54.3083 5.26942L57.1063 3.67507L59.9043 5.26942L57.1063 6.86377ZM57.1063 4.18093L55.1956 5.26942L57.1063 6.35955L59.0187 5.26942L57.1063 4.18093ZM57.1063 5.98499L55.8508 5.26942L57.1063 4.55392L58.3618 5.26942L57.1063 5.98499Z" fill="#4466D0"/>
<path d="M58.3617 5.26925L57.1062 5.98482L55.8508 5.26925L57.1062 4.55375L58.3617 5.26925ZM55.1955 5.26925L57.1062 6.35938L59.0186 5.26925L57.1062 4.18076L55.1955 5.26925Z" fill="#FFFFD7"/>
<path d="M60.5741 4.88818L57.7761 3.29383L60.5741 1.69948L63.3721 3.29383L60.5741 4.88818Z" fill="#4466D0"/>
<path d="M58.926 3.42674H60.4199V4.27832H60.9V3.42674H62.3939V3.15302H60.9V2.30137H60.4199V3.15302H58.926V3.42674Z" fill="#FFFFD7"/>
<path d="M55.5101 7.2717L53.7194 8.29297L53.3772 8.09928L55.1695 7.07802L55.5101 7.2717Z" fill="#FFFFD7"/>
<defs>
<linearGradient id="paint0_linear_435_90896" x1="85.5858" y1="92.0594" x2="99.0883" y2="92.0594" gradientUnits="userSpaceOnUse">
<stop stop-color="#B3B4B5"/>
<stop offset="1" stop-color="#CBCCCD"/>
</linearGradient>
<linearGradient id="paint1_linear_435_90896" x1="21.53" y1="78.067" x2="26.2732" y2="86.3915" gradientUnits="userSpaceOnUse">
<stop stop-color="#F3F7F6"/>
<stop offset="0.62069" stop-color="#F3F7F6"/>
<stop offset="1" stop-color="#CFD0D1"/>
</linearGradient>
<linearGradient id="paint2_linear_435_90896" x1="-226.396" y1="-41.8108" x2="480.833" y2="674.817" gradientUnits="userSpaceOnUse">
<stop stop-color="#8580F5"/>
<stop offset="1" stop-color="#B382F9"/>
</linearGradient>
<linearGradient id="paint3_linear_435_90896" x1="-226.395" y1="-41.8104" x2="480.832" y2="674.816" gradientUnits="userSpaceOnUse">
<stop stop-color="#A2B9FE"/>
<stop offset="1" stop-color="#C5BAFE"/>
</linearGradient>
<linearGradient id="paint4_linear_435_90896" x1="-226.396" y1="-41.8105" x2="480.832" y2="674.817" gradientUnits="userSpaceOnUse">
<stop stop-color="#8580F5"/>
<stop offset="1" stop-color="#B382F9"/>
</linearGradient>
<linearGradient id="paint5_linear_435_90896" x1="-226.396" y1="-41.8108" x2="480.833" y2="674.817" gradientUnits="userSpaceOnUse">
<stop stop-color="#A2B9FE"/>
<stop offset="1" stop-color="#C5BAFE"/>
</linearGradient>
<linearGradient id="paint6_linear_435_90896" x1="-226.396" y1="-41.8107" x2="480.833" y2="674.817" gradientUnits="userSpaceOnUse">
<stop stop-color="#B8D8FF"/>
<stop offset="1" stop-color="#D3D9FF"/>
</linearGradient>
<linearGradient id="paint7_linear_435_90896" x1="-226.396" y1="-41.8107" x2="480.833" y2="674.817" gradientUnits="userSpaceOnUse">
<stop stop-color="#5B63D0"/>
<stop offset="1" stop-color="#7364E2"/>
</linearGradient>
<linearGradient id="paint8_linear_435_90896" x1="-226.396" y1="-41.8105" x2="480.832" y2="674.817" gradientUnits="userSpaceOnUse">
<stop stop-color="#6B8CF9"/>
<stop offset="1" stop-color="#7D8DFB"/>
</linearGradient>
<linearGradient id="paint9_linear_435_90896" x1="-226.396" y1="-41.8109" x2="480.834" y2="674.817" gradientUnits="userSpaceOnUse">
<stop stop-color="#76A3FD"/>
<stop offset="1" stop-color="#84A3FD"/>
</linearGradient>
<linearGradient id="paint10_linear_435_90896" x1="-226.396" y1="-41.8105" x2="480.832" y2="674.817" gradientUnits="userSpaceOnUse">
<stop stop-color="#7FAFFD"/>
<stop offset="1" stop-color="#8AB0FD"/>
</linearGradient>
</defs>
</svg>
