<svg width="14" height="12" viewBox="0 0 14 12" fill="none" xmlns="http://www.w3.org/2000/svg">
<path d="M7.66683 11.3334C7.66683 10.3223 7.47505 9.3723 7.0915 8.48342C6.70838 7.59453 6.1835 6.81675 5.51683 6.15008C4.85016 5.48342 4.07238 4.95853 3.1835 4.57541C2.29461 4.19186 1.34461 4.00008 0.333496 4.00008V2.00008C0.333496 1.63341 0.464163 1.31964 0.725496 1.05875C0.986385 0.797415 1.30016 0.666748 1.66683 0.666748H12.3335C12.7002 0.666748 13.0142 0.797415 13.2755 1.05875C13.5364 1.31964 13.6668 1.63341 13.6668 2.00008V10.0001C13.6668 10.3667 13.5364 10.6807 13.2755 10.9421C13.0142 11.203 12.7002 11.3334 12.3335 11.3334H7.66683ZM5.00016 11.3334C5.00016 10.0334 4.5475 8.93053 3.64216 8.02475C2.73638 7.11941 1.6335 6.66675 0.333496 6.66675V5.33342C1.16683 5.33342 1.9475 5.49164 2.6755 5.80808C3.40305 6.12497 4.03638 6.55275 4.5755 7.09141C5.11416 7.63053 5.54194 8.26408 5.85883 8.99208C6.17527 9.71964 6.3335 10.5001 6.3335 11.3334H5.00016ZM2.3335 11.3334C2.3335 10.7779 2.13905 10.3056 1.75016 9.91675C1.36127 9.52786 0.889052 9.33342 0.333496 9.33342V8.00008C1.25572 8.00008 2.04172 8.32497 2.6915 8.97475C3.34172 9.62497 3.66683 10.4112 3.66683 11.3334H2.3335ZM8.8335 5.86675L11.5002 4.33341L8.8335 2.80008L6.16683 4.33341L8.8335 5.86675ZM8.8335 7.90008L10.6668 6.83342V5.43341L8.8335 6.50008L7.00016 5.43341V6.83342L8.8335 7.90008Z" fill="white"/>
</svg>
