<svg width="16" height="8" viewBox="0 0 16 8" fill="none" xmlns="http://www.w3.org/2000/svg">
<path d="M0 8V6.95C0 6.47222 0.244444 6.08333 0.733333 5.78333C1.22222 5.48333 1.86667 5.33333 2.66667 5.33333C2.81111 5.33333 2.95 5.336 3.08333 5.34133C3.21667 5.34711 3.34444 5.36111 3.46667 5.38333C3.31111 5.61667 3.19444 5.86111 3.11667 6.11667C3.03889 6.37222 3 6.63889 3 6.91667V8H0ZM4 8V6.91667C4 6.56111 4.09733 6.236 4.292 5.94133C4.48622 5.64711 4.76111 5.38889 5.11667 5.16667C5.47222 4.94444 5.89733 4.77778 6.392 4.66667C6.88622 4.55556 7.42222 4.5 8 4.5C8.58889 4.5 9.13067 4.55556 9.62533 4.66667C10.1196 4.77778 10.5444 4.94444 10.9 5.16667C11.2556 5.38889 11.5278 5.64711 11.7167 5.94133C11.9056 6.236 12 6.56111 12 6.91667V8H4ZM13 8V6.91667C13 6.62778 12.9638 6.35556 12.8913 6.1C12.8193 5.84444 12.7111 5.60556 12.5667 5.38333C12.6889 5.36111 12.814 5.34711 12.942 5.34133C13.0696 5.336 13.2 5.33333 13.3333 5.33333C14.1333 5.33333 14.7778 5.48044 15.2667 5.77467C15.7556 6.06933 16 6.46111 16 6.95V8H13ZM2.66667 4.66667C2.3 4.66667 1.98622 4.536 1.72533 4.27467C1.464 4.01378 1.33333 3.7 1.33333 3.33333C1.33333 2.95556 1.464 2.63889 1.72533 2.38333C1.98622 2.12778 2.3 2 2.66667 2C3.04444 2 3.36111 2.12778 3.61667 2.38333C3.87222 2.63889 4 2.95556 4 3.33333C4 3.7 3.87222 4.01378 3.61667 4.27467C3.36111 4.536 3.04444 4.66667 2.66667 4.66667ZM13.3333 4.66667C12.9667 4.66667 12.6527 4.536 12.3913 4.27467C12.1304 4.01378 12 3.7 12 3.33333C12 2.95556 12.1304 2.63889 12.3913 2.38333C12.6527 2.12778 12.9667 2 13.3333 2C13.7111 2 14.0278 2.12778 14.2833 2.38333C14.5389 2.63889 14.6667 2.95556 14.6667 3.33333C14.6667 3.7 14.5389 4.01378 14.2833 4.27467C14.0278 4.536 13.7111 4.66667 13.3333 4.66667ZM8 4C7.44444 4 6.97222 3.80556 6.58333 3.41667C6.19444 3.02778 6 2.55556 6 2C6 1.43333 6.19444 0.958222 6.58333 0.574667C6.97222 0.191556 7.44444 0 8 0C8.56667 0 9.04156 0.191556 9.42467 0.574667C9.80822 0.958222 10 1.43333 10 2C10 2.55556 9.80822 3.02778 9.42467 3.41667C9.04156 3.80556 8.56667 4 8 4Z" fill="white"/>
</svg>
