<svg width="14" height="12" viewBox="0 0 14 12" fill="none" xmlns="http://www.w3.org/2000/svg">
<path d="M6.3335 9.33342H7.66683V8.66675H8.3335C8.52238 8.66675 8.68083 8.60275 8.80883 8.47475C8.93638 8.34719 9.00016 8.18897 9.00016 8.00008V6.00008C9.00016 5.81119 8.93638 5.65275 8.80883 5.52475C8.68083 5.39719 8.52238 5.33342 8.3335 5.33342H6.3335V4.66675H9.00016V3.33341H7.66683V2.66675H6.3335V3.33341H5.66683C5.47794 3.33341 5.31972 3.39719 5.19216 3.52475C5.06416 3.65275 5.00016 3.81119 5.00016 4.00008V6.00008C5.00016 6.18897 5.06416 6.34719 5.19216 6.47475C5.31972 6.60275 5.47794 6.66675 5.66683 6.66675H7.66683V7.33342H5.00016V8.66675H6.3335V9.33342ZM1.66683 11.3334C1.30016 11.3334 0.986385 11.203 0.725496 10.9421C0.464163 10.6807 0.333496 10.3667 0.333496 10.0001V2.00008C0.333496 1.63341 0.464163 1.31964 0.725496 1.05875C0.986385 0.797415 1.30016 0.666748 1.66683 0.666748H12.3335C12.7002 0.666748 13.0142 0.797415 13.2755 1.05875C13.5364 1.31964 13.6668 1.63341 13.6668 2.00008V10.0001C13.6668 10.3667 13.5364 10.6807 13.2755 10.9421C13.0142 11.203 12.7002 11.3334 12.3335 11.3334H1.66683Z" fill="white"/>
</svg>
