<svg width="14" height="14" viewBox="0 0 14 14" fill="none" xmlns="http://www.w3.org/2000/svg">
<path d="M9.20016 10.1333L10.1335 9.19992L7.66683 6.73325V3.66658H6.3335V7.26658L9.20016 10.1333ZM7.00016 13.6666C6.07794 13.6666 5.21127 13.4915 4.40016 13.1413C3.58905 12.7915 2.8835 12.3166 2.2835 11.7166C1.6835 11.1166 1.20861 10.411 0.858829 9.59992C0.508607 8.78881 0.333496 7.92214 0.333496 6.99992C0.333496 6.0777 0.508607 5.21103 0.858829 4.39992C1.20861 3.58881 1.6835 2.88325 2.2835 2.28325C2.8835 1.68325 3.58905 1.20814 4.40016 0.857919C5.21127 0.508141 6.07794 0.333252 7.00016 0.333252C7.92238 0.333252 8.78905 0.508141 9.60016 0.857919C10.4113 1.20814 11.1168 1.68325 11.7168 2.28325C12.3168 2.88325 12.7917 3.58881 13.1415 4.39992C13.4917 5.21103 13.6668 6.0777 13.6668 6.99992C13.6668 7.92214 13.4917 8.78881 13.1415 9.59992C12.7917 10.411 12.3168 11.1166 11.7168 11.7166C11.1168 12.3166 10.4113 12.7915 9.60016 13.1413C8.78905 13.4915 7.92238 13.6666 7.00016 13.6666Z" fill="white"/>
</svg>
