<svg width="9" height="9" viewBox="0 0 9 9" fill="none" xmlns="http://www.w3.org/2000/svg">
<path d="M3.95212 6.23071V2.93225L6.51759 4.58148L3.95212 6.23071ZM4.86836 8.61293C4.20867 8.61293 3.59027 8.46169 3.01316 8.15921C2.43581 7.85697 1.95472 7.43403 1.5699 6.8904V7.87994H0.836914V5.68097H3.03588V6.41396H2.13797C2.44949 6.87208 2.84494 7.231 3.32432 7.49072C3.80394 7.7502 4.31862 7.87994 4.86836 7.87994C5.57081 7.87994 6.20753 7.67836 6.77853 7.27522C7.34978 6.87208 7.75145 6.3376 7.98357 5.6718L8.69823 5.83673C8.42336 6.66745 7.9347 7.33789 7.23225 7.84805C6.52981 8.35797 5.74184 8.61293 4.86836 8.61293ZM0.855239 4.21499C0.897997 3.80573 0.995729 3.41322 1.14843 3.03744C1.30114 2.6619 1.51188 2.31532 1.78064 1.99769L2.30289 2.51995C2.10743 2.77038 1.94862 3.03756 1.82645 3.32147C1.70429 3.60563 1.62793 3.90346 1.59739 4.21499H0.855239ZM2.81599 2.00685L2.29373 1.4846C2.61747 1.21583 2.96564 1.00351 3.33824 0.847629C3.71085 0.69199 4.09872 0.598901 4.50187 0.568359V1.30135C4.19034 1.33189 3.89409 1.40824 3.61311 1.53041C3.33213 1.65257 3.06643 1.81139 2.81599 2.00685ZM6.92989 2.00685C6.67946 1.81139 6.41228 1.65257 6.12837 1.53041C5.84421 1.40824 5.54638 1.33189 5.23486 1.30135V0.568359C5.64411 0.605009 6.0365 0.699687 6.41204 0.852393C6.78782 1.0051 7.13452 1.21583 7.45215 1.4846L6.92989 2.00685ZM8.14849 4.21499C8.11795 3.90346 8.0416 3.60563 7.91943 3.32147C7.79727 3.03756 7.63845 2.77038 7.44299 2.51995L7.96524 1.99769C8.23401 2.31532 8.44474 2.6619 8.59745 3.03744C8.75015 3.41322 8.84483 3.80573 8.88148 4.21499H8.14849Z" fill="#9269CD"/>
</svg>
