<svg width="7" height="9" viewBox="0 0 7 9" fill="none" xmlns="http://www.w3.org/2000/svg">
<path d="M2.18766 6.78043H5.11962V6.04743H2.18766V6.78043ZM2.18766 5.31444H5.11962V4.58145H2.18766V5.31444ZM1.45467 8.24641C1.2531 8.24641 1.0806 8.17469 0.937179 8.03127C0.793513 7.88761 0.72168 7.71499 0.72168 7.51342V1.64949C0.72168 1.44792 0.793513 1.2753 0.937179 1.13164C1.0806 0.988215 1.2531 0.916504 1.45467 0.916504H4.38663L6.5856 3.11547V7.51342C6.5856 7.71499 6.51389 7.88761 6.37047 8.03127C6.2268 8.17469 6.05418 8.24641 5.85261 8.24641H1.45467ZM4.02014 3.48197V1.64949H1.45467V7.51342H5.85261V3.48197H4.02014Z" fill="#5978CF"/>
</svg>
