<svg width="9" height="9" viewBox="0 0 9 9" fill="none" xmlns="http://www.w3.org/2000/svg">
<path d="M0.622559 4.79585C0.622559 4.23389 0.727987 3.70858 0.938844 3.21992C1.14946 2.73126 1.43801 2.30515 1.80451 1.94159C2.171 1.57827 2.59858 1.29118 3.08724 1.08032C3.5759 0.869711 4.09815 0.764404 4.654 0.764404C5.20986 0.764404 5.73211 0.869711 6.22077 1.08032C6.70943 1.29118 7.13701 1.57827 7.5035 1.94159C7.87 2.30515 8.15868 2.73126 8.36953 3.21992C8.58014 3.70858 8.68545 4.23389 8.68545 4.79585H7.95246C7.95246 4.33773 7.86548 3.90857 7.69152 3.50835C7.51731 3.10838 7.28055 2.75875 6.98125 2.45944C6.68194 2.16014 6.33231 1.92497 5.93234 1.75394C5.53213 1.58291 5.10602 1.49739 4.654 1.49739C4.20199 1.49739 3.77588 1.58291 3.37567 1.75394C2.9757 1.92497 2.62607 2.16014 2.32676 2.45944C2.02746 2.75875 1.7907 3.10838 1.61649 3.50835C1.44253 3.90857 1.35555 4.33773 1.35555 4.79585H0.622559ZM2.08854 4.79585C2.08854 4.07508 2.33898 3.46731 2.83985 2.97254C3.34073 2.47777 3.94545 2.23038 4.654 2.23038C5.36256 2.23038 5.96728 2.47777 6.46816 2.97254C6.96903 3.46731 7.21947 4.07508 7.21947 4.79585H6.48648C6.48648 4.28887 6.30788 3.85665 5.95066 3.49919C5.59321 3.14198 5.16099 2.96337 4.654 2.96337C4.14702 2.96337 3.71492 3.14198 3.35771 3.49919C3.00026 3.85665 2.82153 4.28887 2.82153 4.79585H2.08854ZM3.55452 8.6074L3.04143 8.09431L4.28751 6.84822V5.63879C4.12259 5.56549 3.98979 5.45249 3.88913 5.29978C3.78822 5.14707 3.73777 4.9791 3.73777 4.79585C3.73777 4.5393 3.82634 4.32246 4.00348 4.14532C4.18062 3.96818 4.39746 3.87961 4.654 3.87961C4.91055 3.87961 5.12739 3.96818 5.30453 4.14532C5.48167 4.32246 5.57024 4.5393 5.57024 4.79585C5.57024 4.9791 5.51991 5.14707 5.41925 5.29978C5.31834 5.45249 5.18542 5.56549 5.0205 5.63879V6.84822L6.26658 8.09431L5.75349 8.6074L4.654 7.50791L3.55452 8.6074Z" fill="#F69E8E"/>
</svg>
