<svg width="8" height="7" viewBox="0 0 8 7" fill="none" xmlns="http://www.w3.org/2000/svg">
<path d="M4.60127 6.9935V6.24218C5.15101 6.08337 5.59386 5.77796 5.92982 5.32595C6.26577 4.87393 6.43375 4.36084 6.43375 3.78667C6.43375 3.21249 6.26577 2.6994 5.92982 2.24739C5.59386 1.79538 5.15101 1.48996 4.60127 1.33115V0.579834C5.35869 0.750865 5.97563 1.1341 6.45207 1.72953C6.92851 2.32521 7.16674 3.01092 7.16674 3.78667C7.16674 4.56241 6.92851 5.248 6.45207 5.84344C5.97563 6.43911 5.35869 6.82247 4.60127 6.9935ZM0.569824 4.89531V2.69634H2.0358L3.86828 0.863868V6.72779L2.0358 4.89531H0.569824ZM4.60127 5.26181V2.31152C4.88836 2.4459 5.1129 2.64748 5.27489 2.91624C5.43664 3.185 5.51751 3.4782 5.51751 3.79583C5.51751 4.10735 5.43664 4.3959 5.27489 4.66149C5.1129 4.92732 4.88836 5.12743 4.60127 5.26181Z" fill="#3FA96A"/>
</svg>
