<svg width="59" height="111" viewBox="0 0 59 111" fill="none" xmlns="http://www.w3.org/2000/svg">
<path d="M36.1766 49.9021C36.4801 49.5363 36.7716 49.3454 36.8828 49.0777C43.2717 39.8268 48.8465 30.2743 52.4382 19.8775C54.0613 15.1682 54.9452 10.4141 55.5497 5.67613C55.7271 4.44657 56.0037 3.12423 56.2743 1.88932C56.3975 1.44676 56.6199 0.911396 56.9234 0.545574C57.1217 0.359987 57.5995 0.158348 57.8729 0.229741C58.1463 0.301137 58.3025 0.727653 58.2845 0.989982C57.1113 12.6413 54.2796 24.1267 48.1488 35.0176C44.9813 40.5996 41.7266 46.0995 37.9311 51.3691C37.5224 51.9152 37.0025 52.7289 37.0596 53.2482C37.8009 59.9992 36.1326 66.7145 33.5508 73.2209C29.6105 83.2892 25.2166 93.2094 21.0029 103.206C20.7745 103.829 20.4469 104.545 20.4798 105.414C26.5438 100.885 32.5206 96.2738 38.6836 91.652C39.3626 92.5711 39.1281 93.2813 38.6143 94.0076C38.0012 94.8267 37.3822 95.7332 36.5888 96.4756C32.1385 100.476 27.6881 104.477 23.1506 108.396C22.165 109.236 21.0051 109.913 19.8513 110.502C17.5496 111.592 15.846 110.732 15.63 108.48C15.2849 104.057 15.027 99.7173 14.8683 95.2844C14.7723 93.9835 15.3854 93.1644 16.422 92.9307C17.3595 92.7897 18.1556 93.3537 18.3448 94.6493C18.654 96.896 18.7769 99.1535 19.0681 101.663C19.3776 101.209 19.5759 101.024 19.6871 100.756C23.5343 90.6931 27.4745 80.6248 31.1414 70.4851C32.2775 67.4585 32.7797 64.207 33.4561 61.1198C33.7266 59.8849 33.6306 58.5839 33.739 57.0099C33.0508 57.572 32.555 58.036 32.1584 58.4072C29.1594 61.5407 25.8058 64.4334 22.0287 66.7407C18.6422 68.7642 15.1176 70.0989 11.2115 70.2362C9.91353 70.2237 8.52236 70.2165 7.24241 69.9416C1.56975 68.7868 -1.16695 64.0665 0.52834 58.3078C2.50624 51.1393 10.6469 42.0491 21.5389 41.5105C27.6864 41.1574 32.1571 43.6007 35.1792 48.2175C35.5157 48.7207 35.8461 49.3114 36.1766 49.9021ZM11.2869 67.7931C14.8325 67.5024 17.8733 66.4568 20.6829 64.7276C25.2232 62.1152 28.9914 58.5891 32.4052 54.822C33.2045 53.9922 33.2587 53.2052 33.0455 52.2594C31.7119 47.3714 26.3761 44.0198 20.8685 44.5104C13.3988 45.2007 5.35159 51.5855 3.29259 58.5845C1.85583 63.2832 4.0308 66.7293 8.79608 67.5878C9.71551 67.7092 10.7341 67.7378 11.2869 67.7931Z" fill="white"/>
</svg>
